%TF.GenerationSoftware,KiCad,Pcbnew,9.0.1*%
%TF.CreationDate,2026-02-02T13:33:26+05:30*%
%TF.ProjectId,robotics_controller,726f626f-7469-4637-935f-636f6e74726f,rev?*%
%TF.SameCoordinates,Original*%
%TF.FileFunction,Legend,Top*%
%TF.FilePolarity,Positive*%
%FSLAX46Y46*%
G04 Gerber Fmt 4.6, Leading zero omitted, Abs format (unit mm)*
G04 Created by KiCad (PCBNEW 9.0.1) date 2026-02-02 13:33:26*
%MOMM*%
%LPD*%
G01*
G04 APERTURE LIST*
%ADD10C,0.150000*%
%ADD11C,0.127000*%
%ADD12C,0.200000*%
%ADD13C,0.120000*%
%ADD14C,0.100000*%
%ADD15C,0.101600*%
G04 APERTURE END LIST*
D10*
X194069819Y-55589404D02*
X194879342Y-55589404D01*
X194879342Y-55589404D02*
X194974580Y-55541785D01*
X194974580Y-55541785D02*
X195022200Y-55494166D01*
X195022200Y-55494166D02*
X195069819Y-55398928D01*
X195069819Y-55398928D02*
X195069819Y-55208452D01*
X195069819Y-55208452D02*
X195022200Y-55113214D01*
X195022200Y-55113214D02*
X194974580Y-55065595D01*
X194974580Y-55065595D02*
X194879342Y-55017976D01*
X194879342Y-55017976D02*
X194069819Y-55017976D01*
X195069819Y-54017976D02*
X195069819Y-54589404D01*
X195069819Y-54303690D02*
X194069819Y-54303690D01*
X194069819Y-54303690D02*
X194212676Y-54398928D01*
X194212676Y-54398928D02*
X194307914Y-54494166D01*
X194307914Y-54494166D02*
X194355533Y-54589404D01*
X182661666Y-68672200D02*
X182528333Y-68605533D01*
X182528333Y-68605533D02*
X182395000Y-68472200D01*
X182395000Y-68472200D02*
X182195000Y-68272200D01*
X182195000Y-68272200D02*
X182061666Y-68205533D01*
X182061666Y-68205533D02*
X181928333Y-68205533D01*
X181995000Y-68538866D02*
X181861666Y-68472200D01*
X181861666Y-68472200D02*
X181728333Y-68338866D01*
X181728333Y-68338866D02*
X181661666Y-68072200D01*
X181661666Y-68072200D02*
X181661666Y-67605533D01*
X181661666Y-67605533D02*
X181728333Y-67338866D01*
X181728333Y-67338866D02*
X181861666Y-67205533D01*
X181861666Y-67205533D02*
X181995000Y-67138866D01*
X181995000Y-67138866D02*
X182261666Y-67138866D01*
X182261666Y-67138866D02*
X182395000Y-67205533D01*
X182395000Y-67205533D02*
X182528333Y-67338866D01*
X182528333Y-67338866D02*
X182595000Y-67605533D01*
X182595000Y-67605533D02*
X182595000Y-68072200D01*
X182595000Y-68072200D02*
X182528333Y-68338866D01*
X182528333Y-68338866D02*
X182395000Y-68472200D01*
X182395000Y-68472200D02*
X182261666Y-68538866D01*
X182261666Y-68538866D02*
X181995000Y-68538866D01*
X183928333Y-68538866D02*
X183128333Y-68538866D01*
X183528333Y-68538866D02*
X183528333Y-67138866D01*
X183528333Y-67138866D02*
X183395000Y-67338866D01*
X183395000Y-67338866D02*
X183261667Y-67472200D01*
X183261667Y-67472200D02*
X183128333Y-67538866D01*
X154857142Y-101309580D02*
X154809523Y-101357200D01*
X154809523Y-101357200D02*
X154666666Y-101404819D01*
X154666666Y-101404819D02*
X154571428Y-101404819D01*
X154571428Y-101404819D02*
X154428571Y-101357200D01*
X154428571Y-101357200D02*
X154333333Y-101261961D01*
X154333333Y-101261961D02*
X154285714Y-101166723D01*
X154285714Y-101166723D02*
X154238095Y-100976247D01*
X154238095Y-100976247D02*
X154238095Y-100833390D01*
X154238095Y-100833390D02*
X154285714Y-100642914D01*
X154285714Y-100642914D02*
X154333333Y-100547676D01*
X154333333Y-100547676D02*
X154428571Y-100452438D01*
X154428571Y-100452438D02*
X154571428Y-100404819D01*
X154571428Y-100404819D02*
X154666666Y-100404819D01*
X154666666Y-100404819D02*
X154809523Y-100452438D01*
X154809523Y-100452438D02*
X154857142Y-100500057D01*
X155238095Y-100500057D02*
X155285714Y-100452438D01*
X155285714Y-100452438D02*
X155380952Y-100404819D01*
X155380952Y-100404819D02*
X155619047Y-100404819D01*
X155619047Y-100404819D02*
X155714285Y-100452438D01*
X155714285Y-100452438D02*
X155761904Y-100500057D01*
X155761904Y-100500057D02*
X155809523Y-100595295D01*
X155809523Y-100595295D02*
X155809523Y-100690533D01*
X155809523Y-100690533D02*
X155761904Y-100833390D01*
X155761904Y-100833390D02*
X155190476Y-101404819D01*
X155190476Y-101404819D02*
X155809523Y-101404819D01*
X156428571Y-100404819D02*
X156523809Y-100404819D01*
X156523809Y-100404819D02*
X156619047Y-100452438D01*
X156619047Y-100452438D02*
X156666666Y-100500057D01*
X156666666Y-100500057D02*
X156714285Y-100595295D01*
X156714285Y-100595295D02*
X156761904Y-100785771D01*
X156761904Y-100785771D02*
X156761904Y-101023866D01*
X156761904Y-101023866D02*
X156714285Y-101214342D01*
X156714285Y-101214342D02*
X156666666Y-101309580D01*
X156666666Y-101309580D02*
X156619047Y-101357200D01*
X156619047Y-101357200D02*
X156523809Y-101404819D01*
X156523809Y-101404819D02*
X156428571Y-101404819D01*
X156428571Y-101404819D02*
X156333333Y-101357200D01*
X156333333Y-101357200D02*
X156285714Y-101309580D01*
X156285714Y-101309580D02*
X156238095Y-101214342D01*
X156238095Y-101214342D02*
X156190476Y-101023866D01*
X156190476Y-101023866D02*
X156190476Y-100785771D01*
X156190476Y-100785771D02*
X156238095Y-100595295D01*
X156238095Y-100595295D02*
X156285714Y-100500057D01*
X156285714Y-100500057D02*
X156333333Y-100452438D01*
X156333333Y-100452438D02*
X156428571Y-100404819D01*
X162357142Y-85509580D02*
X162309523Y-85557200D01*
X162309523Y-85557200D02*
X162166666Y-85604819D01*
X162166666Y-85604819D02*
X162071428Y-85604819D01*
X162071428Y-85604819D02*
X161928571Y-85557200D01*
X161928571Y-85557200D02*
X161833333Y-85461961D01*
X161833333Y-85461961D02*
X161785714Y-85366723D01*
X161785714Y-85366723D02*
X161738095Y-85176247D01*
X161738095Y-85176247D02*
X161738095Y-85033390D01*
X161738095Y-85033390D02*
X161785714Y-84842914D01*
X161785714Y-84842914D02*
X161833333Y-84747676D01*
X161833333Y-84747676D02*
X161928571Y-84652438D01*
X161928571Y-84652438D02*
X162071428Y-84604819D01*
X162071428Y-84604819D02*
X162166666Y-84604819D01*
X162166666Y-84604819D02*
X162309523Y-84652438D01*
X162309523Y-84652438D02*
X162357142Y-84700057D01*
X162738095Y-84700057D02*
X162785714Y-84652438D01*
X162785714Y-84652438D02*
X162880952Y-84604819D01*
X162880952Y-84604819D02*
X163119047Y-84604819D01*
X163119047Y-84604819D02*
X163214285Y-84652438D01*
X163214285Y-84652438D02*
X163261904Y-84700057D01*
X163261904Y-84700057D02*
X163309523Y-84795295D01*
X163309523Y-84795295D02*
X163309523Y-84890533D01*
X163309523Y-84890533D02*
X163261904Y-85033390D01*
X163261904Y-85033390D02*
X162690476Y-85604819D01*
X162690476Y-85604819D02*
X163309523Y-85604819D01*
X164166666Y-84604819D02*
X163976190Y-84604819D01*
X163976190Y-84604819D02*
X163880952Y-84652438D01*
X163880952Y-84652438D02*
X163833333Y-84700057D01*
X163833333Y-84700057D02*
X163738095Y-84842914D01*
X163738095Y-84842914D02*
X163690476Y-85033390D01*
X163690476Y-85033390D02*
X163690476Y-85414342D01*
X163690476Y-85414342D02*
X163738095Y-85509580D01*
X163738095Y-85509580D02*
X163785714Y-85557200D01*
X163785714Y-85557200D02*
X163880952Y-85604819D01*
X163880952Y-85604819D02*
X164071428Y-85604819D01*
X164071428Y-85604819D02*
X164166666Y-85557200D01*
X164166666Y-85557200D02*
X164214285Y-85509580D01*
X164214285Y-85509580D02*
X164261904Y-85414342D01*
X164261904Y-85414342D02*
X164261904Y-85176247D01*
X164261904Y-85176247D02*
X164214285Y-85081009D01*
X164214285Y-85081009D02*
X164166666Y-85033390D01*
X164166666Y-85033390D02*
X164071428Y-84985771D01*
X164071428Y-84985771D02*
X163880952Y-84985771D01*
X163880952Y-84985771D02*
X163785714Y-85033390D01*
X163785714Y-85033390D02*
X163738095Y-85081009D01*
X163738095Y-85081009D02*
X163690476Y-85176247D01*
X234690476Y-56344819D02*
X234690476Y-57059104D01*
X234690476Y-57059104D02*
X234642857Y-57201961D01*
X234642857Y-57201961D02*
X234547619Y-57297200D01*
X234547619Y-57297200D02*
X234404762Y-57344819D01*
X234404762Y-57344819D02*
X234309524Y-57344819D01*
X235690476Y-57344819D02*
X235119048Y-57344819D01*
X235404762Y-57344819D02*
X235404762Y-56344819D01*
X235404762Y-56344819D02*
X235309524Y-56487676D01*
X235309524Y-56487676D02*
X235214286Y-56582914D01*
X235214286Y-56582914D02*
X235119048Y-56630533D01*
X236595238Y-56344819D02*
X236119048Y-56344819D01*
X236119048Y-56344819D02*
X236071429Y-56821009D01*
X236071429Y-56821009D02*
X236119048Y-56773390D01*
X236119048Y-56773390D02*
X236214286Y-56725771D01*
X236214286Y-56725771D02*
X236452381Y-56725771D01*
X236452381Y-56725771D02*
X236547619Y-56773390D01*
X236547619Y-56773390D02*
X236595238Y-56821009D01*
X236595238Y-56821009D02*
X236642857Y-56916247D01*
X236642857Y-56916247D02*
X236642857Y-57154342D01*
X236642857Y-57154342D02*
X236595238Y-57249580D01*
X236595238Y-57249580D02*
X236547619Y-57297200D01*
X236547619Y-57297200D02*
X236452381Y-57344819D01*
X236452381Y-57344819D02*
X236214286Y-57344819D01*
X236214286Y-57344819D02*
X236119048Y-57297200D01*
X236119048Y-57297200D02*
X236071429Y-57249580D01*
X162357142Y-75809580D02*
X162309523Y-75857200D01*
X162309523Y-75857200D02*
X162166666Y-75904819D01*
X162166666Y-75904819D02*
X162071428Y-75904819D01*
X162071428Y-75904819D02*
X161928571Y-75857200D01*
X161928571Y-75857200D02*
X161833333Y-75761961D01*
X161833333Y-75761961D02*
X161785714Y-75666723D01*
X161785714Y-75666723D02*
X161738095Y-75476247D01*
X161738095Y-75476247D02*
X161738095Y-75333390D01*
X161738095Y-75333390D02*
X161785714Y-75142914D01*
X161785714Y-75142914D02*
X161833333Y-75047676D01*
X161833333Y-75047676D02*
X161928571Y-74952438D01*
X161928571Y-74952438D02*
X162071428Y-74904819D01*
X162071428Y-74904819D02*
X162166666Y-74904819D01*
X162166666Y-74904819D02*
X162309523Y-74952438D01*
X162309523Y-74952438D02*
X162357142Y-75000057D01*
X162738095Y-75000057D02*
X162785714Y-74952438D01*
X162785714Y-74952438D02*
X162880952Y-74904819D01*
X162880952Y-74904819D02*
X163119047Y-74904819D01*
X163119047Y-74904819D02*
X163214285Y-74952438D01*
X163214285Y-74952438D02*
X163261904Y-75000057D01*
X163261904Y-75000057D02*
X163309523Y-75095295D01*
X163309523Y-75095295D02*
X163309523Y-75190533D01*
X163309523Y-75190533D02*
X163261904Y-75333390D01*
X163261904Y-75333390D02*
X162690476Y-75904819D01*
X162690476Y-75904819D02*
X163309523Y-75904819D01*
X164166666Y-75238152D02*
X164166666Y-75904819D01*
X163928571Y-74857200D02*
X163690476Y-75571485D01*
X163690476Y-75571485D02*
X164309523Y-75571485D01*
X141283333Y-86859580D02*
X141235714Y-86907200D01*
X141235714Y-86907200D02*
X141092857Y-86954819D01*
X141092857Y-86954819D02*
X140997619Y-86954819D01*
X140997619Y-86954819D02*
X140854762Y-86907200D01*
X140854762Y-86907200D02*
X140759524Y-86811961D01*
X140759524Y-86811961D02*
X140711905Y-86716723D01*
X140711905Y-86716723D02*
X140664286Y-86526247D01*
X140664286Y-86526247D02*
X140664286Y-86383390D01*
X140664286Y-86383390D02*
X140711905Y-86192914D01*
X140711905Y-86192914D02*
X140759524Y-86097676D01*
X140759524Y-86097676D02*
X140854762Y-86002438D01*
X140854762Y-86002438D02*
X140997619Y-85954819D01*
X140997619Y-85954819D02*
X141092857Y-85954819D01*
X141092857Y-85954819D02*
X141235714Y-86002438D01*
X141235714Y-86002438D02*
X141283333Y-86050057D01*
X141854762Y-86383390D02*
X141759524Y-86335771D01*
X141759524Y-86335771D02*
X141711905Y-86288152D01*
X141711905Y-86288152D02*
X141664286Y-86192914D01*
X141664286Y-86192914D02*
X141664286Y-86145295D01*
X141664286Y-86145295D02*
X141711905Y-86050057D01*
X141711905Y-86050057D02*
X141759524Y-86002438D01*
X141759524Y-86002438D02*
X141854762Y-85954819D01*
X141854762Y-85954819D02*
X142045238Y-85954819D01*
X142045238Y-85954819D02*
X142140476Y-86002438D01*
X142140476Y-86002438D02*
X142188095Y-86050057D01*
X142188095Y-86050057D02*
X142235714Y-86145295D01*
X142235714Y-86145295D02*
X142235714Y-86192914D01*
X142235714Y-86192914D02*
X142188095Y-86288152D01*
X142188095Y-86288152D02*
X142140476Y-86335771D01*
X142140476Y-86335771D02*
X142045238Y-86383390D01*
X142045238Y-86383390D02*
X141854762Y-86383390D01*
X141854762Y-86383390D02*
X141759524Y-86431009D01*
X141759524Y-86431009D02*
X141711905Y-86478628D01*
X141711905Y-86478628D02*
X141664286Y-86573866D01*
X141664286Y-86573866D02*
X141664286Y-86764342D01*
X141664286Y-86764342D02*
X141711905Y-86859580D01*
X141711905Y-86859580D02*
X141759524Y-86907200D01*
X141759524Y-86907200D02*
X141854762Y-86954819D01*
X141854762Y-86954819D02*
X142045238Y-86954819D01*
X142045238Y-86954819D02*
X142140476Y-86907200D01*
X142140476Y-86907200D02*
X142188095Y-86859580D01*
X142188095Y-86859580D02*
X142235714Y-86764342D01*
X142235714Y-86764342D02*
X142235714Y-86573866D01*
X142235714Y-86573866D02*
X142188095Y-86478628D01*
X142188095Y-86478628D02*
X142140476Y-86431009D01*
X142140476Y-86431009D02*
X142045238Y-86383390D01*
X143582142Y-63359580D02*
X143534523Y-63407200D01*
X143534523Y-63407200D02*
X143391666Y-63454819D01*
X143391666Y-63454819D02*
X143296428Y-63454819D01*
X143296428Y-63454819D02*
X143153571Y-63407200D01*
X143153571Y-63407200D02*
X143058333Y-63311961D01*
X143058333Y-63311961D02*
X143010714Y-63216723D01*
X143010714Y-63216723D02*
X142963095Y-63026247D01*
X142963095Y-63026247D02*
X142963095Y-62883390D01*
X142963095Y-62883390D02*
X143010714Y-62692914D01*
X143010714Y-62692914D02*
X143058333Y-62597676D01*
X143058333Y-62597676D02*
X143153571Y-62502438D01*
X143153571Y-62502438D02*
X143296428Y-62454819D01*
X143296428Y-62454819D02*
X143391666Y-62454819D01*
X143391666Y-62454819D02*
X143534523Y-62502438D01*
X143534523Y-62502438D02*
X143582142Y-62550057D01*
X144534523Y-63454819D02*
X143963095Y-63454819D01*
X144248809Y-63454819D02*
X144248809Y-62454819D01*
X144248809Y-62454819D02*
X144153571Y-62597676D01*
X144153571Y-62597676D02*
X144058333Y-62692914D01*
X144058333Y-62692914D02*
X143963095Y-62740533D01*
X145391666Y-62454819D02*
X145201190Y-62454819D01*
X145201190Y-62454819D02*
X145105952Y-62502438D01*
X145105952Y-62502438D02*
X145058333Y-62550057D01*
X145058333Y-62550057D02*
X144963095Y-62692914D01*
X144963095Y-62692914D02*
X144915476Y-62883390D01*
X144915476Y-62883390D02*
X144915476Y-63264342D01*
X144915476Y-63264342D02*
X144963095Y-63359580D01*
X144963095Y-63359580D02*
X145010714Y-63407200D01*
X145010714Y-63407200D02*
X145105952Y-63454819D01*
X145105952Y-63454819D02*
X145296428Y-63454819D01*
X145296428Y-63454819D02*
X145391666Y-63407200D01*
X145391666Y-63407200D02*
X145439285Y-63359580D01*
X145439285Y-63359580D02*
X145486904Y-63264342D01*
X145486904Y-63264342D02*
X145486904Y-63026247D01*
X145486904Y-63026247D02*
X145439285Y-62931009D01*
X145439285Y-62931009D02*
X145391666Y-62883390D01*
X145391666Y-62883390D02*
X145296428Y-62835771D01*
X145296428Y-62835771D02*
X145105952Y-62835771D01*
X145105952Y-62835771D02*
X145010714Y-62883390D01*
X145010714Y-62883390D02*
X144963095Y-62931009D01*
X144963095Y-62931009D02*
X144915476Y-63026247D01*
X143332142Y-61359580D02*
X143284523Y-61407200D01*
X143284523Y-61407200D02*
X143141666Y-61454819D01*
X143141666Y-61454819D02*
X143046428Y-61454819D01*
X143046428Y-61454819D02*
X142903571Y-61407200D01*
X142903571Y-61407200D02*
X142808333Y-61311961D01*
X142808333Y-61311961D02*
X142760714Y-61216723D01*
X142760714Y-61216723D02*
X142713095Y-61026247D01*
X142713095Y-61026247D02*
X142713095Y-60883390D01*
X142713095Y-60883390D02*
X142760714Y-60692914D01*
X142760714Y-60692914D02*
X142808333Y-60597676D01*
X142808333Y-60597676D02*
X142903571Y-60502438D01*
X142903571Y-60502438D02*
X143046428Y-60454819D01*
X143046428Y-60454819D02*
X143141666Y-60454819D01*
X143141666Y-60454819D02*
X143284523Y-60502438D01*
X143284523Y-60502438D02*
X143332142Y-60550057D01*
X144284523Y-61454819D02*
X143713095Y-61454819D01*
X143998809Y-61454819D02*
X143998809Y-60454819D01*
X143998809Y-60454819D02*
X143903571Y-60597676D01*
X143903571Y-60597676D02*
X143808333Y-60692914D01*
X143808333Y-60692914D02*
X143713095Y-60740533D01*
X145189285Y-60454819D02*
X144713095Y-60454819D01*
X144713095Y-60454819D02*
X144665476Y-60931009D01*
X144665476Y-60931009D02*
X144713095Y-60883390D01*
X144713095Y-60883390D02*
X144808333Y-60835771D01*
X144808333Y-60835771D02*
X145046428Y-60835771D01*
X145046428Y-60835771D02*
X145141666Y-60883390D01*
X145141666Y-60883390D02*
X145189285Y-60931009D01*
X145189285Y-60931009D02*
X145236904Y-61026247D01*
X145236904Y-61026247D02*
X145236904Y-61264342D01*
X145236904Y-61264342D02*
X145189285Y-61359580D01*
X145189285Y-61359580D02*
X145141666Y-61407200D01*
X145141666Y-61407200D02*
X145046428Y-61454819D01*
X145046428Y-61454819D02*
X144808333Y-61454819D01*
X144808333Y-61454819D02*
X144713095Y-61407200D01*
X144713095Y-61407200D02*
X144665476Y-61359580D01*
X143582142Y-65359580D02*
X143534523Y-65407200D01*
X143534523Y-65407200D02*
X143391666Y-65454819D01*
X143391666Y-65454819D02*
X143296428Y-65454819D01*
X143296428Y-65454819D02*
X143153571Y-65407200D01*
X143153571Y-65407200D02*
X143058333Y-65311961D01*
X143058333Y-65311961D02*
X143010714Y-65216723D01*
X143010714Y-65216723D02*
X142963095Y-65026247D01*
X142963095Y-65026247D02*
X142963095Y-64883390D01*
X142963095Y-64883390D02*
X143010714Y-64692914D01*
X143010714Y-64692914D02*
X143058333Y-64597676D01*
X143058333Y-64597676D02*
X143153571Y-64502438D01*
X143153571Y-64502438D02*
X143296428Y-64454819D01*
X143296428Y-64454819D02*
X143391666Y-64454819D01*
X143391666Y-64454819D02*
X143534523Y-64502438D01*
X143534523Y-64502438D02*
X143582142Y-64550057D01*
X144534523Y-65454819D02*
X143963095Y-65454819D01*
X144248809Y-65454819D02*
X144248809Y-64454819D01*
X144248809Y-64454819D02*
X144153571Y-64597676D01*
X144153571Y-64597676D02*
X144058333Y-64692914D01*
X144058333Y-64692914D02*
X143963095Y-64740533D01*
X144867857Y-64454819D02*
X145534523Y-64454819D01*
X145534523Y-64454819D02*
X145105952Y-65454819D01*
X216194905Y-72889819D02*
X216194905Y-71889819D01*
X216194905Y-71889819D02*
X216433000Y-71889819D01*
X216433000Y-71889819D02*
X216575857Y-71937438D01*
X216575857Y-71937438D02*
X216671095Y-72032676D01*
X216671095Y-72032676D02*
X216718714Y-72127914D01*
X216718714Y-72127914D02*
X216766333Y-72318390D01*
X216766333Y-72318390D02*
X216766333Y-72461247D01*
X216766333Y-72461247D02*
X216718714Y-72651723D01*
X216718714Y-72651723D02*
X216671095Y-72746961D01*
X216671095Y-72746961D02*
X216575857Y-72842200D01*
X216575857Y-72842200D02*
X216433000Y-72889819D01*
X216433000Y-72889819D02*
X216194905Y-72889819D01*
X217147286Y-71985057D02*
X217194905Y-71937438D01*
X217194905Y-71937438D02*
X217290143Y-71889819D01*
X217290143Y-71889819D02*
X217528238Y-71889819D01*
X217528238Y-71889819D02*
X217623476Y-71937438D01*
X217623476Y-71937438D02*
X217671095Y-71985057D01*
X217671095Y-71985057D02*
X217718714Y-72080295D01*
X217718714Y-72080295D02*
X217718714Y-72175533D01*
X217718714Y-72175533D02*
X217671095Y-72318390D01*
X217671095Y-72318390D02*
X217099667Y-72889819D01*
X217099667Y-72889819D02*
X217718714Y-72889819D01*
X132690476Y-71344819D02*
X132690476Y-72059104D01*
X132690476Y-72059104D02*
X132642857Y-72201961D01*
X132642857Y-72201961D02*
X132547619Y-72297200D01*
X132547619Y-72297200D02*
X132404762Y-72344819D01*
X132404762Y-72344819D02*
X132309524Y-72344819D01*
X133690476Y-72344819D02*
X133119048Y-72344819D01*
X133404762Y-72344819D02*
X133404762Y-71344819D01*
X133404762Y-71344819D02*
X133309524Y-71487676D01*
X133309524Y-71487676D02*
X133214286Y-71582914D01*
X133214286Y-71582914D02*
X133119048Y-71630533D01*
X134071429Y-71440057D02*
X134119048Y-71392438D01*
X134119048Y-71392438D02*
X134214286Y-71344819D01*
X134214286Y-71344819D02*
X134452381Y-71344819D01*
X134452381Y-71344819D02*
X134547619Y-71392438D01*
X134547619Y-71392438D02*
X134595238Y-71440057D01*
X134595238Y-71440057D02*
X134642857Y-71535295D01*
X134642857Y-71535295D02*
X134642857Y-71630533D01*
X134642857Y-71630533D02*
X134595238Y-71773390D01*
X134595238Y-71773390D02*
X134023810Y-72344819D01*
X134023810Y-72344819D02*
X134642857Y-72344819D01*
X216194905Y-92439819D02*
X216194905Y-91439819D01*
X216194905Y-91439819D02*
X216433000Y-91439819D01*
X216433000Y-91439819D02*
X216575857Y-91487438D01*
X216575857Y-91487438D02*
X216671095Y-91582676D01*
X216671095Y-91582676D02*
X216718714Y-91677914D01*
X216718714Y-91677914D02*
X216766333Y-91868390D01*
X216766333Y-91868390D02*
X216766333Y-92011247D01*
X216766333Y-92011247D02*
X216718714Y-92201723D01*
X216718714Y-92201723D02*
X216671095Y-92296961D01*
X216671095Y-92296961D02*
X216575857Y-92392200D01*
X216575857Y-92392200D02*
X216433000Y-92439819D01*
X216433000Y-92439819D02*
X216194905Y-92439819D01*
X217099667Y-91439819D02*
X217766333Y-91439819D01*
X217766333Y-91439819D02*
X217337762Y-92439819D01*
X209343333Y-87294819D02*
X209010000Y-86818628D01*
X208771905Y-87294819D02*
X208771905Y-86294819D01*
X208771905Y-86294819D02*
X209152857Y-86294819D01*
X209152857Y-86294819D02*
X209248095Y-86342438D01*
X209248095Y-86342438D02*
X209295714Y-86390057D01*
X209295714Y-86390057D02*
X209343333Y-86485295D01*
X209343333Y-86485295D02*
X209343333Y-86628152D01*
X209343333Y-86628152D02*
X209295714Y-86723390D01*
X209295714Y-86723390D02*
X209248095Y-86771009D01*
X209248095Y-86771009D02*
X209152857Y-86818628D01*
X209152857Y-86818628D02*
X208771905Y-86818628D01*
X210200476Y-86628152D02*
X210200476Y-87294819D01*
X209962381Y-86247200D02*
X209724286Y-86961485D01*
X209724286Y-86961485D02*
X210343333Y-86961485D01*
X191012142Y-70559580D02*
X190964523Y-70607200D01*
X190964523Y-70607200D02*
X190821666Y-70654819D01*
X190821666Y-70654819D02*
X190726428Y-70654819D01*
X190726428Y-70654819D02*
X190583571Y-70607200D01*
X190583571Y-70607200D02*
X190488333Y-70511961D01*
X190488333Y-70511961D02*
X190440714Y-70416723D01*
X190440714Y-70416723D02*
X190393095Y-70226247D01*
X190393095Y-70226247D02*
X190393095Y-70083390D01*
X190393095Y-70083390D02*
X190440714Y-69892914D01*
X190440714Y-69892914D02*
X190488333Y-69797676D01*
X190488333Y-69797676D02*
X190583571Y-69702438D01*
X190583571Y-69702438D02*
X190726428Y-69654819D01*
X190726428Y-69654819D02*
X190821666Y-69654819D01*
X190821666Y-69654819D02*
X190964523Y-69702438D01*
X190964523Y-69702438D02*
X191012142Y-69750057D01*
X191964523Y-70654819D02*
X191393095Y-70654819D01*
X191678809Y-70654819D02*
X191678809Y-69654819D01*
X191678809Y-69654819D02*
X191583571Y-69797676D01*
X191583571Y-69797676D02*
X191488333Y-69892914D01*
X191488333Y-69892914D02*
X191393095Y-69940533D01*
X192345476Y-69750057D02*
X192393095Y-69702438D01*
X192393095Y-69702438D02*
X192488333Y-69654819D01*
X192488333Y-69654819D02*
X192726428Y-69654819D01*
X192726428Y-69654819D02*
X192821666Y-69702438D01*
X192821666Y-69702438D02*
X192869285Y-69750057D01*
X192869285Y-69750057D02*
X192916904Y-69845295D01*
X192916904Y-69845295D02*
X192916904Y-69940533D01*
X192916904Y-69940533D02*
X192869285Y-70083390D01*
X192869285Y-70083390D02*
X192297857Y-70654819D01*
X192297857Y-70654819D02*
X192916904Y-70654819D01*
X216194905Y-76799819D02*
X216194905Y-75799819D01*
X216194905Y-75799819D02*
X216433000Y-75799819D01*
X216433000Y-75799819D02*
X216575857Y-75847438D01*
X216575857Y-75847438D02*
X216671095Y-75942676D01*
X216671095Y-75942676D02*
X216718714Y-76037914D01*
X216718714Y-76037914D02*
X216766333Y-76228390D01*
X216766333Y-76228390D02*
X216766333Y-76371247D01*
X216766333Y-76371247D02*
X216718714Y-76561723D01*
X216718714Y-76561723D02*
X216671095Y-76656961D01*
X216671095Y-76656961D02*
X216575857Y-76752200D01*
X216575857Y-76752200D02*
X216433000Y-76799819D01*
X216433000Y-76799819D02*
X216194905Y-76799819D01*
X217099667Y-75799819D02*
X217718714Y-75799819D01*
X217718714Y-75799819D02*
X217385381Y-76180771D01*
X217385381Y-76180771D02*
X217528238Y-76180771D01*
X217528238Y-76180771D02*
X217623476Y-76228390D01*
X217623476Y-76228390D02*
X217671095Y-76276009D01*
X217671095Y-76276009D02*
X217718714Y-76371247D01*
X217718714Y-76371247D02*
X217718714Y-76609342D01*
X217718714Y-76609342D02*
X217671095Y-76704580D01*
X217671095Y-76704580D02*
X217623476Y-76752200D01*
X217623476Y-76752200D02*
X217528238Y-76799819D01*
X217528238Y-76799819D02*
X217242524Y-76799819D01*
X217242524Y-76799819D02*
X217147286Y-76752200D01*
X217147286Y-76752200D02*
X217099667Y-76704580D01*
X148785714Y-52124819D02*
X148785714Y-51124819D01*
X148785714Y-51124819D02*
X149023809Y-51124819D01*
X149023809Y-51124819D02*
X149166666Y-51172438D01*
X149166666Y-51172438D02*
X149261904Y-51267676D01*
X149261904Y-51267676D02*
X149309523Y-51362914D01*
X149309523Y-51362914D02*
X149357142Y-51553390D01*
X149357142Y-51553390D02*
X149357142Y-51696247D01*
X149357142Y-51696247D02*
X149309523Y-51886723D01*
X149309523Y-51886723D02*
X149261904Y-51981961D01*
X149261904Y-51981961D02*
X149166666Y-52077200D01*
X149166666Y-52077200D02*
X149023809Y-52124819D01*
X149023809Y-52124819D02*
X148785714Y-52124819D01*
X150309523Y-52124819D02*
X149738095Y-52124819D01*
X150023809Y-52124819D02*
X150023809Y-51124819D01*
X150023809Y-51124819D02*
X149928571Y-51267676D01*
X149928571Y-51267676D02*
X149833333Y-51362914D01*
X149833333Y-51362914D02*
X149738095Y-51410533D01*
X151261904Y-52124819D02*
X150690476Y-52124819D01*
X150976190Y-52124819D02*
X150976190Y-51124819D01*
X150976190Y-51124819D02*
X150880952Y-51267676D01*
X150880952Y-51267676D02*
X150785714Y-51362914D01*
X150785714Y-51362914D02*
X150690476Y-51410533D01*
X234690476Y-72344819D02*
X234690476Y-73059104D01*
X234690476Y-73059104D02*
X234642857Y-73201961D01*
X234642857Y-73201961D02*
X234547619Y-73297200D01*
X234547619Y-73297200D02*
X234404762Y-73344819D01*
X234404762Y-73344819D02*
X234309524Y-73344819D01*
X235690476Y-73344819D02*
X235119048Y-73344819D01*
X235404762Y-73344819D02*
X235404762Y-72344819D01*
X235404762Y-72344819D02*
X235309524Y-72487676D01*
X235309524Y-72487676D02*
X235214286Y-72582914D01*
X235214286Y-72582914D02*
X235119048Y-72630533D01*
X236023810Y-72344819D02*
X236690476Y-72344819D01*
X236690476Y-72344819D02*
X236261905Y-73344819D01*
X191012142Y-72309580D02*
X190964523Y-72357200D01*
X190964523Y-72357200D02*
X190821666Y-72404819D01*
X190821666Y-72404819D02*
X190726428Y-72404819D01*
X190726428Y-72404819D02*
X190583571Y-72357200D01*
X190583571Y-72357200D02*
X190488333Y-72261961D01*
X190488333Y-72261961D02*
X190440714Y-72166723D01*
X190440714Y-72166723D02*
X190393095Y-71976247D01*
X190393095Y-71976247D02*
X190393095Y-71833390D01*
X190393095Y-71833390D02*
X190440714Y-71642914D01*
X190440714Y-71642914D02*
X190488333Y-71547676D01*
X190488333Y-71547676D02*
X190583571Y-71452438D01*
X190583571Y-71452438D02*
X190726428Y-71404819D01*
X190726428Y-71404819D02*
X190821666Y-71404819D01*
X190821666Y-71404819D02*
X190964523Y-71452438D01*
X190964523Y-71452438D02*
X191012142Y-71500057D01*
X191964523Y-72404819D02*
X191393095Y-72404819D01*
X191678809Y-72404819D02*
X191678809Y-71404819D01*
X191678809Y-71404819D02*
X191583571Y-71547676D01*
X191583571Y-71547676D02*
X191488333Y-71642914D01*
X191488333Y-71642914D02*
X191393095Y-71690533D01*
X192297857Y-71404819D02*
X192916904Y-71404819D01*
X192916904Y-71404819D02*
X192583571Y-71785771D01*
X192583571Y-71785771D02*
X192726428Y-71785771D01*
X192726428Y-71785771D02*
X192821666Y-71833390D01*
X192821666Y-71833390D02*
X192869285Y-71881009D01*
X192869285Y-71881009D02*
X192916904Y-71976247D01*
X192916904Y-71976247D02*
X192916904Y-72214342D01*
X192916904Y-72214342D02*
X192869285Y-72309580D01*
X192869285Y-72309580D02*
X192821666Y-72357200D01*
X192821666Y-72357200D02*
X192726428Y-72404819D01*
X192726428Y-72404819D02*
X192440714Y-72404819D01*
X192440714Y-72404819D02*
X192345476Y-72357200D01*
X192345476Y-72357200D02*
X192297857Y-72309580D01*
X145558333Y-84859580D02*
X145510714Y-84907200D01*
X145510714Y-84907200D02*
X145367857Y-84954819D01*
X145367857Y-84954819D02*
X145272619Y-84954819D01*
X145272619Y-84954819D02*
X145129762Y-84907200D01*
X145129762Y-84907200D02*
X145034524Y-84811961D01*
X145034524Y-84811961D02*
X144986905Y-84716723D01*
X144986905Y-84716723D02*
X144939286Y-84526247D01*
X144939286Y-84526247D02*
X144939286Y-84383390D01*
X144939286Y-84383390D02*
X144986905Y-84192914D01*
X144986905Y-84192914D02*
X145034524Y-84097676D01*
X145034524Y-84097676D02*
X145129762Y-84002438D01*
X145129762Y-84002438D02*
X145272619Y-83954819D01*
X145272619Y-83954819D02*
X145367857Y-83954819D01*
X145367857Y-83954819D02*
X145510714Y-84002438D01*
X145510714Y-84002438D02*
X145558333Y-84050057D01*
X146034524Y-84954819D02*
X146225000Y-84954819D01*
X146225000Y-84954819D02*
X146320238Y-84907200D01*
X146320238Y-84907200D02*
X146367857Y-84859580D01*
X146367857Y-84859580D02*
X146463095Y-84716723D01*
X146463095Y-84716723D02*
X146510714Y-84526247D01*
X146510714Y-84526247D02*
X146510714Y-84145295D01*
X146510714Y-84145295D02*
X146463095Y-84050057D01*
X146463095Y-84050057D02*
X146415476Y-84002438D01*
X146415476Y-84002438D02*
X146320238Y-83954819D01*
X146320238Y-83954819D02*
X146129762Y-83954819D01*
X146129762Y-83954819D02*
X146034524Y-84002438D01*
X146034524Y-84002438D02*
X145986905Y-84050057D01*
X145986905Y-84050057D02*
X145939286Y-84145295D01*
X145939286Y-84145295D02*
X145939286Y-84383390D01*
X145939286Y-84383390D02*
X145986905Y-84478628D01*
X145986905Y-84478628D02*
X146034524Y-84526247D01*
X146034524Y-84526247D02*
X146129762Y-84573866D01*
X146129762Y-84573866D02*
X146320238Y-84573866D01*
X146320238Y-84573866D02*
X146415476Y-84526247D01*
X146415476Y-84526247D02*
X146463095Y-84478628D01*
X146463095Y-84478628D02*
X146510714Y-84383390D01*
X132690476Y-65844819D02*
X132690476Y-66559104D01*
X132690476Y-66559104D02*
X132642857Y-66701961D01*
X132642857Y-66701961D02*
X132547619Y-66797200D01*
X132547619Y-66797200D02*
X132404762Y-66844819D01*
X132404762Y-66844819D02*
X132309524Y-66844819D01*
X133690476Y-66844819D02*
X133119048Y-66844819D01*
X133404762Y-66844819D02*
X133404762Y-65844819D01*
X133404762Y-65844819D02*
X133309524Y-65987676D01*
X133309524Y-65987676D02*
X133214286Y-66082914D01*
X133214286Y-66082914D02*
X133119048Y-66130533D01*
X134642857Y-66844819D02*
X134071429Y-66844819D01*
X134357143Y-66844819D02*
X134357143Y-65844819D01*
X134357143Y-65844819D02*
X134261905Y-65987676D01*
X134261905Y-65987676D02*
X134166667Y-66082914D01*
X134166667Y-66082914D02*
X134071429Y-66130533D01*
X162582380Y-61751795D02*
X163115714Y-62551795D01*
X163115714Y-61751795D02*
X162582380Y-62551795D01*
X163839523Y-62551795D02*
X163382380Y-62551795D01*
X163610952Y-62551795D02*
X163610952Y-61751795D01*
X163610952Y-61751795D02*
X163534761Y-61866080D01*
X163534761Y-61866080D02*
X163458571Y-61942271D01*
X163458571Y-61942271D02*
X163382380Y-61980366D01*
X171083333Y-64359580D02*
X171035714Y-64407200D01*
X171035714Y-64407200D02*
X170892857Y-64454819D01*
X170892857Y-64454819D02*
X170797619Y-64454819D01*
X170797619Y-64454819D02*
X170654762Y-64407200D01*
X170654762Y-64407200D02*
X170559524Y-64311961D01*
X170559524Y-64311961D02*
X170511905Y-64216723D01*
X170511905Y-64216723D02*
X170464286Y-64026247D01*
X170464286Y-64026247D02*
X170464286Y-63883390D01*
X170464286Y-63883390D02*
X170511905Y-63692914D01*
X170511905Y-63692914D02*
X170559524Y-63597676D01*
X170559524Y-63597676D02*
X170654762Y-63502438D01*
X170654762Y-63502438D02*
X170797619Y-63454819D01*
X170797619Y-63454819D02*
X170892857Y-63454819D01*
X170892857Y-63454819D02*
X171035714Y-63502438D01*
X171035714Y-63502438D02*
X171083333Y-63550057D01*
X171940476Y-63788152D02*
X171940476Y-64454819D01*
X171702381Y-63407200D02*
X171464286Y-64121485D01*
X171464286Y-64121485D02*
X172083333Y-64121485D01*
X169933333Y-57159580D02*
X169885714Y-57207200D01*
X169885714Y-57207200D02*
X169742857Y-57254819D01*
X169742857Y-57254819D02*
X169647619Y-57254819D01*
X169647619Y-57254819D02*
X169504762Y-57207200D01*
X169504762Y-57207200D02*
X169409524Y-57111961D01*
X169409524Y-57111961D02*
X169361905Y-57016723D01*
X169361905Y-57016723D02*
X169314286Y-56826247D01*
X169314286Y-56826247D02*
X169314286Y-56683390D01*
X169314286Y-56683390D02*
X169361905Y-56492914D01*
X169361905Y-56492914D02*
X169409524Y-56397676D01*
X169409524Y-56397676D02*
X169504762Y-56302438D01*
X169504762Y-56302438D02*
X169647619Y-56254819D01*
X169647619Y-56254819D02*
X169742857Y-56254819D01*
X169742857Y-56254819D02*
X169885714Y-56302438D01*
X169885714Y-56302438D02*
X169933333Y-56350057D01*
X170266667Y-56254819D02*
X170885714Y-56254819D01*
X170885714Y-56254819D02*
X170552381Y-56635771D01*
X170552381Y-56635771D02*
X170695238Y-56635771D01*
X170695238Y-56635771D02*
X170790476Y-56683390D01*
X170790476Y-56683390D02*
X170838095Y-56731009D01*
X170838095Y-56731009D02*
X170885714Y-56826247D01*
X170885714Y-56826247D02*
X170885714Y-57064342D01*
X170885714Y-57064342D02*
X170838095Y-57159580D01*
X170838095Y-57159580D02*
X170790476Y-57207200D01*
X170790476Y-57207200D02*
X170695238Y-57254819D01*
X170695238Y-57254819D02*
X170409524Y-57254819D01*
X170409524Y-57254819D02*
X170314286Y-57207200D01*
X170314286Y-57207200D02*
X170266667Y-57159580D01*
X216194905Y-100259819D02*
X216194905Y-99259819D01*
X216194905Y-99259819D02*
X216433000Y-99259819D01*
X216433000Y-99259819D02*
X216575857Y-99307438D01*
X216575857Y-99307438D02*
X216671095Y-99402676D01*
X216671095Y-99402676D02*
X216718714Y-99497914D01*
X216718714Y-99497914D02*
X216766333Y-99688390D01*
X216766333Y-99688390D02*
X216766333Y-99831247D01*
X216766333Y-99831247D02*
X216718714Y-100021723D01*
X216718714Y-100021723D02*
X216671095Y-100116961D01*
X216671095Y-100116961D02*
X216575857Y-100212200D01*
X216575857Y-100212200D02*
X216433000Y-100259819D01*
X216433000Y-100259819D02*
X216194905Y-100259819D01*
X217242524Y-100259819D02*
X217433000Y-100259819D01*
X217433000Y-100259819D02*
X217528238Y-100212200D01*
X217528238Y-100212200D02*
X217575857Y-100164580D01*
X217575857Y-100164580D02*
X217671095Y-100021723D01*
X217671095Y-100021723D02*
X217718714Y-99831247D01*
X217718714Y-99831247D02*
X217718714Y-99450295D01*
X217718714Y-99450295D02*
X217671095Y-99355057D01*
X217671095Y-99355057D02*
X217623476Y-99307438D01*
X217623476Y-99307438D02*
X217528238Y-99259819D01*
X217528238Y-99259819D02*
X217337762Y-99259819D01*
X217337762Y-99259819D02*
X217242524Y-99307438D01*
X217242524Y-99307438D02*
X217194905Y-99355057D01*
X217194905Y-99355057D02*
X217147286Y-99450295D01*
X217147286Y-99450295D02*
X217147286Y-99688390D01*
X217147286Y-99688390D02*
X217194905Y-99783628D01*
X217194905Y-99783628D02*
X217242524Y-99831247D01*
X217242524Y-99831247D02*
X217337762Y-99878866D01*
X217337762Y-99878866D02*
X217528238Y-99878866D01*
X217528238Y-99878866D02*
X217623476Y-99831247D01*
X217623476Y-99831247D02*
X217671095Y-99783628D01*
X217671095Y-99783628D02*
X217718714Y-99688390D01*
X209343333Y-89284819D02*
X209010000Y-88808628D01*
X208771905Y-89284819D02*
X208771905Y-88284819D01*
X208771905Y-88284819D02*
X209152857Y-88284819D01*
X209152857Y-88284819D02*
X209248095Y-88332438D01*
X209248095Y-88332438D02*
X209295714Y-88380057D01*
X209295714Y-88380057D02*
X209343333Y-88475295D01*
X209343333Y-88475295D02*
X209343333Y-88618152D01*
X209343333Y-88618152D02*
X209295714Y-88713390D01*
X209295714Y-88713390D02*
X209248095Y-88761009D01*
X209248095Y-88761009D02*
X209152857Y-88808628D01*
X209152857Y-88808628D02*
X208771905Y-88808628D01*
X210248095Y-88284819D02*
X209771905Y-88284819D01*
X209771905Y-88284819D02*
X209724286Y-88761009D01*
X209724286Y-88761009D02*
X209771905Y-88713390D01*
X209771905Y-88713390D02*
X209867143Y-88665771D01*
X209867143Y-88665771D02*
X210105238Y-88665771D01*
X210105238Y-88665771D02*
X210200476Y-88713390D01*
X210200476Y-88713390D02*
X210248095Y-88761009D01*
X210248095Y-88761009D02*
X210295714Y-88856247D01*
X210295714Y-88856247D02*
X210295714Y-89094342D01*
X210295714Y-89094342D02*
X210248095Y-89189580D01*
X210248095Y-89189580D02*
X210200476Y-89237200D01*
X210200476Y-89237200D02*
X210105238Y-89284819D01*
X210105238Y-89284819D02*
X209867143Y-89284819D01*
X209867143Y-89284819D02*
X209771905Y-89237200D01*
X209771905Y-89237200D02*
X209724286Y-89189580D01*
X205833333Y-62659580D02*
X205785714Y-62707200D01*
X205785714Y-62707200D02*
X205642857Y-62754819D01*
X205642857Y-62754819D02*
X205547619Y-62754819D01*
X205547619Y-62754819D02*
X205404762Y-62707200D01*
X205404762Y-62707200D02*
X205309524Y-62611961D01*
X205309524Y-62611961D02*
X205261905Y-62516723D01*
X205261905Y-62516723D02*
X205214286Y-62326247D01*
X205214286Y-62326247D02*
X205214286Y-62183390D01*
X205214286Y-62183390D02*
X205261905Y-61992914D01*
X205261905Y-61992914D02*
X205309524Y-61897676D01*
X205309524Y-61897676D02*
X205404762Y-61802438D01*
X205404762Y-61802438D02*
X205547619Y-61754819D01*
X205547619Y-61754819D02*
X205642857Y-61754819D01*
X205642857Y-61754819D02*
X205785714Y-61802438D01*
X205785714Y-61802438D02*
X205833333Y-61850057D01*
X206690476Y-61754819D02*
X206500000Y-61754819D01*
X206500000Y-61754819D02*
X206404762Y-61802438D01*
X206404762Y-61802438D02*
X206357143Y-61850057D01*
X206357143Y-61850057D02*
X206261905Y-61992914D01*
X206261905Y-61992914D02*
X206214286Y-62183390D01*
X206214286Y-62183390D02*
X206214286Y-62564342D01*
X206214286Y-62564342D02*
X206261905Y-62659580D01*
X206261905Y-62659580D02*
X206309524Y-62707200D01*
X206309524Y-62707200D02*
X206404762Y-62754819D01*
X206404762Y-62754819D02*
X206595238Y-62754819D01*
X206595238Y-62754819D02*
X206690476Y-62707200D01*
X206690476Y-62707200D02*
X206738095Y-62659580D01*
X206738095Y-62659580D02*
X206785714Y-62564342D01*
X206785714Y-62564342D02*
X206785714Y-62326247D01*
X206785714Y-62326247D02*
X206738095Y-62231009D01*
X206738095Y-62231009D02*
X206690476Y-62183390D01*
X206690476Y-62183390D02*
X206595238Y-62135771D01*
X206595238Y-62135771D02*
X206404762Y-62135771D01*
X206404762Y-62135771D02*
X206309524Y-62183390D01*
X206309524Y-62183390D02*
X206261905Y-62231009D01*
X206261905Y-62231009D02*
X206214286Y-62326247D01*
X162357142Y-80659580D02*
X162309523Y-80707200D01*
X162309523Y-80707200D02*
X162166666Y-80754819D01*
X162166666Y-80754819D02*
X162071428Y-80754819D01*
X162071428Y-80754819D02*
X161928571Y-80707200D01*
X161928571Y-80707200D02*
X161833333Y-80611961D01*
X161833333Y-80611961D02*
X161785714Y-80516723D01*
X161785714Y-80516723D02*
X161738095Y-80326247D01*
X161738095Y-80326247D02*
X161738095Y-80183390D01*
X161738095Y-80183390D02*
X161785714Y-79992914D01*
X161785714Y-79992914D02*
X161833333Y-79897676D01*
X161833333Y-79897676D02*
X161928571Y-79802438D01*
X161928571Y-79802438D02*
X162071428Y-79754819D01*
X162071428Y-79754819D02*
X162166666Y-79754819D01*
X162166666Y-79754819D02*
X162309523Y-79802438D01*
X162309523Y-79802438D02*
X162357142Y-79850057D01*
X162738095Y-79850057D02*
X162785714Y-79802438D01*
X162785714Y-79802438D02*
X162880952Y-79754819D01*
X162880952Y-79754819D02*
X163119047Y-79754819D01*
X163119047Y-79754819D02*
X163214285Y-79802438D01*
X163214285Y-79802438D02*
X163261904Y-79850057D01*
X163261904Y-79850057D02*
X163309523Y-79945295D01*
X163309523Y-79945295D02*
X163309523Y-80040533D01*
X163309523Y-80040533D02*
X163261904Y-80183390D01*
X163261904Y-80183390D02*
X162690476Y-80754819D01*
X162690476Y-80754819D02*
X163309523Y-80754819D01*
X164214285Y-79754819D02*
X163738095Y-79754819D01*
X163738095Y-79754819D02*
X163690476Y-80231009D01*
X163690476Y-80231009D02*
X163738095Y-80183390D01*
X163738095Y-80183390D02*
X163833333Y-80135771D01*
X163833333Y-80135771D02*
X164071428Y-80135771D01*
X164071428Y-80135771D02*
X164166666Y-80183390D01*
X164166666Y-80183390D02*
X164214285Y-80231009D01*
X164214285Y-80231009D02*
X164261904Y-80326247D01*
X164261904Y-80326247D02*
X164261904Y-80564342D01*
X164261904Y-80564342D02*
X164214285Y-80659580D01*
X164214285Y-80659580D02*
X164166666Y-80707200D01*
X164166666Y-80707200D02*
X164071428Y-80754819D01*
X164071428Y-80754819D02*
X163833333Y-80754819D01*
X163833333Y-80754819D02*
X163738095Y-80707200D01*
X163738095Y-80707200D02*
X163690476Y-80659580D01*
X207333333Y-68859580D02*
X207285714Y-68907200D01*
X207285714Y-68907200D02*
X207142857Y-68954819D01*
X207142857Y-68954819D02*
X207047619Y-68954819D01*
X207047619Y-68954819D02*
X206904762Y-68907200D01*
X206904762Y-68907200D02*
X206809524Y-68811961D01*
X206809524Y-68811961D02*
X206761905Y-68716723D01*
X206761905Y-68716723D02*
X206714286Y-68526247D01*
X206714286Y-68526247D02*
X206714286Y-68383390D01*
X206714286Y-68383390D02*
X206761905Y-68192914D01*
X206761905Y-68192914D02*
X206809524Y-68097676D01*
X206809524Y-68097676D02*
X206904762Y-68002438D01*
X206904762Y-68002438D02*
X207047619Y-67954819D01*
X207047619Y-67954819D02*
X207142857Y-67954819D01*
X207142857Y-67954819D02*
X207285714Y-68002438D01*
X207285714Y-68002438D02*
X207333333Y-68050057D01*
X207666667Y-67954819D02*
X208333333Y-67954819D01*
X208333333Y-67954819D02*
X207904762Y-68954819D01*
X216194905Y-84619819D02*
X216194905Y-83619819D01*
X216194905Y-83619819D02*
X216433000Y-83619819D01*
X216433000Y-83619819D02*
X216575857Y-83667438D01*
X216575857Y-83667438D02*
X216671095Y-83762676D01*
X216671095Y-83762676D02*
X216718714Y-83857914D01*
X216718714Y-83857914D02*
X216766333Y-84048390D01*
X216766333Y-84048390D02*
X216766333Y-84191247D01*
X216766333Y-84191247D02*
X216718714Y-84381723D01*
X216718714Y-84381723D02*
X216671095Y-84476961D01*
X216671095Y-84476961D02*
X216575857Y-84572200D01*
X216575857Y-84572200D02*
X216433000Y-84619819D01*
X216433000Y-84619819D02*
X216194905Y-84619819D01*
X217671095Y-83619819D02*
X217194905Y-83619819D01*
X217194905Y-83619819D02*
X217147286Y-84096009D01*
X217147286Y-84096009D02*
X217194905Y-84048390D01*
X217194905Y-84048390D02*
X217290143Y-84000771D01*
X217290143Y-84000771D02*
X217528238Y-84000771D01*
X217528238Y-84000771D02*
X217623476Y-84048390D01*
X217623476Y-84048390D02*
X217671095Y-84096009D01*
X217671095Y-84096009D02*
X217718714Y-84191247D01*
X217718714Y-84191247D02*
X217718714Y-84429342D01*
X217718714Y-84429342D02*
X217671095Y-84524580D01*
X217671095Y-84524580D02*
X217623476Y-84572200D01*
X217623476Y-84572200D02*
X217528238Y-84619819D01*
X217528238Y-84619819D02*
X217290143Y-84619819D01*
X217290143Y-84619819D02*
X217194905Y-84572200D01*
X217194905Y-84572200D02*
X217147286Y-84524580D01*
X191648903Y-91488993D02*
X191582165Y-91555731D01*
X191582165Y-91555731D02*
X191381951Y-91622468D01*
X191381951Y-91622468D02*
X191248475Y-91622468D01*
X191248475Y-91622468D02*
X191048262Y-91555731D01*
X191048262Y-91555731D02*
X190914786Y-91422255D01*
X190914786Y-91422255D02*
X190848048Y-91288779D01*
X190848048Y-91288779D02*
X190781310Y-91021827D01*
X190781310Y-91021827D02*
X190781310Y-90821614D01*
X190781310Y-90821614D02*
X190848048Y-90554662D01*
X190848048Y-90554662D02*
X190914786Y-90421186D01*
X190914786Y-90421186D02*
X191048262Y-90287710D01*
X191048262Y-90287710D02*
X191248475Y-90220972D01*
X191248475Y-90220972D02*
X191381951Y-90220972D01*
X191381951Y-90220972D02*
X191582165Y-90287710D01*
X191582165Y-90287710D02*
X191648903Y-90354448D01*
X192516496Y-90220972D02*
X192783447Y-90220972D01*
X192783447Y-90220972D02*
X192916923Y-90287710D01*
X192916923Y-90287710D02*
X193050399Y-90421186D01*
X193050399Y-90421186D02*
X193117137Y-90688138D01*
X193117137Y-90688138D02*
X193117137Y-91155303D01*
X193117137Y-91155303D02*
X193050399Y-91422255D01*
X193050399Y-91422255D02*
X192916923Y-91555731D01*
X192916923Y-91555731D02*
X192783447Y-91622468D01*
X192783447Y-91622468D02*
X192516496Y-91622468D01*
X192516496Y-91622468D02*
X192383020Y-91555731D01*
X192383020Y-91555731D02*
X192249544Y-91422255D01*
X192249544Y-91422255D02*
X192182806Y-91155303D01*
X192182806Y-91155303D02*
X192182806Y-90688138D01*
X192182806Y-90688138D02*
X192249544Y-90421186D01*
X192249544Y-90421186D02*
X192383020Y-90287710D01*
X192383020Y-90287710D02*
X192516496Y-90220972D01*
X193717778Y-91622468D02*
X193717778Y-90220972D01*
X193717778Y-90220972D02*
X194518633Y-91622468D01*
X194518633Y-91622468D02*
X194518633Y-90220972D01*
X195920129Y-91622468D02*
X195119274Y-91622468D01*
X195519702Y-91622468D02*
X195519702Y-90220972D01*
X195519702Y-90220972D02*
X195386226Y-90421186D01*
X195386226Y-90421186D02*
X195252750Y-90554662D01*
X195252750Y-90554662D02*
X195119274Y-90621400D01*
X192938882Y-96505019D02*
X192986582Y-96457319D01*
X192986582Y-96457319D02*
X193081981Y-96409619D01*
X193081981Y-96409619D02*
X193320480Y-96409619D01*
X193320480Y-96409619D02*
X193415879Y-96457319D01*
X193415879Y-96457319D02*
X193463579Y-96505019D01*
X193463579Y-96505019D02*
X193511278Y-96600418D01*
X193511278Y-96600418D02*
X193511278Y-96695817D01*
X193511278Y-96695817D02*
X193463579Y-96838916D01*
X193463579Y-96838916D02*
X192891183Y-97411312D01*
X192891183Y-97411312D02*
X193511278Y-97411312D01*
X194811636Y-102767406D02*
X194621010Y-102767406D01*
X194621010Y-102767406D02*
X194525697Y-102815063D01*
X194525697Y-102815063D02*
X194478040Y-102862719D01*
X194478040Y-102862719D02*
X194382727Y-103005689D01*
X194382727Y-103005689D02*
X194335071Y-103196315D01*
X194335071Y-103196315D02*
X194335071Y-103577567D01*
X194335071Y-103577567D02*
X194382727Y-103672880D01*
X194382727Y-103672880D02*
X194430384Y-103720537D01*
X194430384Y-103720537D02*
X194525697Y-103768193D01*
X194525697Y-103768193D02*
X194716323Y-103768193D01*
X194716323Y-103768193D02*
X194811636Y-103720537D01*
X194811636Y-103720537D02*
X194859292Y-103672880D01*
X194859292Y-103672880D02*
X194906949Y-103577567D01*
X194906949Y-103577567D02*
X194906949Y-103339284D01*
X194906949Y-103339284D02*
X194859292Y-103243971D01*
X194859292Y-103243971D02*
X194811636Y-103196315D01*
X194811636Y-103196315D02*
X194716323Y-103148658D01*
X194716323Y-103148658D02*
X194525697Y-103148658D01*
X194525697Y-103148658D02*
X194430384Y-103196315D01*
X194430384Y-103196315D02*
X194382727Y-103243971D01*
X194382727Y-103243971D02*
X194335071Y-103339284D01*
X187818645Y-96743712D02*
X187818645Y-97411460D01*
X187580163Y-96362142D02*
X187341682Y-97077586D01*
X187341682Y-97077586D02*
X187961733Y-97077586D01*
X185072572Y-96412396D02*
X184596007Y-96412396D01*
X184596007Y-96412396D02*
X184548351Y-96888961D01*
X184548351Y-96888961D02*
X184596007Y-96841305D01*
X184596007Y-96841305D02*
X184691320Y-96793648D01*
X184691320Y-96793648D02*
X184929603Y-96793648D01*
X184929603Y-96793648D02*
X185024916Y-96841305D01*
X185024916Y-96841305D02*
X185072572Y-96888961D01*
X185072572Y-96888961D02*
X185120229Y-96984274D01*
X185120229Y-96984274D02*
X185120229Y-97222557D01*
X185120229Y-97222557D02*
X185072572Y-97317870D01*
X185072572Y-97317870D02*
X185024916Y-97365527D01*
X185024916Y-97365527D02*
X184929603Y-97413183D01*
X184929603Y-97413183D02*
X184691320Y-97413183D01*
X184691320Y-97413183D02*
X184596007Y-97365527D01*
X184596007Y-97365527D02*
X184548351Y-97317870D01*
X190092850Y-96411305D02*
X190712604Y-96411305D01*
X190712604Y-96411305D02*
X190378890Y-96792692D01*
X190378890Y-96792692D02*
X190521911Y-96792692D01*
X190521911Y-96792692D02*
X190617258Y-96840366D01*
X190617258Y-96840366D02*
X190664931Y-96888039D01*
X190664931Y-96888039D02*
X190712604Y-96983386D01*
X190712604Y-96983386D02*
X190712604Y-97221753D01*
X190712604Y-97221753D02*
X190664931Y-97317100D01*
X190664931Y-97317100D02*
X190617258Y-97364774D01*
X190617258Y-97364774D02*
X190521911Y-97412447D01*
X190521911Y-97412447D02*
X190235870Y-97412447D01*
X190235870Y-97412447D02*
X190140523Y-97364774D01*
X190140523Y-97364774D02*
X190092850Y-97317100D01*
X191491023Y-102766529D02*
X192158036Y-102766529D01*
X192158036Y-102766529D02*
X191729242Y-103767049D01*
X188933171Y-103196538D02*
X188837852Y-103148878D01*
X188837852Y-103148878D02*
X188790192Y-103101219D01*
X188790192Y-103101219D02*
X188742533Y-103005900D01*
X188742533Y-103005900D02*
X188742533Y-102958240D01*
X188742533Y-102958240D02*
X188790192Y-102862921D01*
X188790192Y-102862921D02*
X188837852Y-102815262D01*
X188837852Y-102815262D02*
X188933171Y-102767602D01*
X188933171Y-102767602D02*
X189123809Y-102767602D01*
X189123809Y-102767602D02*
X189219128Y-102815262D01*
X189219128Y-102815262D02*
X189266787Y-102862921D01*
X189266787Y-102862921D02*
X189314447Y-102958240D01*
X189314447Y-102958240D02*
X189314447Y-103005900D01*
X189314447Y-103005900D02*
X189266787Y-103101219D01*
X189266787Y-103101219D02*
X189219128Y-103148878D01*
X189219128Y-103148878D02*
X189123809Y-103196538D01*
X189123809Y-103196538D02*
X188933171Y-103196538D01*
X188933171Y-103196538D02*
X188837852Y-103244197D01*
X188837852Y-103244197D02*
X188790192Y-103291857D01*
X188790192Y-103291857D02*
X188742533Y-103387176D01*
X188742533Y-103387176D02*
X188742533Y-103577814D01*
X188742533Y-103577814D02*
X188790192Y-103673133D01*
X188790192Y-103673133D02*
X188837852Y-103720793D01*
X188837852Y-103720793D02*
X188933171Y-103768452D01*
X188933171Y-103768452D02*
X189123809Y-103768452D01*
X189123809Y-103768452D02*
X189219128Y-103720793D01*
X189219128Y-103720793D02*
X189266787Y-103673133D01*
X189266787Y-103673133D02*
X189314447Y-103577814D01*
X189314447Y-103577814D02*
X189314447Y-103387176D01*
X189314447Y-103387176D02*
X189266787Y-103291857D01*
X189266787Y-103291857D02*
X189219128Y-103244197D01*
X189219128Y-103244197D02*
X189123809Y-103196538D01*
X196428524Y-97414514D02*
X195857015Y-97414514D01*
X196142770Y-97414514D02*
X196142770Y-96414372D01*
X196142770Y-96414372D02*
X196047518Y-96557250D01*
X196047518Y-96557250D02*
X195952266Y-96652501D01*
X195952266Y-96652501D02*
X195857015Y-96700127D01*
X185918232Y-103765079D02*
X186108720Y-103765079D01*
X186108720Y-103765079D02*
X186203964Y-103717457D01*
X186203964Y-103717457D02*
X186251586Y-103669834D01*
X186251586Y-103669834D02*
X186346830Y-103526968D01*
X186346830Y-103526968D02*
X186394452Y-103336480D01*
X186394452Y-103336480D02*
X186394452Y-102955504D01*
X186394452Y-102955504D02*
X186346830Y-102860260D01*
X186346830Y-102860260D02*
X186299208Y-102812638D01*
X186299208Y-102812638D02*
X186203964Y-102765016D01*
X186203964Y-102765016D02*
X186013476Y-102765016D01*
X186013476Y-102765016D02*
X185918232Y-102812638D01*
X185918232Y-102812638D02*
X185870610Y-102860260D01*
X185870610Y-102860260D02*
X185822988Y-102955504D01*
X185822988Y-102955504D02*
X185822988Y-103193614D01*
X185822988Y-103193614D02*
X185870610Y-103288858D01*
X185870610Y-103288858D02*
X185918232Y-103336480D01*
X185918232Y-103336480D02*
X186013476Y-103384102D01*
X186013476Y-103384102D02*
X186203964Y-103384102D01*
X186203964Y-103384102D02*
X186299208Y-103336480D01*
X186299208Y-103336480D02*
X186346830Y-103288858D01*
X186346830Y-103288858D02*
X186394452Y-103193614D01*
X178216666Y-41454819D02*
X178216666Y-42169104D01*
X178216666Y-42169104D02*
X178169047Y-42311961D01*
X178169047Y-42311961D02*
X178073809Y-42407200D01*
X178073809Y-42407200D02*
X177930952Y-42454819D01*
X177930952Y-42454819D02*
X177835714Y-42454819D01*
X179216666Y-42454819D02*
X178645238Y-42454819D01*
X178930952Y-42454819D02*
X178930952Y-41454819D01*
X178930952Y-41454819D02*
X178835714Y-41597676D01*
X178835714Y-41597676D02*
X178740476Y-41692914D01*
X178740476Y-41692914D02*
X178645238Y-41740533D01*
X132690476Y-76844819D02*
X132690476Y-77559104D01*
X132690476Y-77559104D02*
X132642857Y-77701961D01*
X132642857Y-77701961D02*
X132547619Y-77797200D01*
X132547619Y-77797200D02*
X132404762Y-77844819D01*
X132404762Y-77844819D02*
X132309524Y-77844819D01*
X133690476Y-77844819D02*
X133119048Y-77844819D01*
X133404762Y-77844819D02*
X133404762Y-76844819D01*
X133404762Y-76844819D02*
X133309524Y-76987676D01*
X133309524Y-76987676D02*
X133214286Y-77082914D01*
X133214286Y-77082914D02*
X133119048Y-77130533D01*
X134023810Y-76844819D02*
X134642857Y-76844819D01*
X134642857Y-76844819D02*
X134309524Y-77225771D01*
X134309524Y-77225771D02*
X134452381Y-77225771D01*
X134452381Y-77225771D02*
X134547619Y-77273390D01*
X134547619Y-77273390D02*
X134595238Y-77321009D01*
X134595238Y-77321009D02*
X134642857Y-77416247D01*
X134642857Y-77416247D02*
X134642857Y-77654342D01*
X134642857Y-77654342D02*
X134595238Y-77749580D01*
X134595238Y-77749580D02*
X134547619Y-77797200D01*
X134547619Y-77797200D02*
X134452381Y-77844819D01*
X134452381Y-77844819D02*
X134166667Y-77844819D01*
X134166667Y-77844819D02*
X134071429Y-77797200D01*
X134071429Y-77797200D02*
X134023810Y-77749580D01*
X234690476Y-67844819D02*
X234690476Y-68559104D01*
X234690476Y-68559104D02*
X234642857Y-68701961D01*
X234642857Y-68701961D02*
X234547619Y-68797200D01*
X234547619Y-68797200D02*
X234404762Y-68844819D01*
X234404762Y-68844819D02*
X234309524Y-68844819D01*
X235690476Y-68844819D02*
X235119048Y-68844819D01*
X235404762Y-68844819D02*
X235404762Y-67844819D01*
X235404762Y-67844819D02*
X235309524Y-67987676D01*
X235309524Y-67987676D02*
X235214286Y-68082914D01*
X235214286Y-68082914D02*
X235119048Y-68130533D01*
X236547619Y-67844819D02*
X236357143Y-67844819D01*
X236357143Y-67844819D02*
X236261905Y-67892438D01*
X236261905Y-67892438D02*
X236214286Y-67940057D01*
X236214286Y-67940057D02*
X236119048Y-68082914D01*
X236119048Y-68082914D02*
X236071429Y-68273390D01*
X236071429Y-68273390D02*
X236071429Y-68654342D01*
X236071429Y-68654342D02*
X236119048Y-68749580D01*
X236119048Y-68749580D02*
X236166667Y-68797200D01*
X236166667Y-68797200D02*
X236261905Y-68844819D01*
X236261905Y-68844819D02*
X236452381Y-68844819D01*
X236452381Y-68844819D02*
X236547619Y-68797200D01*
X236547619Y-68797200D02*
X236595238Y-68749580D01*
X236595238Y-68749580D02*
X236642857Y-68654342D01*
X236642857Y-68654342D02*
X236642857Y-68416247D01*
X236642857Y-68416247D02*
X236595238Y-68321009D01*
X236595238Y-68321009D02*
X236547619Y-68273390D01*
X236547619Y-68273390D02*
X236452381Y-68225771D01*
X236452381Y-68225771D02*
X236261905Y-68225771D01*
X236261905Y-68225771D02*
X236166667Y-68273390D01*
X236166667Y-68273390D02*
X236119048Y-68321009D01*
X236119048Y-68321009D02*
X236071429Y-68416247D01*
X211569819Y-65416904D02*
X212379342Y-65416904D01*
X212379342Y-65416904D02*
X212474580Y-65369285D01*
X212474580Y-65369285D02*
X212522200Y-65321666D01*
X212522200Y-65321666D02*
X212569819Y-65226428D01*
X212569819Y-65226428D02*
X212569819Y-65035952D01*
X212569819Y-65035952D02*
X212522200Y-64940714D01*
X212522200Y-64940714D02*
X212474580Y-64893095D01*
X212474580Y-64893095D02*
X212379342Y-64845476D01*
X212379342Y-64845476D02*
X211569819Y-64845476D01*
X211569819Y-64464523D02*
X211569819Y-63845476D01*
X211569819Y-63845476D02*
X211950771Y-64178809D01*
X211950771Y-64178809D02*
X211950771Y-64035952D01*
X211950771Y-64035952D02*
X211998390Y-63940714D01*
X211998390Y-63940714D02*
X212046009Y-63893095D01*
X212046009Y-63893095D02*
X212141247Y-63845476D01*
X212141247Y-63845476D02*
X212379342Y-63845476D01*
X212379342Y-63845476D02*
X212474580Y-63893095D01*
X212474580Y-63893095D02*
X212522200Y-63940714D01*
X212522200Y-63940714D02*
X212569819Y-64035952D01*
X212569819Y-64035952D02*
X212569819Y-64321666D01*
X212569819Y-64321666D02*
X212522200Y-64416904D01*
X212522200Y-64416904D02*
X212474580Y-64464523D01*
X220357142Y-48059580D02*
X220309523Y-48107200D01*
X220309523Y-48107200D02*
X220166666Y-48154819D01*
X220166666Y-48154819D02*
X220071428Y-48154819D01*
X220071428Y-48154819D02*
X219928571Y-48107200D01*
X219928571Y-48107200D02*
X219833333Y-48011961D01*
X219833333Y-48011961D02*
X219785714Y-47916723D01*
X219785714Y-47916723D02*
X219738095Y-47726247D01*
X219738095Y-47726247D02*
X219738095Y-47583390D01*
X219738095Y-47583390D02*
X219785714Y-47392914D01*
X219785714Y-47392914D02*
X219833333Y-47297676D01*
X219833333Y-47297676D02*
X219928571Y-47202438D01*
X219928571Y-47202438D02*
X220071428Y-47154819D01*
X220071428Y-47154819D02*
X220166666Y-47154819D01*
X220166666Y-47154819D02*
X220309523Y-47202438D01*
X220309523Y-47202438D02*
X220357142Y-47250057D01*
X220738095Y-47250057D02*
X220785714Y-47202438D01*
X220785714Y-47202438D02*
X220880952Y-47154819D01*
X220880952Y-47154819D02*
X221119047Y-47154819D01*
X221119047Y-47154819D02*
X221214285Y-47202438D01*
X221214285Y-47202438D02*
X221261904Y-47250057D01*
X221261904Y-47250057D02*
X221309523Y-47345295D01*
X221309523Y-47345295D02*
X221309523Y-47440533D01*
X221309523Y-47440533D02*
X221261904Y-47583390D01*
X221261904Y-47583390D02*
X220690476Y-48154819D01*
X220690476Y-48154819D02*
X221309523Y-48154819D01*
X221642857Y-47154819D02*
X222261904Y-47154819D01*
X222261904Y-47154819D02*
X221928571Y-47535771D01*
X221928571Y-47535771D02*
X222071428Y-47535771D01*
X222071428Y-47535771D02*
X222166666Y-47583390D01*
X222166666Y-47583390D02*
X222214285Y-47631009D01*
X222214285Y-47631009D02*
X222261904Y-47726247D01*
X222261904Y-47726247D02*
X222261904Y-47964342D01*
X222261904Y-47964342D02*
X222214285Y-48059580D01*
X222214285Y-48059580D02*
X222166666Y-48107200D01*
X222166666Y-48107200D02*
X222071428Y-48154819D01*
X222071428Y-48154819D02*
X221785714Y-48154819D01*
X221785714Y-48154819D02*
X221690476Y-48107200D01*
X221690476Y-48107200D02*
X221642857Y-48059580D01*
X153292084Y-85239662D02*
X153292084Y-86040461D01*
X153292084Y-86040461D02*
X153238697Y-86200620D01*
X153238697Y-86200620D02*
X153131924Y-86307394D01*
X153131924Y-86307394D02*
X152971764Y-86360780D01*
X152971764Y-86360780D02*
X152864991Y-86360780D01*
X154306429Y-85239662D02*
X154092882Y-85239662D01*
X154092882Y-85239662D02*
X153986109Y-85293049D01*
X153986109Y-85293049D02*
X153932723Y-85346435D01*
X153932723Y-85346435D02*
X153825949Y-85506595D01*
X153825949Y-85506595D02*
X153772563Y-85720141D01*
X153772563Y-85720141D02*
X153772563Y-86147234D01*
X153772563Y-86147234D02*
X153825949Y-86254007D01*
X153825949Y-86254007D02*
X153879336Y-86307394D01*
X153879336Y-86307394D02*
X153986109Y-86360780D01*
X153986109Y-86360780D02*
X154199655Y-86360780D01*
X154199655Y-86360780D02*
X154306429Y-86307394D01*
X154306429Y-86307394D02*
X154359815Y-86254007D01*
X154359815Y-86254007D02*
X154413202Y-86147234D01*
X154413202Y-86147234D02*
X154413202Y-85880301D01*
X154413202Y-85880301D02*
X154359815Y-85773528D01*
X154359815Y-85773528D02*
X154306429Y-85720141D01*
X154306429Y-85720141D02*
X154199655Y-85666755D01*
X154199655Y-85666755D02*
X153986109Y-85666755D01*
X153986109Y-85666755D02*
X153879336Y-85720141D01*
X153879336Y-85720141D02*
X153825949Y-85773528D01*
X153825949Y-85773528D02*
X153772563Y-85880301D01*
X169633333Y-42659580D02*
X169585714Y-42707200D01*
X169585714Y-42707200D02*
X169442857Y-42754819D01*
X169442857Y-42754819D02*
X169347619Y-42754819D01*
X169347619Y-42754819D02*
X169204762Y-42707200D01*
X169204762Y-42707200D02*
X169109524Y-42611961D01*
X169109524Y-42611961D02*
X169061905Y-42516723D01*
X169061905Y-42516723D02*
X169014286Y-42326247D01*
X169014286Y-42326247D02*
X169014286Y-42183390D01*
X169014286Y-42183390D02*
X169061905Y-41992914D01*
X169061905Y-41992914D02*
X169109524Y-41897676D01*
X169109524Y-41897676D02*
X169204762Y-41802438D01*
X169204762Y-41802438D02*
X169347619Y-41754819D01*
X169347619Y-41754819D02*
X169442857Y-41754819D01*
X169442857Y-41754819D02*
X169585714Y-41802438D01*
X169585714Y-41802438D02*
X169633333Y-41850057D01*
X170585714Y-42754819D02*
X170014286Y-42754819D01*
X170300000Y-42754819D02*
X170300000Y-41754819D01*
X170300000Y-41754819D02*
X170204762Y-41897676D01*
X170204762Y-41897676D02*
X170109524Y-41992914D01*
X170109524Y-41992914D02*
X170014286Y-42040533D01*
X156819047Y-38731009D02*
X156961904Y-38778628D01*
X156961904Y-38778628D02*
X157009523Y-38826247D01*
X157009523Y-38826247D02*
X157057142Y-38921485D01*
X157057142Y-38921485D02*
X157057142Y-39064342D01*
X157057142Y-39064342D02*
X157009523Y-39159580D01*
X157009523Y-39159580D02*
X156961904Y-39207200D01*
X156961904Y-39207200D02*
X156866666Y-39254819D01*
X156866666Y-39254819D02*
X156485714Y-39254819D01*
X156485714Y-39254819D02*
X156485714Y-38254819D01*
X156485714Y-38254819D02*
X156819047Y-38254819D01*
X156819047Y-38254819D02*
X156914285Y-38302438D01*
X156914285Y-38302438D02*
X156961904Y-38350057D01*
X156961904Y-38350057D02*
X157009523Y-38445295D01*
X157009523Y-38445295D02*
X157009523Y-38540533D01*
X157009523Y-38540533D02*
X156961904Y-38635771D01*
X156961904Y-38635771D02*
X156914285Y-38683390D01*
X156914285Y-38683390D02*
X156819047Y-38731009D01*
X156819047Y-38731009D02*
X156485714Y-38731009D01*
X157390476Y-38254819D02*
X158057142Y-38254819D01*
X158057142Y-38254819D02*
X157390476Y-39254819D01*
X157390476Y-39254819D02*
X158057142Y-39254819D01*
X158961904Y-39254819D02*
X158390476Y-39254819D01*
X158676190Y-39254819D02*
X158676190Y-38254819D01*
X158676190Y-38254819D02*
X158580952Y-38397676D01*
X158580952Y-38397676D02*
X158485714Y-38492914D01*
X158485714Y-38492914D02*
X158390476Y-38540533D01*
X153509048Y-43533866D02*
X154270953Y-43533866D01*
X153890000Y-43914819D02*
X153890000Y-43152914D01*
X140807142Y-88859580D02*
X140759523Y-88907200D01*
X140759523Y-88907200D02*
X140616666Y-88954819D01*
X140616666Y-88954819D02*
X140521428Y-88954819D01*
X140521428Y-88954819D02*
X140378571Y-88907200D01*
X140378571Y-88907200D02*
X140283333Y-88811961D01*
X140283333Y-88811961D02*
X140235714Y-88716723D01*
X140235714Y-88716723D02*
X140188095Y-88526247D01*
X140188095Y-88526247D02*
X140188095Y-88383390D01*
X140188095Y-88383390D02*
X140235714Y-88192914D01*
X140235714Y-88192914D02*
X140283333Y-88097676D01*
X140283333Y-88097676D02*
X140378571Y-88002438D01*
X140378571Y-88002438D02*
X140521428Y-87954819D01*
X140521428Y-87954819D02*
X140616666Y-87954819D01*
X140616666Y-87954819D02*
X140759523Y-88002438D01*
X140759523Y-88002438D02*
X140807142Y-88050057D01*
X141759523Y-88954819D02*
X141188095Y-88954819D01*
X141473809Y-88954819D02*
X141473809Y-87954819D01*
X141473809Y-87954819D02*
X141378571Y-88097676D01*
X141378571Y-88097676D02*
X141283333Y-88192914D01*
X141283333Y-88192914D02*
X141188095Y-88240533D01*
X142616666Y-88288152D02*
X142616666Y-88954819D01*
X142378571Y-87907200D02*
X142140476Y-88621485D01*
X142140476Y-88621485D02*
X142759523Y-88621485D01*
X175418095Y-76902819D02*
X175418095Y-77712342D01*
X175418095Y-77712342D02*
X175465714Y-77807580D01*
X175465714Y-77807580D02*
X175513333Y-77855200D01*
X175513333Y-77855200D02*
X175608571Y-77902819D01*
X175608571Y-77902819D02*
X175799047Y-77902819D01*
X175799047Y-77902819D02*
X175894285Y-77855200D01*
X175894285Y-77855200D02*
X175941904Y-77807580D01*
X175941904Y-77807580D02*
X175989523Y-77712342D01*
X175989523Y-77712342D02*
X175989523Y-76902819D01*
X176941904Y-76902819D02*
X176465714Y-76902819D01*
X176465714Y-76902819D02*
X176418095Y-77379009D01*
X176418095Y-77379009D02*
X176465714Y-77331390D01*
X176465714Y-77331390D02*
X176560952Y-77283771D01*
X176560952Y-77283771D02*
X176799047Y-77283771D01*
X176799047Y-77283771D02*
X176894285Y-77331390D01*
X176894285Y-77331390D02*
X176941904Y-77379009D01*
X176941904Y-77379009D02*
X176989523Y-77474247D01*
X176989523Y-77474247D02*
X176989523Y-77712342D01*
X176989523Y-77712342D02*
X176941904Y-77807580D01*
X176941904Y-77807580D02*
X176894285Y-77855200D01*
X176894285Y-77855200D02*
X176799047Y-77902819D01*
X176799047Y-77902819D02*
X176560952Y-77902819D01*
X176560952Y-77902819D02*
X176465714Y-77855200D01*
X176465714Y-77855200D02*
X176418095Y-77807580D01*
X166758095Y-91569819D02*
X166758095Y-92379342D01*
X166758095Y-92379342D02*
X166805714Y-92474580D01*
X166805714Y-92474580D02*
X166853333Y-92522200D01*
X166853333Y-92522200D02*
X166948571Y-92569819D01*
X166948571Y-92569819D02*
X167139047Y-92569819D01*
X167139047Y-92569819D02*
X167234285Y-92522200D01*
X167234285Y-92522200D02*
X167281904Y-92474580D01*
X167281904Y-92474580D02*
X167329523Y-92379342D01*
X167329523Y-92379342D02*
X167329523Y-91569819D01*
X168234285Y-91569819D02*
X168043809Y-91569819D01*
X168043809Y-91569819D02*
X167948571Y-91617438D01*
X167948571Y-91617438D02*
X167900952Y-91665057D01*
X167900952Y-91665057D02*
X167805714Y-91807914D01*
X167805714Y-91807914D02*
X167758095Y-91998390D01*
X167758095Y-91998390D02*
X167758095Y-92379342D01*
X167758095Y-92379342D02*
X167805714Y-92474580D01*
X167805714Y-92474580D02*
X167853333Y-92522200D01*
X167853333Y-92522200D02*
X167948571Y-92569819D01*
X167948571Y-92569819D02*
X168139047Y-92569819D01*
X168139047Y-92569819D02*
X168234285Y-92522200D01*
X168234285Y-92522200D02*
X168281904Y-92474580D01*
X168281904Y-92474580D02*
X168329523Y-92379342D01*
X168329523Y-92379342D02*
X168329523Y-92141247D01*
X168329523Y-92141247D02*
X168281904Y-92046009D01*
X168281904Y-92046009D02*
X168234285Y-91998390D01*
X168234285Y-91998390D02*
X168139047Y-91950771D01*
X168139047Y-91950771D02*
X167948571Y-91950771D01*
X167948571Y-91950771D02*
X167853333Y-91998390D01*
X167853333Y-91998390D02*
X167805714Y-92046009D01*
X167805714Y-92046009D02*
X167758095Y-92141247D01*
X216194905Y-80709819D02*
X216194905Y-79709819D01*
X216194905Y-79709819D02*
X216433000Y-79709819D01*
X216433000Y-79709819D02*
X216575857Y-79757438D01*
X216575857Y-79757438D02*
X216671095Y-79852676D01*
X216671095Y-79852676D02*
X216718714Y-79947914D01*
X216718714Y-79947914D02*
X216766333Y-80138390D01*
X216766333Y-80138390D02*
X216766333Y-80281247D01*
X216766333Y-80281247D02*
X216718714Y-80471723D01*
X216718714Y-80471723D02*
X216671095Y-80566961D01*
X216671095Y-80566961D02*
X216575857Y-80662200D01*
X216575857Y-80662200D02*
X216433000Y-80709819D01*
X216433000Y-80709819D02*
X216194905Y-80709819D01*
X217623476Y-80043152D02*
X217623476Y-80709819D01*
X217385381Y-79662200D02*
X217147286Y-80376485D01*
X217147286Y-80376485D02*
X217766333Y-80376485D01*
X139393628Y-50861190D02*
X139869819Y-50861190D01*
X138869819Y-51194523D02*
X139393628Y-50861190D01*
X139393628Y-50861190D02*
X138869819Y-50527857D01*
X139869819Y-49670714D02*
X139869819Y-50242142D01*
X139869819Y-49956428D02*
X138869819Y-49956428D01*
X138869819Y-49956428D02*
X139012676Y-50051666D01*
X139012676Y-50051666D02*
X139107914Y-50146904D01*
X139107914Y-50146904D02*
X139155533Y-50242142D01*
X216194905Y-96349819D02*
X216194905Y-95349819D01*
X216194905Y-95349819D02*
X216433000Y-95349819D01*
X216433000Y-95349819D02*
X216575857Y-95397438D01*
X216575857Y-95397438D02*
X216671095Y-95492676D01*
X216671095Y-95492676D02*
X216718714Y-95587914D01*
X216718714Y-95587914D02*
X216766333Y-95778390D01*
X216766333Y-95778390D02*
X216766333Y-95921247D01*
X216766333Y-95921247D02*
X216718714Y-96111723D01*
X216718714Y-96111723D02*
X216671095Y-96206961D01*
X216671095Y-96206961D02*
X216575857Y-96302200D01*
X216575857Y-96302200D02*
X216433000Y-96349819D01*
X216433000Y-96349819D02*
X216194905Y-96349819D01*
X217337762Y-95778390D02*
X217242524Y-95730771D01*
X217242524Y-95730771D02*
X217194905Y-95683152D01*
X217194905Y-95683152D02*
X217147286Y-95587914D01*
X217147286Y-95587914D02*
X217147286Y-95540295D01*
X217147286Y-95540295D02*
X217194905Y-95445057D01*
X217194905Y-95445057D02*
X217242524Y-95397438D01*
X217242524Y-95397438D02*
X217337762Y-95349819D01*
X217337762Y-95349819D02*
X217528238Y-95349819D01*
X217528238Y-95349819D02*
X217623476Y-95397438D01*
X217623476Y-95397438D02*
X217671095Y-95445057D01*
X217671095Y-95445057D02*
X217718714Y-95540295D01*
X217718714Y-95540295D02*
X217718714Y-95587914D01*
X217718714Y-95587914D02*
X217671095Y-95683152D01*
X217671095Y-95683152D02*
X217623476Y-95730771D01*
X217623476Y-95730771D02*
X217528238Y-95778390D01*
X217528238Y-95778390D02*
X217337762Y-95778390D01*
X217337762Y-95778390D02*
X217242524Y-95826009D01*
X217242524Y-95826009D02*
X217194905Y-95873628D01*
X217194905Y-95873628D02*
X217147286Y-95968866D01*
X217147286Y-95968866D02*
X217147286Y-96159342D01*
X217147286Y-96159342D02*
X217194905Y-96254580D01*
X217194905Y-96254580D02*
X217242524Y-96302200D01*
X217242524Y-96302200D02*
X217337762Y-96349819D01*
X217337762Y-96349819D02*
X217528238Y-96349819D01*
X217528238Y-96349819D02*
X217623476Y-96302200D01*
X217623476Y-96302200D02*
X217671095Y-96254580D01*
X217671095Y-96254580D02*
X217718714Y-96159342D01*
X217718714Y-96159342D02*
X217718714Y-95968866D01*
X217718714Y-95968866D02*
X217671095Y-95873628D01*
X217671095Y-95873628D02*
X217623476Y-95826009D01*
X217623476Y-95826009D02*
X217528238Y-95778390D01*
X140582142Y-84859580D02*
X140534523Y-84907200D01*
X140534523Y-84907200D02*
X140391666Y-84954819D01*
X140391666Y-84954819D02*
X140296428Y-84954819D01*
X140296428Y-84954819D02*
X140153571Y-84907200D01*
X140153571Y-84907200D02*
X140058333Y-84811961D01*
X140058333Y-84811961D02*
X140010714Y-84716723D01*
X140010714Y-84716723D02*
X139963095Y-84526247D01*
X139963095Y-84526247D02*
X139963095Y-84383390D01*
X139963095Y-84383390D02*
X140010714Y-84192914D01*
X140010714Y-84192914D02*
X140058333Y-84097676D01*
X140058333Y-84097676D02*
X140153571Y-84002438D01*
X140153571Y-84002438D02*
X140296428Y-83954819D01*
X140296428Y-83954819D02*
X140391666Y-83954819D01*
X140391666Y-83954819D02*
X140534523Y-84002438D01*
X140534523Y-84002438D02*
X140582142Y-84050057D01*
X141534523Y-84954819D02*
X140963095Y-84954819D01*
X141248809Y-84954819D02*
X141248809Y-83954819D01*
X141248809Y-83954819D02*
X141153571Y-84097676D01*
X141153571Y-84097676D02*
X141058333Y-84192914D01*
X141058333Y-84192914D02*
X140963095Y-84240533D01*
X142486904Y-84954819D02*
X141915476Y-84954819D01*
X142201190Y-84954819D02*
X142201190Y-83954819D01*
X142201190Y-83954819D02*
X142105952Y-84097676D01*
X142105952Y-84097676D02*
X142010714Y-84192914D01*
X142010714Y-84192914D02*
X141915476Y-84240533D01*
X158213238Y-100739914D02*
X158213238Y-101044676D01*
X157999905Y-100404676D02*
X158213238Y-100739914D01*
X158213238Y-100739914D02*
X158426572Y-100404676D01*
X158609428Y-100465628D02*
X158639904Y-100435152D01*
X158639904Y-100435152D02*
X158700857Y-100404676D01*
X158700857Y-100404676D02*
X158853238Y-100404676D01*
X158853238Y-100404676D02*
X158914190Y-100435152D01*
X158914190Y-100435152D02*
X158944666Y-100465628D01*
X158944666Y-100465628D02*
X158975143Y-100526580D01*
X158975143Y-100526580D02*
X158975143Y-100587533D01*
X158975143Y-100587533D02*
X158944666Y-100678961D01*
X158944666Y-100678961D02*
X158578952Y-101044676D01*
X158578952Y-101044676D02*
X158975143Y-101044676D01*
X234690476Y-82344819D02*
X234690476Y-83059104D01*
X234690476Y-83059104D02*
X234642857Y-83201961D01*
X234642857Y-83201961D02*
X234547619Y-83297200D01*
X234547619Y-83297200D02*
X234404762Y-83344819D01*
X234404762Y-83344819D02*
X234309524Y-83344819D01*
X235119048Y-82440057D02*
X235166667Y-82392438D01*
X235166667Y-82392438D02*
X235261905Y-82344819D01*
X235261905Y-82344819D02*
X235500000Y-82344819D01*
X235500000Y-82344819D02*
X235595238Y-82392438D01*
X235595238Y-82392438D02*
X235642857Y-82440057D01*
X235642857Y-82440057D02*
X235690476Y-82535295D01*
X235690476Y-82535295D02*
X235690476Y-82630533D01*
X235690476Y-82630533D02*
X235642857Y-82773390D01*
X235642857Y-82773390D02*
X235071429Y-83344819D01*
X235071429Y-83344819D02*
X235690476Y-83344819D01*
X236309524Y-82344819D02*
X236404762Y-82344819D01*
X236404762Y-82344819D02*
X236500000Y-82392438D01*
X236500000Y-82392438D02*
X236547619Y-82440057D01*
X236547619Y-82440057D02*
X236595238Y-82535295D01*
X236595238Y-82535295D02*
X236642857Y-82725771D01*
X236642857Y-82725771D02*
X236642857Y-82963866D01*
X236642857Y-82963866D02*
X236595238Y-83154342D01*
X236595238Y-83154342D02*
X236547619Y-83249580D01*
X236547619Y-83249580D02*
X236500000Y-83297200D01*
X236500000Y-83297200D02*
X236404762Y-83344819D01*
X236404762Y-83344819D02*
X236309524Y-83344819D01*
X236309524Y-83344819D02*
X236214286Y-83297200D01*
X236214286Y-83297200D02*
X236166667Y-83249580D01*
X236166667Y-83249580D02*
X236119048Y-83154342D01*
X236119048Y-83154342D02*
X236071429Y-82963866D01*
X236071429Y-82963866D02*
X236071429Y-82725771D01*
X236071429Y-82725771D02*
X236119048Y-82535295D01*
X236119048Y-82535295D02*
X236166667Y-82440057D01*
X236166667Y-82440057D02*
X236214286Y-82392438D01*
X236214286Y-82392438D02*
X236309524Y-82344819D01*
X145323333Y-90624819D02*
X144990000Y-90148628D01*
X144751905Y-90624819D02*
X144751905Y-89624819D01*
X144751905Y-89624819D02*
X145132857Y-89624819D01*
X145132857Y-89624819D02*
X145228095Y-89672438D01*
X145228095Y-89672438D02*
X145275714Y-89720057D01*
X145275714Y-89720057D02*
X145323333Y-89815295D01*
X145323333Y-89815295D02*
X145323333Y-89958152D01*
X145323333Y-89958152D02*
X145275714Y-90053390D01*
X145275714Y-90053390D02*
X145228095Y-90101009D01*
X145228095Y-90101009D02*
X145132857Y-90148628D01*
X145132857Y-90148628D02*
X144751905Y-90148628D01*
X146275714Y-90624819D02*
X145704286Y-90624819D01*
X145990000Y-90624819D02*
X145990000Y-89624819D01*
X145990000Y-89624819D02*
X145894762Y-89767676D01*
X145894762Y-89767676D02*
X145799524Y-89862914D01*
X145799524Y-89862914D02*
X145704286Y-89910533D01*
X226857142Y-42659580D02*
X226809523Y-42707200D01*
X226809523Y-42707200D02*
X226666666Y-42754819D01*
X226666666Y-42754819D02*
X226571428Y-42754819D01*
X226571428Y-42754819D02*
X226428571Y-42707200D01*
X226428571Y-42707200D02*
X226333333Y-42611961D01*
X226333333Y-42611961D02*
X226285714Y-42516723D01*
X226285714Y-42516723D02*
X226238095Y-42326247D01*
X226238095Y-42326247D02*
X226238095Y-42183390D01*
X226238095Y-42183390D02*
X226285714Y-41992914D01*
X226285714Y-41992914D02*
X226333333Y-41897676D01*
X226333333Y-41897676D02*
X226428571Y-41802438D01*
X226428571Y-41802438D02*
X226571428Y-41754819D01*
X226571428Y-41754819D02*
X226666666Y-41754819D01*
X226666666Y-41754819D02*
X226809523Y-41802438D01*
X226809523Y-41802438D02*
X226857142Y-41850057D01*
X227238095Y-41850057D02*
X227285714Y-41802438D01*
X227285714Y-41802438D02*
X227380952Y-41754819D01*
X227380952Y-41754819D02*
X227619047Y-41754819D01*
X227619047Y-41754819D02*
X227714285Y-41802438D01*
X227714285Y-41802438D02*
X227761904Y-41850057D01*
X227761904Y-41850057D02*
X227809523Y-41945295D01*
X227809523Y-41945295D02*
X227809523Y-42040533D01*
X227809523Y-42040533D02*
X227761904Y-42183390D01*
X227761904Y-42183390D02*
X227190476Y-42754819D01*
X227190476Y-42754819D02*
X227809523Y-42754819D01*
X228190476Y-41850057D02*
X228238095Y-41802438D01*
X228238095Y-41802438D02*
X228333333Y-41754819D01*
X228333333Y-41754819D02*
X228571428Y-41754819D01*
X228571428Y-41754819D02*
X228666666Y-41802438D01*
X228666666Y-41802438D02*
X228714285Y-41850057D01*
X228714285Y-41850057D02*
X228761904Y-41945295D01*
X228761904Y-41945295D02*
X228761904Y-42040533D01*
X228761904Y-42040533D02*
X228714285Y-42183390D01*
X228714285Y-42183390D02*
X228142857Y-42754819D01*
X228142857Y-42754819D02*
X228761904Y-42754819D01*
X209343333Y-93264819D02*
X209010000Y-92788628D01*
X208771905Y-93264819D02*
X208771905Y-92264819D01*
X208771905Y-92264819D02*
X209152857Y-92264819D01*
X209152857Y-92264819D02*
X209248095Y-92312438D01*
X209248095Y-92312438D02*
X209295714Y-92360057D01*
X209295714Y-92360057D02*
X209343333Y-92455295D01*
X209343333Y-92455295D02*
X209343333Y-92598152D01*
X209343333Y-92598152D02*
X209295714Y-92693390D01*
X209295714Y-92693390D02*
X209248095Y-92741009D01*
X209248095Y-92741009D02*
X209152857Y-92788628D01*
X209152857Y-92788628D02*
X208771905Y-92788628D01*
X209676667Y-92264819D02*
X210343333Y-92264819D01*
X210343333Y-92264819D02*
X209914762Y-93264819D01*
X235166666Y-61344819D02*
X235166666Y-62059104D01*
X235166666Y-62059104D02*
X235119047Y-62201961D01*
X235119047Y-62201961D02*
X235023809Y-62297200D01*
X235023809Y-62297200D02*
X234880952Y-62344819D01*
X234880952Y-62344819D02*
X234785714Y-62344819D01*
X235690476Y-62344819D02*
X235880952Y-62344819D01*
X235880952Y-62344819D02*
X235976190Y-62297200D01*
X235976190Y-62297200D02*
X236023809Y-62249580D01*
X236023809Y-62249580D02*
X236119047Y-62106723D01*
X236119047Y-62106723D02*
X236166666Y-61916247D01*
X236166666Y-61916247D02*
X236166666Y-61535295D01*
X236166666Y-61535295D02*
X236119047Y-61440057D01*
X236119047Y-61440057D02*
X236071428Y-61392438D01*
X236071428Y-61392438D02*
X235976190Y-61344819D01*
X235976190Y-61344819D02*
X235785714Y-61344819D01*
X235785714Y-61344819D02*
X235690476Y-61392438D01*
X235690476Y-61392438D02*
X235642857Y-61440057D01*
X235642857Y-61440057D02*
X235595238Y-61535295D01*
X235595238Y-61535295D02*
X235595238Y-61773390D01*
X235595238Y-61773390D02*
X235642857Y-61868628D01*
X235642857Y-61868628D02*
X235690476Y-61916247D01*
X235690476Y-61916247D02*
X235785714Y-61963866D01*
X235785714Y-61963866D02*
X235976190Y-61963866D01*
X235976190Y-61963866D02*
X236071428Y-61916247D01*
X236071428Y-61916247D02*
X236119047Y-61868628D01*
X236119047Y-61868628D02*
X236166666Y-61773390D01*
X234690476Y-85394819D02*
X234690476Y-86109104D01*
X234690476Y-86109104D02*
X234642857Y-86251961D01*
X234642857Y-86251961D02*
X234547619Y-86347200D01*
X234547619Y-86347200D02*
X234404762Y-86394819D01*
X234404762Y-86394819D02*
X234309524Y-86394819D01*
X235119048Y-85490057D02*
X235166667Y-85442438D01*
X235166667Y-85442438D02*
X235261905Y-85394819D01*
X235261905Y-85394819D02*
X235500000Y-85394819D01*
X235500000Y-85394819D02*
X235595238Y-85442438D01*
X235595238Y-85442438D02*
X235642857Y-85490057D01*
X235642857Y-85490057D02*
X235690476Y-85585295D01*
X235690476Y-85585295D02*
X235690476Y-85680533D01*
X235690476Y-85680533D02*
X235642857Y-85823390D01*
X235642857Y-85823390D02*
X235071429Y-86394819D01*
X235071429Y-86394819D02*
X235690476Y-86394819D01*
X236642857Y-86394819D02*
X236071429Y-86394819D01*
X236357143Y-86394819D02*
X236357143Y-85394819D01*
X236357143Y-85394819D02*
X236261905Y-85537676D01*
X236261905Y-85537676D02*
X236166667Y-85632914D01*
X236166667Y-85632914D02*
X236071429Y-85680533D01*
X133166666Y-60344819D02*
X133166666Y-61059104D01*
X133166666Y-61059104D02*
X133119047Y-61201961D01*
X133119047Y-61201961D02*
X133023809Y-61297200D01*
X133023809Y-61297200D02*
X132880952Y-61344819D01*
X132880952Y-61344819D02*
X132785714Y-61344819D01*
X133785714Y-60773390D02*
X133690476Y-60725771D01*
X133690476Y-60725771D02*
X133642857Y-60678152D01*
X133642857Y-60678152D02*
X133595238Y-60582914D01*
X133595238Y-60582914D02*
X133595238Y-60535295D01*
X133595238Y-60535295D02*
X133642857Y-60440057D01*
X133642857Y-60440057D02*
X133690476Y-60392438D01*
X133690476Y-60392438D02*
X133785714Y-60344819D01*
X133785714Y-60344819D02*
X133976190Y-60344819D01*
X133976190Y-60344819D02*
X134071428Y-60392438D01*
X134071428Y-60392438D02*
X134119047Y-60440057D01*
X134119047Y-60440057D02*
X134166666Y-60535295D01*
X134166666Y-60535295D02*
X134166666Y-60582914D01*
X134166666Y-60582914D02*
X134119047Y-60678152D01*
X134119047Y-60678152D02*
X134071428Y-60725771D01*
X134071428Y-60725771D02*
X133976190Y-60773390D01*
X133976190Y-60773390D02*
X133785714Y-60773390D01*
X133785714Y-60773390D02*
X133690476Y-60821009D01*
X133690476Y-60821009D02*
X133642857Y-60868628D01*
X133642857Y-60868628D02*
X133595238Y-60963866D01*
X133595238Y-60963866D02*
X133595238Y-61154342D01*
X133595238Y-61154342D02*
X133642857Y-61249580D01*
X133642857Y-61249580D02*
X133690476Y-61297200D01*
X133690476Y-61297200D02*
X133785714Y-61344819D01*
X133785714Y-61344819D02*
X133976190Y-61344819D01*
X133976190Y-61344819D02*
X134071428Y-61297200D01*
X134071428Y-61297200D02*
X134119047Y-61249580D01*
X134119047Y-61249580D02*
X134166666Y-61154342D01*
X134166666Y-61154342D02*
X134166666Y-60963866D01*
X134166666Y-60963866D02*
X134119047Y-60868628D01*
X134119047Y-60868628D02*
X134071428Y-60821009D01*
X134071428Y-60821009D02*
X133976190Y-60773390D01*
X216194905Y-88529819D02*
X216194905Y-87529819D01*
X216194905Y-87529819D02*
X216433000Y-87529819D01*
X216433000Y-87529819D02*
X216575857Y-87577438D01*
X216575857Y-87577438D02*
X216671095Y-87672676D01*
X216671095Y-87672676D02*
X216718714Y-87767914D01*
X216718714Y-87767914D02*
X216766333Y-87958390D01*
X216766333Y-87958390D02*
X216766333Y-88101247D01*
X216766333Y-88101247D02*
X216718714Y-88291723D01*
X216718714Y-88291723D02*
X216671095Y-88386961D01*
X216671095Y-88386961D02*
X216575857Y-88482200D01*
X216575857Y-88482200D02*
X216433000Y-88529819D01*
X216433000Y-88529819D02*
X216194905Y-88529819D01*
X217623476Y-87529819D02*
X217433000Y-87529819D01*
X217433000Y-87529819D02*
X217337762Y-87577438D01*
X217337762Y-87577438D02*
X217290143Y-87625057D01*
X217290143Y-87625057D02*
X217194905Y-87767914D01*
X217194905Y-87767914D02*
X217147286Y-87958390D01*
X217147286Y-87958390D02*
X217147286Y-88339342D01*
X217147286Y-88339342D02*
X217194905Y-88434580D01*
X217194905Y-88434580D02*
X217242524Y-88482200D01*
X217242524Y-88482200D02*
X217337762Y-88529819D01*
X217337762Y-88529819D02*
X217528238Y-88529819D01*
X217528238Y-88529819D02*
X217623476Y-88482200D01*
X217623476Y-88482200D02*
X217671095Y-88434580D01*
X217671095Y-88434580D02*
X217718714Y-88339342D01*
X217718714Y-88339342D02*
X217718714Y-88101247D01*
X217718714Y-88101247D02*
X217671095Y-88006009D01*
X217671095Y-88006009D02*
X217623476Y-87958390D01*
X217623476Y-87958390D02*
X217528238Y-87910771D01*
X217528238Y-87910771D02*
X217337762Y-87910771D01*
X217337762Y-87910771D02*
X217242524Y-87958390D01*
X217242524Y-87958390D02*
X217194905Y-88006009D01*
X217194905Y-88006009D02*
X217147286Y-88101247D01*
X161107142Y-101359580D02*
X161059523Y-101407200D01*
X161059523Y-101407200D02*
X160916666Y-101454819D01*
X160916666Y-101454819D02*
X160821428Y-101454819D01*
X160821428Y-101454819D02*
X160678571Y-101407200D01*
X160678571Y-101407200D02*
X160583333Y-101311961D01*
X160583333Y-101311961D02*
X160535714Y-101216723D01*
X160535714Y-101216723D02*
X160488095Y-101026247D01*
X160488095Y-101026247D02*
X160488095Y-100883390D01*
X160488095Y-100883390D02*
X160535714Y-100692914D01*
X160535714Y-100692914D02*
X160583333Y-100597676D01*
X160583333Y-100597676D02*
X160678571Y-100502438D01*
X160678571Y-100502438D02*
X160821428Y-100454819D01*
X160821428Y-100454819D02*
X160916666Y-100454819D01*
X160916666Y-100454819D02*
X161059523Y-100502438D01*
X161059523Y-100502438D02*
X161107142Y-100550057D01*
X161488095Y-100550057D02*
X161535714Y-100502438D01*
X161535714Y-100502438D02*
X161630952Y-100454819D01*
X161630952Y-100454819D02*
X161869047Y-100454819D01*
X161869047Y-100454819D02*
X161964285Y-100502438D01*
X161964285Y-100502438D02*
X162011904Y-100550057D01*
X162011904Y-100550057D02*
X162059523Y-100645295D01*
X162059523Y-100645295D02*
X162059523Y-100740533D01*
X162059523Y-100740533D02*
X162011904Y-100883390D01*
X162011904Y-100883390D02*
X161440476Y-101454819D01*
X161440476Y-101454819D02*
X162059523Y-101454819D01*
X163011904Y-101454819D02*
X162440476Y-101454819D01*
X162726190Y-101454819D02*
X162726190Y-100454819D01*
X162726190Y-100454819D02*
X162630952Y-100597676D01*
X162630952Y-100597676D02*
X162535714Y-100692914D01*
X162535714Y-100692914D02*
X162440476Y-100740533D01*
X152690476Y-62844819D02*
X152690476Y-63559104D01*
X152690476Y-63559104D02*
X152642857Y-63701961D01*
X152642857Y-63701961D02*
X152547619Y-63797200D01*
X152547619Y-63797200D02*
X152404762Y-63844819D01*
X152404762Y-63844819D02*
X152309524Y-63844819D01*
X153690476Y-63844819D02*
X153119048Y-63844819D01*
X153404762Y-63844819D02*
X153404762Y-62844819D01*
X153404762Y-62844819D02*
X153309524Y-62987676D01*
X153309524Y-62987676D02*
X153214286Y-63082914D01*
X153214286Y-63082914D02*
X153119048Y-63130533D01*
X154309524Y-62844819D02*
X154404762Y-62844819D01*
X154404762Y-62844819D02*
X154500000Y-62892438D01*
X154500000Y-62892438D02*
X154547619Y-62940057D01*
X154547619Y-62940057D02*
X154595238Y-63035295D01*
X154595238Y-63035295D02*
X154642857Y-63225771D01*
X154642857Y-63225771D02*
X154642857Y-63463866D01*
X154642857Y-63463866D02*
X154595238Y-63654342D01*
X154595238Y-63654342D02*
X154547619Y-63749580D01*
X154547619Y-63749580D02*
X154500000Y-63797200D01*
X154500000Y-63797200D02*
X154404762Y-63844819D01*
X154404762Y-63844819D02*
X154309524Y-63844819D01*
X154309524Y-63844819D02*
X154214286Y-63797200D01*
X154214286Y-63797200D02*
X154166667Y-63749580D01*
X154166667Y-63749580D02*
X154119048Y-63654342D01*
X154119048Y-63654342D02*
X154071429Y-63463866D01*
X154071429Y-63463866D02*
X154071429Y-63225771D01*
X154071429Y-63225771D02*
X154119048Y-63035295D01*
X154119048Y-63035295D02*
X154166667Y-62940057D01*
X154166667Y-62940057D02*
X154214286Y-62892438D01*
X154214286Y-62892438D02*
X154309524Y-62844819D01*
X193441666Y-37096009D02*
X193108333Y-37096009D01*
X193108333Y-37619819D02*
X193108333Y-36619819D01*
X193108333Y-36619819D02*
X193584523Y-36619819D01*
X194489285Y-37619819D02*
X193917857Y-37619819D01*
X194203571Y-37619819D02*
X194203571Y-36619819D01*
X194203571Y-36619819D02*
X194108333Y-36762676D01*
X194108333Y-36762676D02*
X194013095Y-36857914D01*
X194013095Y-36857914D02*
X193917857Y-36905533D01*
X217558333Y-48340866D02*
X217558333Y-49474200D01*
X217558333Y-49474200D02*
X217625000Y-49607533D01*
X217625000Y-49607533D02*
X217691666Y-49674200D01*
X217691666Y-49674200D02*
X217825000Y-49740866D01*
X217825000Y-49740866D02*
X218091666Y-49740866D01*
X218091666Y-49740866D02*
X218225000Y-49674200D01*
X218225000Y-49674200D02*
X218291666Y-49607533D01*
X218291666Y-49607533D02*
X218358333Y-49474200D01*
X218358333Y-49474200D02*
X218358333Y-48340866D01*
X219625000Y-48807533D02*
X219625000Y-49740866D01*
X219291667Y-48274200D02*
X218958333Y-49274200D01*
X218958333Y-49274200D02*
X219825000Y-49274200D01*
X133166666Y-38344819D02*
X133166666Y-39059104D01*
X133166666Y-39059104D02*
X133119047Y-39201961D01*
X133119047Y-39201961D02*
X133023809Y-39297200D01*
X133023809Y-39297200D02*
X132880952Y-39344819D01*
X132880952Y-39344819D02*
X132785714Y-39344819D01*
X133595238Y-38440057D02*
X133642857Y-38392438D01*
X133642857Y-38392438D02*
X133738095Y-38344819D01*
X133738095Y-38344819D02*
X133976190Y-38344819D01*
X133976190Y-38344819D02*
X134071428Y-38392438D01*
X134071428Y-38392438D02*
X134119047Y-38440057D01*
X134119047Y-38440057D02*
X134166666Y-38535295D01*
X134166666Y-38535295D02*
X134166666Y-38630533D01*
X134166666Y-38630533D02*
X134119047Y-38773390D01*
X134119047Y-38773390D02*
X133547619Y-39344819D01*
X133547619Y-39344819D02*
X134166666Y-39344819D01*
X133166666Y-54844819D02*
X133166666Y-55559104D01*
X133166666Y-55559104D02*
X133119047Y-55701961D01*
X133119047Y-55701961D02*
X133023809Y-55797200D01*
X133023809Y-55797200D02*
X132880952Y-55844819D01*
X132880952Y-55844819D02*
X132785714Y-55844819D01*
X134119047Y-54844819D02*
X133642857Y-54844819D01*
X133642857Y-54844819D02*
X133595238Y-55321009D01*
X133595238Y-55321009D02*
X133642857Y-55273390D01*
X133642857Y-55273390D02*
X133738095Y-55225771D01*
X133738095Y-55225771D02*
X133976190Y-55225771D01*
X133976190Y-55225771D02*
X134071428Y-55273390D01*
X134071428Y-55273390D02*
X134119047Y-55321009D01*
X134119047Y-55321009D02*
X134166666Y-55416247D01*
X134166666Y-55416247D02*
X134166666Y-55654342D01*
X134166666Y-55654342D02*
X134119047Y-55749580D01*
X134119047Y-55749580D02*
X134071428Y-55797200D01*
X134071428Y-55797200D02*
X133976190Y-55844819D01*
X133976190Y-55844819D02*
X133738095Y-55844819D01*
X133738095Y-55844819D02*
X133642857Y-55797200D01*
X133642857Y-55797200D02*
X133595238Y-55749580D01*
X232868214Y-47284819D02*
X232868214Y-46284819D01*
X232868214Y-46284819D02*
X233106309Y-46284819D01*
X233106309Y-46284819D02*
X233249166Y-46332438D01*
X233249166Y-46332438D02*
X233344404Y-46427676D01*
X233344404Y-46427676D02*
X233392023Y-46522914D01*
X233392023Y-46522914D02*
X233439642Y-46713390D01*
X233439642Y-46713390D02*
X233439642Y-46856247D01*
X233439642Y-46856247D02*
X233392023Y-47046723D01*
X233392023Y-47046723D02*
X233344404Y-47141961D01*
X233344404Y-47141961D02*
X233249166Y-47237200D01*
X233249166Y-47237200D02*
X233106309Y-47284819D01*
X233106309Y-47284819D02*
X232868214Y-47284819D01*
X234392023Y-47284819D02*
X233820595Y-47284819D01*
X234106309Y-47284819D02*
X234106309Y-46284819D01*
X234106309Y-46284819D02*
X234011071Y-46427676D01*
X234011071Y-46427676D02*
X233915833Y-46522914D01*
X233915833Y-46522914D02*
X233820595Y-46570533D01*
X235011071Y-46284819D02*
X235106309Y-46284819D01*
X235106309Y-46284819D02*
X235201547Y-46332438D01*
X235201547Y-46332438D02*
X235249166Y-46380057D01*
X235249166Y-46380057D02*
X235296785Y-46475295D01*
X235296785Y-46475295D02*
X235344404Y-46665771D01*
X235344404Y-46665771D02*
X235344404Y-46903866D01*
X235344404Y-46903866D02*
X235296785Y-47094342D01*
X235296785Y-47094342D02*
X235249166Y-47189580D01*
X235249166Y-47189580D02*
X235201547Y-47237200D01*
X235201547Y-47237200D02*
X235106309Y-47284819D01*
X235106309Y-47284819D02*
X235011071Y-47284819D01*
X235011071Y-47284819D02*
X234915833Y-47237200D01*
X234915833Y-47237200D02*
X234868214Y-47189580D01*
X234868214Y-47189580D02*
X234820595Y-47094342D01*
X234820595Y-47094342D02*
X234772976Y-46903866D01*
X234772976Y-46903866D02*
X234772976Y-46665771D01*
X234772976Y-46665771D02*
X234820595Y-46475295D01*
X234820595Y-46475295D02*
X234868214Y-46380057D01*
X234868214Y-46380057D02*
X234915833Y-46332438D01*
X234915833Y-46332438D02*
X235011071Y-46284819D01*
X233833333Y-44284819D02*
X233500000Y-43808628D01*
X233261905Y-44284819D02*
X233261905Y-43284819D01*
X233261905Y-43284819D02*
X233642857Y-43284819D01*
X233642857Y-43284819D02*
X233738095Y-43332438D01*
X233738095Y-43332438D02*
X233785714Y-43380057D01*
X233785714Y-43380057D02*
X233833333Y-43475295D01*
X233833333Y-43475295D02*
X233833333Y-43618152D01*
X233833333Y-43618152D02*
X233785714Y-43713390D01*
X233785714Y-43713390D02*
X233738095Y-43761009D01*
X233738095Y-43761009D02*
X233642857Y-43808628D01*
X233642857Y-43808628D02*
X233261905Y-43808628D01*
X234404762Y-43713390D02*
X234309524Y-43665771D01*
X234309524Y-43665771D02*
X234261905Y-43618152D01*
X234261905Y-43618152D02*
X234214286Y-43522914D01*
X234214286Y-43522914D02*
X234214286Y-43475295D01*
X234214286Y-43475295D02*
X234261905Y-43380057D01*
X234261905Y-43380057D02*
X234309524Y-43332438D01*
X234309524Y-43332438D02*
X234404762Y-43284819D01*
X234404762Y-43284819D02*
X234595238Y-43284819D01*
X234595238Y-43284819D02*
X234690476Y-43332438D01*
X234690476Y-43332438D02*
X234738095Y-43380057D01*
X234738095Y-43380057D02*
X234785714Y-43475295D01*
X234785714Y-43475295D02*
X234785714Y-43522914D01*
X234785714Y-43522914D02*
X234738095Y-43618152D01*
X234738095Y-43618152D02*
X234690476Y-43665771D01*
X234690476Y-43665771D02*
X234595238Y-43713390D01*
X234595238Y-43713390D02*
X234404762Y-43713390D01*
X234404762Y-43713390D02*
X234309524Y-43761009D01*
X234309524Y-43761009D02*
X234261905Y-43808628D01*
X234261905Y-43808628D02*
X234214286Y-43903866D01*
X234214286Y-43903866D02*
X234214286Y-44094342D01*
X234214286Y-44094342D02*
X234261905Y-44189580D01*
X234261905Y-44189580D02*
X234309524Y-44237200D01*
X234309524Y-44237200D02*
X234404762Y-44284819D01*
X234404762Y-44284819D02*
X234595238Y-44284819D01*
X234595238Y-44284819D02*
X234690476Y-44237200D01*
X234690476Y-44237200D02*
X234738095Y-44189580D01*
X234738095Y-44189580D02*
X234785714Y-44094342D01*
X234785714Y-44094342D02*
X234785714Y-43903866D01*
X234785714Y-43903866D02*
X234738095Y-43808628D01*
X234738095Y-43808628D02*
X234690476Y-43761009D01*
X234690476Y-43761009D02*
X234595238Y-43713390D01*
X169933333Y-50659580D02*
X169885714Y-50707200D01*
X169885714Y-50707200D02*
X169742857Y-50754819D01*
X169742857Y-50754819D02*
X169647619Y-50754819D01*
X169647619Y-50754819D02*
X169504762Y-50707200D01*
X169504762Y-50707200D02*
X169409524Y-50611961D01*
X169409524Y-50611961D02*
X169361905Y-50516723D01*
X169361905Y-50516723D02*
X169314286Y-50326247D01*
X169314286Y-50326247D02*
X169314286Y-50183390D01*
X169314286Y-50183390D02*
X169361905Y-49992914D01*
X169361905Y-49992914D02*
X169409524Y-49897676D01*
X169409524Y-49897676D02*
X169504762Y-49802438D01*
X169504762Y-49802438D02*
X169647619Y-49754819D01*
X169647619Y-49754819D02*
X169742857Y-49754819D01*
X169742857Y-49754819D02*
X169885714Y-49802438D01*
X169885714Y-49802438D02*
X169933333Y-49850057D01*
X170314286Y-49850057D02*
X170361905Y-49802438D01*
X170361905Y-49802438D02*
X170457143Y-49754819D01*
X170457143Y-49754819D02*
X170695238Y-49754819D01*
X170695238Y-49754819D02*
X170790476Y-49802438D01*
X170790476Y-49802438D02*
X170838095Y-49850057D01*
X170838095Y-49850057D02*
X170885714Y-49945295D01*
X170885714Y-49945295D02*
X170885714Y-50040533D01*
X170885714Y-50040533D02*
X170838095Y-50183390D01*
X170838095Y-50183390D02*
X170266667Y-50754819D01*
X170266667Y-50754819D02*
X170885714Y-50754819D01*
X149823333Y-53284819D02*
X149490000Y-52808628D01*
X149251905Y-53284819D02*
X149251905Y-52284819D01*
X149251905Y-52284819D02*
X149632857Y-52284819D01*
X149632857Y-52284819D02*
X149728095Y-52332438D01*
X149728095Y-52332438D02*
X149775714Y-52380057D01*
X149775714Y-52380057D02*
X149823333Y-52475295D01*
X149823333Y-52475295D02*
X149823333Y-52618152D01*
X149823333Y-52618152D02*
X149775714Y-52713390D01*
X149775714Y-52713390D02*
X149728095Y-52761009D01*
X149728095Y-52761009D02*
X149632857Y-52808628D01*
X149632857Y-52808628D02*
X149251905Y-52808628D01*
X150204286Y-52380057D02*
X150251905Y-52332438D01*
X150251905Y-52332438D02*
X150347143Y-52284819D01*
X150347143Y-52284819D02*
X150585238Y-52284819D01*
X150585238Y-52284819D02*
X150680476Y-52332438D01*
X150680476Y-52332438D02*
X150728095Y-52380057D01*
X150728095Y-52380057D02*
X150775714Y-52475295D01*
X150775714Y-52475295D02*
X150775714Y-52570533D01*
X150775714Y-52570533D02*
X150728095Y-52713390D01*
X150728095Y-52713390D02*
X150156667Y-53284819D01*
X150156667Y-53284819D02*
X150775714Y-53284819D01*
X158537142Y-101309580D02*
X158489523Y-101357200D01*
X158489523Y-101357200D02*
X158346666Y-101404819D01*
X158346666Y-101404819D02*
X158251428Y-101404819D01*
X158251428Y-101404819D02*
X158108571Y-101357200D01*
X158108571Y-101357200D02*
X158013333Y-101261961D01*
X158013333Y-101261961D02*
X157965714Y-101166723D01*
X157965714Y-101166723D02*
X157918095Y-100976247D01*
X157918095Y-100976247D02*
X157918095Y-100833390D01*
X157918095Y-100833390D02*
X157965714Y-100642914D01*
X157965714Y-100642914D02*
X158013333Y-100547676D01*
X158013333Y-100547676D02*
X158108571Y-100452438D01*
X158108571Y-100452438D02*
X158251428Y-100404819D01*
X158251428Y-100404819D02*
X158346666Y-100404819D01*
X158346666Y-100404819D02*
X158489523Y-100452438D01*
X158489523Y-100452438D02*
X158537142Y-100500057D01*
X159489523Y-101404819D02*
X158918095Y-101404819D01*
X159203809Y-101404819D02*
X159203809Y-100404819D01*
X159203809Y-100404819D02*
X159108571Y-100547676D01*
X159108571Y-100547676D02*
X159013333Y-100642914D01*
X159013333Y-100642914D02*
X158918095Y-100690533D01*
X159965714Y-101404819D02*
X160156190Y-101404819D01*
X160156190Y-101404819D02*
X160251428Y-101357200D01*
X160251428Y-101357200D02*
X160299047Y-101309580D01*
X160299047Y-101309580D02*
X160394285Y-101166723D01*
X160394285Y-101166723D02*
X160441904Y-100976247D01*
X160441904Y-100976247D02*
X160441904Y-100595295D01*
X160441904Y-100595295D02*
X160394285Y-100500057D01*
X160394285Y-100500057D02*
X160346666Y-100452438D01*
X160346666Y-100452438D02*
X160251428Y-100404819D01*
X160251428Y-100404819D02*
X160060952Y-100404819D01*
X160060952Y-100404819D02*
X159965714Y-100452438D01*
X159965714Y-100452438D02*
X159918095Y-100500057D01*
X159918095Y-100500057D02*
X159870476Y-100595295D01*
X159870476Y-100595295D02*
X159870476Y-100833390D01*
X159870476Y-100833390D02*
X159918095Y-100928628D01*
X159918095Y-100928628D02*
X159965714Y-100976247D01*
X159965714Y-100976247D02*
X160060952Y-101023866D01*
X160060952Y-101023866D02*
X160251428Y-101023866D01*
X160251428Y-101023866D02*
X160346666Y-100976247D01*
X160346666Y-100976247D02*
X160394285Y-100928628D01*
X160394285Y-100928628D02*
X160441904Y-100833390D01*
X198333333Y-68059580D02*
X198285714Y-68107200D01*
X198285714Y-68107200D02*
X198142857Y-68154819D01*
X198142857Y-68154819D02*
X198047619Y-68154819D01*
X198047619Y-68154819D02*
X197904762Y-68107200D01*
X197904762Y-68107200D02*
X197809524Y-68011961D01*
X197809524Y-68011961D02*
X197761905Y-67916723D01*
X197761905Y-67916723D02*
X197714286Y-67726247D01*
X197714286Y-67726247D02*
X197714286Y-67583390D01*
X197714286Y-67583390D02*
X197761905Y-67392914D01*
X197761905Y-67392914D02*
X197809524Y-67297676D01*
X197809524Y-67297676D02*
X197904762Y-67202438D01*
X197904762Y-67202438D02*
X198047619Y-67154819D01*
X198047619Y-67154819D02*
X198142857Y-67154819D01*
X198142857Y-67154819D02*
X198285714Y-67202438D01*
X198285714Y-67202438D02*
X198333333Y-67250057D01*
X199238095Y-67154819D02*
X198761905Y-67154819D01*
X198761905Y-67154819D02*
X198714286Y-67631009D01*
X198714286Y-67631009D02*
X198761905Y-67583390D01*
X198761905Y-67583390D02*
X198857143Y-67535771D01*
X198857143Y-67535771D02*
X199095238Y-67535771D01*
X199095238Y-67535771D02*
X199190476Y-67583390D01*
X199190476Y-67583390D02*
X199238095Y-67631009D01*
X199238095Y-67631009D02*
X199285714Y-67726247D01*
X199285714Y-67726247D02*
X199285714Y-67964342D01*
X199285714Y-67964342D02*
X199238095Y-68059580D01*
X199238095Y-68059580D02*
X199190476Y-68107200D01*
X199190476Y-68107200D02*
X199095238Y-68154819D01*
X199095238Y-68154819D02*
X198857143Y-68154819D01*
X198857143Y-68154819D02*
X198761905Y-68107200D01*
X198761905Y-68107200D02*
X198714286Y-68059580D01*
X149416667Y-74907200D02*
X149559524Y-74954819D01*
X149559524Y-74954819D02*
X149797619Y-74954819D01*
X149797619Y-74954819D02*
X149892857Y-74907200D01*
X149892857Y-74907200D02*
X149940476Y-74859580D01*
X149940476Y-74859580D02*
X149988095Y-74764342D01*
X149988095Y-74764342D02*
X149988095Y-74669104D01*
X149988095Y-74669104D02*
X149940476Y-74573866D01*
X149940476Y-74573866D02*
X149892857Y-74526247D01*
X149892857Y-74526247D02*
X149797619Y-74478628D01*
X149797619Y-74478628D02*
X149607143Y-74431009D01*
X149607143Y-74431009D02*
X149511905Y-74383390D01*
X149511905Y-74383390D02*
X149464286Y-74335771D01*
X149464286Y-74335771D02*
X149416667Y-74240533D01*
X149416667Y-74240533D02*
X149416667Y-74145295D01*
X149416667Y-74145295D02*
X149464286Y-74050057D01*
X149464286Y-74050057D02*
X149511905Y-74002438D01*
X149511905Y-74002438D02*
X149607143Y-73954819D01*
X149607143Y-73954819D02*
X149845238Y-73954819D01*
X149845238Y-73954819D02*
X149988095Y-74002438D01*
X150321429Y-73954819D02*
X150559524Y-74954819D01*
X150559524Y-74954819D02*
X150750000Y-74240533D01*
X150750000Y-74240533D02*
X150940476Y-74954819D01*
X150940476Y-74954819D02*
X151178572Y-73954819D01*
X152083333Y-74954819D02*
X151511905Y-74954819D01*
X151797619Y-74954819D02*
X151797619Y-73954819D01*
X151797619Y-73954819D02*
X151702381Y-74097676D01*
X151702381Y-74097676D02*
X151607143Y-74192914D01*
X151607143Y-74192914D02*
X151511905Y-74240533D01*
X234690476Y-76844819D02*
X234690476Y-77559104D01*
X234690476Y-77559104D02*
X234642857Y-77701961D01*
X234642857Y-77701961D02*
X234547619Y-77797200D01*
X234547619Y-77797200D02*
X234404762Y-77844819D01*
X234404762Y-77844819D02*
X234309524Y-77844819D01*
X235690476Y-77844819D02*
X235119048Y-77844819D01*
X235404762Y-77844819D02*
X235404762Y-76844819D01*
X235404762Y-76844819D02*
X235309524Y-76987676D01*
X235309524Y-76987676D02*
X235214286Y-77082914D01*
X235214286Y-77082914D02*
X235119048Y-77130533D01*
X236166667Y-77844819D02*
X236357143Y-77844819D01*
X236357143Y-77844819D02*
X236452381Y-77797200D01*
X236452381Y-77797200D02*
X236500000Y-77749580D01*
X236500000Y-77749580D02*
X236595238Y-77606723D01*
X236595238Y-77606723D02*
X236642857Y-77416247D01*
X236642857Y-77416247D02*
X236642857Y-77035295D01*
X236642857Y-77035295D02*
X236595238Y-76940057D01*
X236595238Y-76940057D02*
X236547619Y-76892438D01*
X236547619Y-76892438D02*
X236452381Y-76844819D01*
X236452381Y-76844819D02*
X236261905Y-76844819D01*
X236261905Y-76844819D02*
X236166667Y-76892438D01*
X236166667Y-76892438D02*
X236119048Y-76940057D01*
X236119048Y-76940057D02*
X236071429Y-77035295D01*
X236071429Y-77035295D02*
X236071429Y-77273390D01*
X236071429Y-77273390D02*
X236119048Y-77368628D01*
X236119048Y-77368628D02*
X236166667Y-77416247D01*
X236166667Y-77416247D02*
X236261905Y-77463866D01*
X236261905Y-77463866D02*
X236452381Y-77463866D01*
X236452381Y-77463866D02*
X236547619Y-77416247D01*
X236547619Y-77416247D02*
X236595238Y-77368628D01*
X236595238Y-77368628D02*
X236642857Y-77273390D01*
X209343333Y-91274819D02*
X209010000Y-90798628D01*
X208771905Y-91274819D02*
X208771905Y-90274819D01*
X208771905Y-90274819D02*
X209152857Y-90274819D01*
X209152857Y-90274819D02*
X209248095Y-90322438D01*
X209248095Y-90322438D02*
X209295714Y-90370057D01*
X209295714Y-90370057D02*
X209343333Y-90465295D01*
X209343333Y-90465295D02*
X209343333Y-90608152D01*
X209343333Y-90608152D02*
X209295714Y-90703390D01*
X209295714Y-90703390D02*
X209248095Y-90751009D01*
X209248095Y-90751009D02*
X209152857Y-90798628D01*
X209152857Y-90798628D02*
X208771905Y-90798628D01*
X210200476Y-90274819D02*
X210010000Y-90274819D01*
X210010000Y-90274819D02*
X209914762Y-90322438D01*
X209914762Y-90322438D02*
X209867143Y-90370057D01*
X209867143Y-90370057D02*
X209771905Y-90512914D01*
X209771905Y-90512914D02*
X209724286Y-90703390D01*
X209724286Y-90703390D02*
X209724286Y-91084342D01*
X209724286Y-91084342D02*
X209771905Y-91179580D01*
X209771905Y-91179580D02*
X209819524Y-91227200D01*
X209819524Y-91227200D02*
X209914762Y-91274819D01*
X209914762Y-91274819D02*
X210105238Y-91274819D01*
X210105238Y-91274819D02*
X210200476Y-91227200D01*
X210200476Y-91227200D02*
X210248095Y-91179580D01*
X210248095Y-91179580D02*
X210295714Y-91084342D01*
X210295714Y-91084342D02*
X210295714Y-90846247D01*
X210295714Y-90846247D02*
X210248095Y-90751009D01*
X210248095Y-90751009D02*
X210200476Y-90703390D01*
X210200476Y-90703390D02*
X210105238Y-90655771D01*
X210105238Y-90655771D02*
X209914762Y-90655771D01*
X209914762Y-90655771D02*
X209819524Y-90703390D01*
X209819524Y-90703390D02*
X209771905Y-90751009D01*
X209771905Y-90751009D02*
X209724286Y-90846247D01*
X225844819Y-54309523D02*
X226559104Y-54309523D01*
X226559104Y-54309523D02*
X226701961Y-54357142D01*
X226701961Y-54357142D02*
X226797200Y-54452380D01*
X226797200Y-54452380D02*
X226844819Y-54595237D01*
X226844819Y-54595237D02*
X226844819Y-54690475D01*
X226844819Y-53309523D02*
X226844819Y-53880951D01*
X226844819Y-53595237D02*
X225844819Y-53595237D01*
X225844819Y-53595237D02*
X225987676Y-53690475D01*
X225987676Y-53690475D02*
X226082914Y-53785713D01*
X226082914Y-53785713D02*
X226130533Y-53880951D01*
X226273390Y-52738094D02*
X226225771Y-52833332D01*
X226225771Y-52833332D02*
X226178152Y-52880951D01*
X226178152Y-52880951D02*
X226082914Y-52928570D01*
X226082914Y-52928570D02*
X226035295Y-52928570D01*
X226035295Y-52928570D02*
X225940057Y-52880951D01*
X225940057Y-52880951D02*
X225892438Y-52833332D01*
X225892438Y-52833332D02*
X225844819Y-52738094D01*
X225844819Y-52738094D02*
X225844819Y-52547618D01*
X225844819Y-52547618D02*
X225892438Y-52452380D01*
X225892438Y-52452380D02*
X225940057Y-52404761D01*
X225940057Y-52404761D02*
X226035295Y-52357142D01*
X226035295Y-52357142D02*
X226082914Y-52357142D01*
X226082914Y-52357142D02*
X226178152Y-52404761D01*
X226178152Y-52404761D02*
X226225771Y-52452380D01*
X226225771Y-52452380D02*
X226273390Y-52547618D01*
X226273390Y-52547618D02*
X226273390Y-52738094D01*
X226273390Y-52738094D02*
X226321009Y-52833332D01*
X226321009Y-52833332D02*
X226368628Y-52880951D01*
X226368628Y-52880951D02*
X226463866Y-52928570D01*
X226463866Y-52928570D02*
X226654342Y-52928570D01*
X226654342Y-52928570D02*
X226749580Y-52880951D01*
X226749580Y-52880951D02*
X226797200Y-52833332D01*
X226797200Y-52833332D02*
X226844819Y-52738094D01*
X226844819Y-52738094D02*
X226844819Y-52547618D01*
X226844819Y-52547618D02*
X226797200Y-52452380D01*
X226797200Y-52452380D02*
X226749580Y-52404761D01*
X226749580Y-52404761D02*
X226654342Y-52357142D01*
X226654342Y-52357142D02*
X226463866Y-52357142D01*
X226463866Y-52357142D02*
X226368628Y-52404761D01*
X226368628Y-52404761D02*
X226321009Y-52452380D01*
X226321009Y-52452380D02*
X226273390Y-52547618D01*
X133166666Y-49344819D02*
X133166666Y-50059104D01*
X133166666Y-50059104D02*
X133119047Y-50201961D01*
X133119047Y-50201961D02*
X133023809Y-50297200D01*
X133023809Y-50297200D02*
X132880952Y-50344819D01*
X132880952Y-50344819D02*
X132785714Y-50344819D01*
X134071428Y-49678152D02*
X134071428Y-50344819D01*
X133833333Y-49297200D02*
X133595238Y-50011485D01*
X133595238Y-50011485D02*
X134214285Y-50011485D01*
X133166666Y-43844819D02*
X133166666Y-44559104D01*
X133166666Y-44559104D02*
X133119047Y-44701961D01*
X133119047Y-44701961D02*
X133023809Y-44797200D01*
X133023809Y-44797200D02*
X132880952Y-44844819D01*
X132880952Y-44844819D02*
X132785714Y-44844819D01*
X133547619Y-43844819D02*
X134166666Y-43844819D01*
X134166666Y-43844819D02*
X133833333Y-44225771D01*
X133833333Y-44225771D02*
X133976190Y-44225771D01*
X133976190Y-44225771D02*
X134071428Y-44273390D01*
X134071428Y-44273390D02*
X134119047Y-44321009D01*
X134119047Y-44321009D02*
X134166666Y-44416247D01*
X134166666Y-44416247D02*
X134166666Y-44654342D01*
X134166666Y-44654342D02*
X134119047Y-44749580D01*
X134119047Y-44749580D02*
X134071428Y-44797200D01*
X134071428Y-44797200D02*
X133976190Y-44844819D01*
X133976190Y-44844819D02*
X133690476Y-44844819D01*
X133690476Y-44844819D02*
X133595238Y-44797200D01*
X133595238Y-44797200D02*
X133547619Y-44749580D01*
X178694905Y-53889819D02*
X178694905Y-52889819D01*
X178694905Y-52889819D02*
X178933000Y-52889819D01*
X178933000Y-52889819D02*
X179075857Y-52937438D01*
X179075857Y-52937438D02*
X179171095Y-53032676D01*
X179171095Y-53032676D02*
X179218714Y-53127914D01*
X179218714Y-53127914D02*
X179266333Y-53318390D01*
X179266333Y-53318390D02*
X179266333Y-53461247D01*
X179266333Y-53461247D02*
X179218714Y-53651723D01*
X179218714Y-53651723D02*
X179171095Y-53746961D01*
X179171095Y-53746961D02*
X179075857Y-53842200D01*
X179075857Y-53842200D02*
X178933000Y-53889819D01*
X178933000Y-53889819D02*
X178694905Y-53889819D01*
X180218714Y-53889819D02*
X179647286Y-53889819D01*
X179933000Y-53889819D02*
X179933000Y-52889819D01*
X179933000Y-52889819D02*
X179837762Y-53032676D01*
X179837762Y-53032676D02*
X179742524Y-53127914D01*
X179742524Y-53127914D02*
X179647286Y-53175533D01*
X196333095Y-89574819D02*
X196333095Y-90384342D01*
X196333095Y-90384342D02*
X196380714Y-90479580D01*
X196380714Y-90479580D02*
X196428333Y-90527200D01*
X196428333Y-90527200D02*
X196523571Y-90574819D01*
X196523571Y-90574819D02*
X196714047Y-90574819D01*
X196714047Y-90574819D02*
X196809285Y-90527200D01*
X196809285Y-90527200D02*
X196856904Y-90479580D01*
X196856904Y-90479580D02*
X196904523Y-90384342D01*
X196904523Y-90384342D02*
X196904523Y-89574819D01*
X197333095Y-89670057D02*
X197380714Y-89622438D01*
X197380714Y-89622438D02*
X197475952Y-89574819D01*
X197475952Y-89574819D02*
X197714047Y-89574819D01*
X197714047Y-89574819D02*
X197809285Y-89622438D01*
X197809285Y-89622438D02*
X197856904Y-89670057D01*
X197856904Y-89670057D02*
X197904523Y-89765295D01*
X197904523Y-89765295D02*
X197904523Y-89860533D01*
X197904523Y-89860533D02*
X197856904Y-90003390D01*
X197856904Y-90003390D02*
X197285476Y-90574819D01*
X197285476Y-90574819D02*
X197904523Y-90574819D01*
D11*
%TO.C,U1*%
X197247500Y-52747500D02*
X203752500Y-52747500D01*
X197247500Y-56252500D02*
X197247500Y-52747500D01*
X203752500Y-52747500D02*
X203752500Y-56252500D01*
X203752500Y-56252500D02*
X197247500Y-56252500D01*
D12*
X198310000Y-59500000D02*
G75*
G02*
X198110000Y-59500000I-100000J0D01*
G01*
X198110000Y-59500000D02*
G75*
G02*
X198310000Y-59500000I100000J0D01*
G01*
D11*
%TO.C,Q1*%
X176690000Y-61660000D02*
X176690000Y-66360000D01*
X176690000Y-66360000D02*
X187230000Y-66360000D01*
X187230000Y-61660000D02*
X176690000Y-61660000D01*
X187230000Y-66360000D02*
X187230000Y-61660000D01*
D12*
X184600000Y-60960000D02*
G75*
G02*
X184400000Y-60960000I-100000J0D01*
G01*
X184400000Y-60960000D02*
G75*
G02*
X184600000Y-60960000I100000J0D01*
G01*
D13*
%TO.C,C26*%
X160625000Y-86415000D02*
X161000000Y-86415000D01*
X160812500Y-86227500D02*
X160812500Y-86602500D01*
X161429437Y-86790000D02*
X162129437Y-86090000D01*
X161429437Y-88910000D02*
X162129437Y-89610000D01*
X162129437Y-86090000D02*
X164760000Y-86090000D01*
X162129437Y-89610000D02*
X164760000Y-89610000D01*
X164760000Y-86090000D02*
X164760000Y-86790000D01*
X164760000Y-89610000D02*
X164760000Y-88910000D01*
%TO.C,J15*%
X234755000Y-57765000D02*
X235500000Y-57765000D01*
X234755000Y-58500000D02*
X234755000Y-57765000D01*
X234755000Y-59235000D02*
X234755000Y-60110000D01*
X234755000Y-59235000D02*
X234814435Y-59235000D01*
X234755000Y-60110000D02*
X235089970Y-60110000D01*
X235910030Y-60110000D02*
X236245000Y-60110000D01*
X236185565Y-59235000D02*
X236245000Y-59235000D01*
X236245000Y-59235000D02*
X236245000Y-60110000D01*
%TO.C,C24*%
X160625000Y-76715000D02*
X161000000Y-76715000D01*
X160812500Y-76527500D02*
X160812500Y-76902500D01*
X161429437Y-77090000D02*
X162129437Y-76390000D01*
X161429437Y-79210000D02*
X162129437Y-79910000D01*
X162129437Y-76390000D02*
X164760000Y-76390000D01*
X162129437Y-79910000D02*
X164760000Y-79910000D01*
X164760000Y-76390000D02*
X164760000Y-77090000D01*
X164760000Y-79910000D02*
X164760000Y-79210000D01*
D11*
%TO.C,D2*%
X217682500Y-74320000D02*
X217682500Y-75500000D01*
X217682500Y-75500000D02*
X215918000Y-75500000D01*
X217682500Y-75500000D02*
X217682500Y-76680000D01*
X217682500Y-76680000D02*
X222317500Y-76680000D01*
X222317500Y-74320000D02*
X217682500Y-74320000D01*
X222317500Y-75500000D02*
X222317500Y-74320000D01*
X222317500Y-75500000D02*
X224082000Y-75500000D01*
X222317500Y-76680000D02*
X222317500Y-75500000D01*
D12*
X213108000Y-75500000D02*
G75*
G02*
X212908000Y-75500000I-100000J0D01*
G01*
X212908000Y-75500000D02*
G75*
G02*
X213108000Y-75500000I100000J0D01*
G01*
D13*
%TO.C,J12*%
X132755000Y-72765000D02*
X133500000Y-72765000D01*
X132755000Y-73500000D02*
X132755000Y-72765000D01*
X132755000Y-74235000D02*
X132755000Y-76110000D01*
X132755000Y-74235000D02*
X132814435Y-74235000D01*
X132755000Y-76110000D02*
X133089970Y-76110000D01*
X133910030Y-76110000D02*
X134245000Y-76110000D01*
X134185565Y-74235000D02*
X134245000Y-74235000D01*
X134245000Y-74235000D02*
X134245000Y-76110000D01*
D11*
%TO.C,D7*%
X217682500Y-93870000D02*
X217682500Y-95050000D01*
X217682500Y-95050000D02*
X215918000Y-95050000D01*
X217682500Y-95050000D02*
X217682500Y-96230000D01*
X217682500Y-96230000D02*
X222317500Y-96230000D01*
X222317500Y-93870000D02*
X217682500Y-93870000D01*
X222317500Y-95050000D02*
X222317500Y-93870000D01*
X222317500Y-95050000D02*
X224082000Y-95050000D01*
X222317500Y-96230000D02*
X222317500Y-95050000D01*
D12*
X213108000Y-95050000D02*
G75*
G02*
X212908000Y-95050000I-100000J0D01*
G01*
X212908000Y-95050000D02*
G75*
G02*
X213108000Y-95050000I100000J0D01*
G01*
D13*
%TO.C,R4*%
X209356359Y-87630000D02*
X209663641Y-87630000D01*
X209356359Y-88390000D02*
X209663641Y-88390000D01*
D11*
%TO.C,D3*%
X217682500Y-78230000D02*
X217682500Y-79410000D01*
X217682500Y-79410000D02*
X215918000Y-79410000D01*
X217682500Y-79410000D02*
X217682500Y-80590000D01*
X217682500Y-80590000D02*
X222317500Y-80590000D01*
X222317500Y-78230000D02*
X217682500Y-78230000D01*
X222317500Y-79410000D02*
X222317500Y-78230000D01*
X222317500Y-79410000D02*
X224082000Y-79410000D01*
X222317500Y-80590000D02*
X222317500Y-79410000D01*
D12*
X213108000Y-79410000D02*
G75*
G02*
X212908000Y-79410000I-100000J0D01*
G01*
X212908000Y-79410000D02*
G75*
G02*
X213108000Y-79410000I100000J0D01*
G01*
D14*
%TO.C,D11*%
X151315000Y-50500000D02*
G75*
G02*
X151215000Y-50500000I-50000J0D01*
G01*
X151215000Y-50500000D02*
G75*
G02*
X151315000Y-50500000I50000J0D01*
G01*
D13*
%TO.C,J17*%
X234755000Y-73765000D02*
X235500000Y-73765000D01*
X234755000Y-74500000D02*
X234755000Y-73765000D01*
X234755000Y-75235000D02*
X234755000Y-76110000D01*
X234755000Y-75235000D02*
X234814435Y-75235000D01*
X234755000Y-76110000D02*
X235089970Y-76110000D01*
X235910030Y-76110000D02*
X236245000Y-76110000D01*
X236185565Y-75235000D02*
X236245000Y-75235000D01*
X236245000Y-75235000D02*
X236245000Y-76110000D01*
%TO.C,J11*%
X132755000Y-67265000D02*
X133500000Y-67265000D01*
X132755000Y-68000000D02*
X132755000Y-67265000D01*
X132755000Y-68735000D02*
X132755000Y-70610000D01*
X132755000Y-68735000D02*
X132814435Y-68735000D01*
X132755000Y-70610000D02*
X133089970Y-70610000D01*
X133910030Y-70610000D02*
X134245000Y-70610000D01*
X134185565Y-68735000D02*
X134245000Y-68735000D01*
X134245000Y-68735000D02*
X134245000Y-70610000D01*
D11*
%TO.C,X1*%
X160055000Y-63015000D02*
X160055000Y-66190000D01*
X160055000Y-68730000D02*
X160055000Y-71905000D01*
X160055000Y-71905000D02*
X166405000Y-71905000D01*
X166405000Y-63015000D02*
X160055000Y-63015000D01*
X166405000Y-71905000D02*
X166405000Y-63015000D01*
D13*
%TO.C,C3*%
X167725000Y-58065000D02*
X168100000Y-58065000D01*
X167912500Y-57877500D02*
X167912500Y-58252500D01*
X168529437Y-58440000D02*
X169229437Y-57740000D01*
X168529437Y-60560000D02*
X169229437Y-61260000D01*
X169229437Y-57740000D02*
X171860000Y-57740000D01*
X169229437Y-61260000D02*
X171860000Y-61260000D01*
X171860000Y-57740000D02*
X171860000Y-58440000D01*
X171860000Y-61260000D02*
X171860000Y-60560000D01*
D11*
%TO.C,D9*%
X217682500Y-101690000D02*
X217682500Y-102870000D01*
X217682500Y-102870000D02*
X215918000Y-102870000D01*
X217682500Y-102870000D02*
X217682500Y-104050000D01*
X217682500Y-104050000D02*
X222317500Y-104050000D01*
X222317500Y-101690000D02*
X217682500Y-101690000D01*
X222317500Y-102870000D02*
X222317500Y-101690000D01*
X222317500Y-102870000D02*
X224082000Y-102870000D01*
X222317500Y-104050000D02*
X222317500Y-102870000D01*
D12*
X213108000Y-102870000D02*
G75*
G02*
X212908000Y-102870000I-100000J0D01*
G01*
X212908000Y-102870000D02*
G75*
G02*
X213108000Y-102870000I100000J0D01*
G01*
D13*
%TO.C,R5*%
X209356359Y-89620000D02*
X209663641Y-89620000D01*
X209356359Y-90380000D02*
X209663641Y-90380000D01*
%TO.C,C6*%
X203625000Y-63565000D02*
X204000000Y-63565000D01*
X203812500Y-63377500D02*
X203812500Y-63752500D01*
X204429437Y-63940000D02*
X205129437Y-63240000D01*
X204429437Y-66060000D02*
X205129437Y-66760000D01*
X205129437Y-63240000D02*
X207760000Y-63240000D01*
X205129437Y-66760000D02*
X207760000Y-66760000D01*
X207760000Y-63240000D02*
X207760000Y-63940000D01*
X207760000Y-66760000D02*
X207760000Y-66060000D01*
%TO.C,C25*%
X160625000Y-81565000D02*
X161000000Y-81565000D01*
X160812500Y-81377500D02*
X160812500Y-81752500D01*
X161429437Y-81940000D02*
X162129437Y-81240000D01*
X161429437Y-84060000D02*
X162129437Y-84760000D01*
X162129437Y-81240000D02*
X164760000Y-81240000D01*
X162129437Y-84760000D02*
X164760000Y-84760000D01*
X164760000Y-81240000D02*
X164760000Y-81940000D01*
X164760000Y-84760000D02*
X164760000Y-84060000D01*
D11*
%TO.C,D5*%
X217682500Y-86050000D02*
X217682500Y-87230000D01*
X217682500Y-87230000D02*
X215918000Y-87230000D01*
X217682500Y-87230000D02*
X217682500Y-88410000D01*
X217682500Y-88410000D02*
X222317500Y-88410000D01*
X222317500Y-86050000D02*
X217682500Y-86050000D01*
X222317500Y-87230000D02*
X222317500Y-86050000D01*
X222317500Y-87230000D02*
X224082000Y-87230000D01*
X222317500Y-88410000D02*
X222317500Y-87230000D01*
D12*
X213108000Y-87230000D02*
G75*
G02*
X212908000Y-87230000I-100000J0D01*
G01*
X212908000Y-87230000D02*
G75*
G02*
X213108000Y-87230000I100000J0D01*
G01*
D11*
%TO.C,CON1*%
X175568000Y-93277000D02*
X175568000Y-105723000D01*
X175568000Y-93277000D02*
X206048000Y-93277000D01*
X182680000Y-97468000D02*
X182730800Y-97061600D01*
X182730800Y-97061600D02*
X182857800Y-96629800D01*
X182730800Y-97823600D02*
X182680000Y-97468000D01*
X182807000Y-98103000D02*
X182730800Y-97823600D01*
X182807000Y-98103000D02*
X184458000Y-102167000D01*
X182857800Y-96629800D02*
X183137200Y-96198000D01*
X183137200Y-96198000D02*
X183391200Y-95918600D01*
X183391200Y-95918600D02*
X183772200Y-95664600D01*
X183772200Y-95664600D02*
X184000800Y-95537600D01*
X184000800Y-95537600D02*
X184305600Y-95461400D01*
X184305600Y-95461400D02*
X184585000Y-95436000D01*
X184585000Y-95436000D02*
X197031000Y-95436000D01*
X184585000Y-102421000D02*
X184458000Y-102167000D01*
X184966000Y-102929000D02*
X184585000Y-102421000D01*
X185220000Y-103183000D02*
X184966000Y-102929000D01*
X185728000Y-103437000D02*
X185220000Y-103183000D01*
X185880400Y-103487800D02*
X185728000Y-103437000D01*
X186159800Y-103538600D02*
X185880400Y-103487800D01*
X186363000Y-103564000D02*
X186159800Y-103538600D01*
X186363000Y-103564000D02*
X195253000Y-103564000D01*
X195253000Y-103564000D02*
X195456200Y-103538600D01*
X195456200Y-103538600D02*
X195735600Y-103487800D01*
X195735600Y-103487800D02*
X195888000Y-103437000D01*
X195888000Y-103437000D02*
X196396000Y-103183000D01*
X196396000Y-103183000D02*
X196650000Y-102929000D01*
X196650000Y-102929000D02*
X197031000Y-102421000D01*
X197031000Y-102421000D02*
X197158000Y-102167000D01*
X197310400Y-95461400D02*
X197031000Y-95436000D01*
X197615200Y-95537600D02*
X197310400Y-95461400D01*
X197843800Y-95664600D02*
X197615200Y-95537600D01*
X198224800Y-95918600D02*
X197843800Y-95664600D01*
X198478800Y-96198000D02*
X198224800Y-95918600D01*
X198758200Y-96629800D02*
X198478800Y-96198000D01*
X198809000Y-98103000D02*
X197158000Y-102167000D01*
X198809000Y-98103000D02*
X198885200Y-97823600D01*
X198885200Y-97061600D02*
X198758200Y-96629800D01*
X198885200Y-97823600D02*
X198936000Y-97468000D01*
X198936000Y-97468000D02*
X198885200Y-97061600D01*
X206048000Y-93277000D02*
X206048000Y-105723000D01*
X206048000Y-105723000D02*
X175568000Y-105723000D01*
X180724200Y-99500000D02*
G75*
G02*
X176507800Y-99500000I-2108200J0D01*
G01*
X176507800Y-99500000D02*
G75*
G02*
X180724200Y-99500000I2108200J0D01*
G01*
X205108200Y-99500000D02*
G75*
G02*
X200891800Y-99500000I-2108200J0D01*
G01*
X200891800Y-99500000D02*
G75*
G02*
X205108200Y-99500000I2108200J0D01*
G01*
D12*
%TO.C,J1*%
X176500000Y-52650000D02*
X176500000Y-38350000D01*
X176500000Y-52650000D02*
X185500000Y-52650000D01*
X178550000Y-38350000D02*
X176500000Y-38350000D01*
X183450000Y-38350000D02*
X185500000Y-38350000D01*
X185500000Y-38350000D02*
X185500000Y-39600000D01*
X185500000Y-52650000D02*
X185500000Y-44100000D01*
X181100000Y-36850000D02*
G75*
G02*
X180900000Y-36850000I-100000J0D01*
G01*
X180900000Y-36850000D02*
G75*
G02*
X181100000Y-36850000I100000J0D01*
G01*
D13*
%TO.C,J13*%
X132755000Y-78265000D02*
X133500000Y-78265000D01*
X132755000Y-79000000D02*
X132755000Y-78265000D01*
X132755000Y-79735000D02*
X132755000Y-81610000D01*
X132755000Y-79735000D02*
X132814435Y-79735000D01*
X132755000Y-81610000D02*
X133089970Y-81610000D01*
X133910030Y-81610000D02*
X134245000Y-81610000D01*
X134185565Y-79735000D02*
X134245000Y-79735000D01*
X134245000Y-79735000D02*
X134245000Y-81610000D01*
%TO.C,J16*%
X234755000Y-69265000D02*
X235500000Y-69265000D01*
X234755000Y-70000000D02*
X234755000Y-69265000D01*
X234755000Y-70735000D02*
X234755000Y-71610000D01*
X234755000Y-70735000D02*
X234814435Y-70735000D01*
X234755000Y-71610000D02*
X235089970Y-71610000D01*
X235910030Y-71610000D02*
X236245000Y-71610000D01*
X236185565Y-70735000D02*
X236245000Y-70735000D01*
X236245000Y-70735000D02*
X236245000Y-71610000D01*
D11*
%TO.C,U3*%
X213400000Y-57450000D02*
X213400000Y-62450000D01*
X233600000Y-57450000D02*
X213400000Y-57450000D01*
X233600000Y-62450000D02*
X233600000Y-57450000D01*
D12*
X214710000Y-68670000D02*
G75*
G02*
X214510000Y-68670000I-100000J0D01*
G01*
X214510000Y-68670000D02*
G75*
G02*
X214710000Y-68670000I100000J0D01*
G01*
D13*
%TO.C,C23*%
X219240000Y-43240000D02*
X219240000Y-43940000D01*
X219240000Y-46760000D02*
X219240000Y-46060000D01*
X221870563Y-43240000D02*
X219240000Y-43240000D01*
X221870563Y-46760000D02*
X219240000Y-46760000D01*
X222570563Y-43940000D02*
X221870563Y-43240000D01*
X222570563Y-46060000D02*
X221870563Y-46760000D01*
X223187500Y-46622500D02*
X223187500Y-46247500D01*
X223375000Y-46435000D02*
X223000000Y-46435000D01*
D11*
%TO.C,J6*%
X150150000Y-91750000D02*
X150150000Y-87750000D01*
X152150000Y-91750000D02*
X150150000Y-91750000D01*
X154400000Y-87750000D02*
X153650000Y-87750000D01*
X157650000Y-91750000D02*
X155650000Y-91750000D01*
X157650000Y-91750000D02*
X157650000Y-89000000D01*
D15*
X149700800Y-89250000D02*
G75*
G02*
X149599200Y-89250000I-50800J0D01*
G01*
X149599200Y-89250000D02*
G75*
G02*
X149700800Y-89250000I50800J0D01*
G01*
D13*
%TO.C,C1*%
X166800000Y-43940000D02*
X167300000Y-43940000D01*
X167050000Y-43690000D02*
X167050000Y-44190000D01*
X167540000Y-44304437D02*
X167540000Y-44440000D01*
X167540000Y-44304437D02*
X168604437Y-43240000D01*
X167540000Y-46695563D02*
X167540000Y-46560000D01*
X167540000Y-46695563D02*
X168604437Y-47760000D01*
X168604437Y-43240000D02*
X172060000Y-43240000D01*
X168604437Y-47760000D02*
X172060000Y-47760000D01*
X172060000Y-43240000D02*
X172060000Y-44440000D01*
X172060000Y-47760000D02*
X172060000Y-46560000D01*
%TO.C,BZ1*%
X163800000Y-46000000D02*
G75*
G02*
X151600000Y-46000000I-6100000J0D01*
G01*
X151600000Y-46000000D02*
G75*
G02*
X163800000Y-46000000I6100000J0D01*
G01*
D11*
%TO.C,U5*%
X174975000Y-78260000D02*
X178975000Y-78260000D01*
X174975000Y-88390000D02*
X178975000Y-88390000D01*
D12*
X172630000Y-78280000D02*
G75*
G02*
X172430000Y-78280000I-100000J0D01*
G01*
X172430000Y-78280000D02*
G75*
G02*
X172630000Y-78280000I100000J0D01*
G01*
D11*
%TO.C,U6*%
X166225000Y-94000000D02*
X169775000Y-94000000D01*
X166225000Y-104000000D02*
X169775000Y-104000000D01*
D12*
X165350000Y-93245000D02*
G75*
G02*
X165150000Y-93245000I-100000J0D01*
G01*
X165150000Y-93245000D02*
G75*
G02*
X165350000Y-93245000I100000J0D01*
G01*
D11*
%TO.C,D4*%
X217682500Y-82140000D02*
X217682500Y-83320000D01*
X217682500Y-83320000D02*
X215918000Y-83320000D01*
X217682500Y-83320000D02*
X217682500Y-84500000D01*
X217682500Y-84500000D02*
X222317500Y-84500000D01*
X222317500Y-82140000D02*
X217682500Y-82140000D01*
X222317500Y-83320000D02*
X222317500Y-82140000D01*
X222317500Y-83320000D02*
X224082000Y-83320000D01*
X222317500Y-84500000D02*
X222317500Y-83320000D01*
D12*
X213108000Y-83320000D02*
G75*
G02*
X212908000Y-83320000I-100000J0D01*
G01*
X212908000Y-83320000D02*
G75*
G02*
X213108000Y-83320000I100000J0D01*
G01*
D11*
%TO.C,Y1*%
X140500000Y-50810000D02*
X140500000Y-44310000D01*
X145500000Y-50810000D02*
X145500000Y-44310000D01*
X140500000Y-44310000D02*
G75*
G02*
X143000000Y-41810000I2500000J0D01*
G01*
X143000000Y-41810000D02*
G75*
G02*
X145500000Y-44310000I0J-2500000D01*
G01*
X143000000Y-53310000D02*
G75*
G02*
X140500000Y-50810000I0J2500000D01*
G01*
X145500000Y-50810000D02*
G75*
G02*
X143000000Y-53310000I-2500000J0D01*
G01*
%TO.C,D8*%
X217682500Y-97780000D02*
X217682500Y-98960000D01*
X217682500Y-98960000D02*
X215918000Y-98960000D01*
X217682500Y-98960000D02*
X217682500Y-100140000D01*
X217682500Y-100140000D02*
X222317500Y-100140000D01*
X222317500Y-97780000D02*
X217682500Y-97780000D01*
X222317500Y-98960000D02*
X222317500Y-97780000D01*
X222317500Y-98960000D02*
X224082000Y-98960000D01*
X222317500Y-100140000D02*
X222317500Y-98960000D01*
D12*
X213108000Y-98960000D02*
G75*
G02*
X212908000Y-98960000I-100000J0D01*
G01*
X212908000Y-98960000D02*
G75*
G02*
X213108000Y-98960000I100000J0D01*
G01*
D11*
%TO.C,Y2*%
X158450000Y-95150000D02*
X147050000Y-95150000D01*
X158450000Y-99850000D02*
X147050000Y-99850000D01*
D13*
%TO.C,J20*%
X234755000Y-83765000D02*
X235500000Y-83765000D01*
X234755000Y-84500000D02*
X234755000Y-83765000D01*
X234755000Y-85235000D02*
X234755000Y-85110000D01*
X234755000Y-85235000D02*
X234814435Y-85235000D01*
X234755000Y-85235000D02*
X236245000Y-85235000D01*
X236185565Y-85235000D02*
X236245000Y-85235000D01*
X236245000Y-85235000D02*
X236245000Y-85110000D01*
%TO.C,R1*%
X145643641Y-88620000D02*
X145336359Y-88620000D01*
X145643641Y-89380000D02*
X145336359Y-89380000D01*
%TO.C,C22*%
X225125000Y-43565000D02*
X225500000Y-43565000D01*
X225312500Y-43377500D02*
X225312500Y-43752500D01*
X225929437Y-43940000D02*
X226629437Y-43240000D01*
X225929437Y-46060000D02*
X226629437Y-46760000D01*
X226629437Y-43240000D02*
X229260000Y-43240000D01*
X226629437Y-46760000D02*
X229260000Y-46760000D01*
X229260000Y-43240000D02*
X229260000Y-43940000D01*
X229260000Y-46760000D02*
X229260000Y-46060000D01*
%TO.C,R7*%
X209356359Y-93600000D02*
X209663641Y-93600000D01*
X209356359Y-94360000D02*
X209663641Y-94360000D01*
%TO.C,J9*%
X234755000Y-62765000D02*
X235500000Y-62765000D01*
X234755000Y-63500000D02*
X234755000Y-62765000D01*
X234755000Y-64235000D02*
X234755000Y-67110000D01*
X234755000Y-64235000D02*
X234814435Y-64235000D01*
X234755000Y-67110000D02*
X235089970Y-67110000D01*
X235910030Y-67110000D02*
X236245000Y-67110000D01*
X236185565Y-64235000D02*
X236245000Y-64235000D01*
X236245000Y-64235000D02*
X236245000Y-67110000D01*
%TO.C,J21*%
X234755000Y-86815000D02*
X235500000Y-86815000D01*
X234755000Y-87550000D02*
X234755000Y-86815000D01*
X234755000Y-88285000D02*
X234755000Y-88160000D01*
X234755000Y-88285000D02*
X234814435Y-88285000D01*
X234755000Y-88285000D02*
X236245000Y-88285000D01*
X236185565Y-88285000D02*
X236245000Y-88285000D01*
X236245000Y-88285000D02*
X236245000Y-88160000D01*
%TO.C,J8*%
X132755000Y-61765000D02*
X133500000Y-61765000D01*
X132755000Y-62500000D02*
X132755000Y-61765000D01*
X132755000Y-63235000D02*
X132755000Y-65110000D01*
X132755000Y-63235000D02*
X132814435Y-63235000D01*
X132755000Y-65110000D02*
X133089970Y-65110000D01*
X133910030Y-65110000D02*
X134245000Y-65110000D01*
X134185565Y-63235000D02*
X134245000Y-63235000D01*
X134245000Y-63235000D02*
X134245000Y-65110000D01*
D11*
%TO.C,D6*%
X217682500Y-89960000D02*
X217682500Y-91140000D01*
X217682500Y-91140000D02*
X215918000Y-91140000D01*
X217682500Y-91140000D02*
X217682500Y-92320000D01*
X217682500Y-92320000D02*
X222317500Y-92320000D01*
X222317500Y-89960000D02*
X217682500Y-89960000D01*
X222317500Y-91140000D02*
X222317500Y-89960000D01*
X222317500Y-91140000D02*
X224082000Y-91140000D01*
X222317500Y-92320000D02*
X222317500Y-91140000D01*
D12*
X213108000Y-91140000D02*
G75*
G02*
X212908000Y-91140000I-100000J0D01*
G01*
X212908000Y-91140000D02*
G75*
G02*
X213108000Y-91140000I100000J0D01*
G01*
D13*
%TO.C,J10*%
X152755000Y-64265000D02*
X153500000Y-64265000D01*
X152755000Y-65000000D02*
X152755000Y-64265000D01*
X152755000Y-65735000D02*
X152755000Y-70610000D01*
X152755000Y-65735000D02*
X152814435Y-65735000D01*
X152755000Y-70610000D02*
X153089970Y-70610000D01*
X153910030Y-70610000D02*
X154245000Y-70610000D01*
X154185565Y-65735000D02*
X154245000Y-65735000D01*
X154245000Y-65735000D02*
X154245000Y-70610000D01*
D11*
%TO.C,F1*%
X190920000Y-38150000D02*
X190920000Y-41680000D01*
X190920000Y-38150000D02*
X215080000Y-38150000D01*
X190920000Y-47850000D02*
X190920000Y-44320000D01*
X190920000Y-47850000D02*
X215080000Y-47850000D01*
X215080000Y-38150000D02*
X215080000Y-41680000D01*
X215080000Y-47850000D02*
X215080000Y-44320000D01*
%TO.C,U4*%
X214190000Y-50640000D02*
X214190000Y-55340000D01*
X214190000Y-55340000D02*
X224730000Y-55340000D01*
X224730000Y-50640000D02*
X214190000Y-50640000D01*
X224730000Y-55340000D02*
X224730000Y-50640000D01*
D12*
X217020000Y-56040000D02*
G75*
G02*
X216820000Y-56040000I-100000J0D01*
G01*
X216820000Y-56040000D02*
G75*
G02*
X217020000Y-56040000I100000J0D01*
G01*
D13*
%TO.C,J2*%
X132755000Y-39765000D02*
X133500000Y-39765000D01*
X132755000Y-40500000D02*
X132755000Y-39765000D01*
X132755000Y-41235000D02*
X132755000Y-43110000D01*
X132755000Y-41235000D02*
X132814435Y-41235000D01*
X132755000Y-43110000D02*
X133089970Y-43110000D01*
X133910030Y-43110000D02*
X134245000Y-43110000D01*
X134185565Y-41235000D02*
X134245000Y-41235000D01*
X134245000Y-41235000D02*
X134245000Y-43110000D01*
%TO.C,J5*%
X132755000Y-56265000D02*
X133500000Y-56265000D01*
X132755000Y-57000000D02*
X132755000Y-56265000D01*
X132755000Y-57735000D02*
X132755000Y-59610000D01*
X132755000Y-57735000D02*
X132814435Y-57735000D01*
X132755000Y-59610000D02*
X133089970Y-59610000D01*
X133910030Y-59610000D02*
X134245000Y-59610000D01*
X134185565Y-57735000D02*
X134245000Y-57735000D01*
X134245000Y-57735000D02*
X134245000Y-59610000D01*
D14*
%TO.C,D10*%
X232867500Y-48000000D02*
G75*
G02*
X232767500Y-48000000I-50000J0D01*
G01*
X232767500Y-48000000D02*
G75*
G02*
X232867500Y-48000000I50000J0D01*
G01*
D13*
%TO.C,R8*%
X233846359Y-44620000D02*
X234153641Y-44620000D01*
X233846359Y-45380000D02*
X234153641Y-45380000D01*
%TO.C,C2*%
X167725000Y-51565000D02*
X168100000Y-51565000D01*
X167912500Y-51377500D02*
X167912500Y-51752500D01*
X168529437Y-51940000D02*
X169229437Y-51240000D01*
X168529437Y-54060000D02*
X169229437Y-54760000D01*
X169229437Y-51240000D02*
X171860000Y-51240000D01*
X169229437Y-54760000D02*
X171860000Y-54760000D01*
X171860000Y-51240000D02*
X171860000Y-51940000D01*
X171860000Y-54760000D02*
X171860000Y-54060000D01*
%TO.C,R2*%
X149836359Y-53620000D02*
X150143641Y-53620000D01*
X149836359Y-54380000D02*
X150143641Y-54380000D01*
%TO.C,C5*%
X196740000Y-63240000D02*
X196740000Y-63940000D01*
X196740000Y-66760000D02*
X196740000Y-66060000D01*
X199370563Y-63240000D02*
X196740000Y-63240000D01*
X199370563Y-66760000D02*
X196740000Y-66760000D01*
X200070563Y-63940000D02*
X199370563Y-63240000D01*
X200070563Y-66060000D02*
X199370563Y-66760000D01*
X200687500Y-66622500D02*
X200687500Y-66247500D01*
X200875000Y-66435000D02*
X200500000Y-66435000D01*
%TO.C,SW1*%
X147250000Y-78000000D02*
X147250000Y-79500000D01*
X148500000Y-82000000D02*
X153000000Y-82000000D01*
X153000000Y-75500000D02*
X148500000Y-75500000D01*
X154250000Y-79500000D02*
X154250000Y-78000000D01*
%TO.C,J19*%
X234755000Y-78265000D02*
X235500000Y-78265000D01*
X234755000Y-79000000D02*
X234755000Y-78265000D01*
X234755000Y-79735000D02*
X234755000Y-81610000D01*
X234755000Y-79735000D02*
X234814435Y-79735000D01*
X234755000Y-81610000D02*
X235089970Y-81610000D01*
X235910030Y-81610000D02*
X236245000Y-81610000D01*
X236185565Y-79735000D02*
X236245000Y-79735000D01*
X236245000Y-79735000D02*
X236245000Y-81610000D01*
%TO.C,R6*%
X209356359Y-91610000D02*
X209663641Y-91610000D01*
X209356359Y-92370000D02*
X209663641Y-92370000D01*
%TO.C,J18*%
X227265000Y-54245000D02*
X227265000Y-53500000D01*
X228000000Y-54245000D02*
X227265000Y-54245000D01*
X228735000Y-52755000D02*
X229610000Y-52755000D01*
X228735000Y-52814435D02*
X228735000Y-52755000D01*
X228735000Y-54245000D02*
X228735000Y-54185565D01*
X228735000Y-54245000D02*
X229610000Y-54245000D01*
X229610000Y-53089970D02*
X229610000Y-52755000D01*
X229610000Y-54245000D02*
X229610000Y-53910030D01*
%TO.C,J4*%
X132755000Y-50765000D02*
X133500000Y-50765000D01*
X132755000Y-51500000D02*
X132755000Y-50765000D01*
X132755000Y-52235000D02*
X132755000Y-54110000D01*
X132755000Y-52235000D02*
X132814435Y-52235000D01*
X132755000Y-54110000D02*
X133089970Y-54110000D01*
X133910030Y-54110000D02*
X134245000Y-54110000D01*
X134185565Y-52235000D02*
X134245000Y-52235000D01*
X134245000Y-52235000D02*
X134245000Y-54110000D01*
%TO.C,J3*%
X132755000Y-45265000D02*
X133500000Y-45265000D01*
X132755000Y-46000000D02*
X132755000Y-45265000D01*
X132755000Y-46735000D02*
X132755000Y-48610000D01*
X132755000Y-46735000D02*
X132814435Y-46735000D01*
X132755000Y-48610000D02*
X133089970Y-48610000D01*
X133910030Y-48610000D02*
X134245000Y-48610000D01*
X134185565Y-46735000D02*
X134245000Y-46735000D01*
X134245000Y-46735000D02*
X134245000Y-48610000D01*
D11*
%TO.C,D1*%
X180182500Y-55320000D02*
X180182500Y-56500000D01*
X180182500Y-56500000D02*
X178418000Y-56500000D01*
X180182500Y-56500000D02*
X180182500Y-57680000D01*
X180182500Y-57680000D02*
X184817500Y-57680000D01*
X184817500Y-55320000D02*
X180182500Y-55320000D01*
X184817500Y-56500000D02*
X184817500Y-55320000D01*
X184817500Y-56500000D02*
X186582000Y-56500000D01*
X184817500Y-57680000D02*
X184817500Y-56500000D01*
D12*
X175608000Y-56500000D02*
G75*
G02*
X175408000Y-56500000I-100000J0D01*
G01*
X175408000Y-56500000D02*
G75*
G02*
X175608000Y-56500000I100000J0D01*
G01*
D11*
%TO.C,U2*%
X190800000Y-79830000D02*
X190800000Y-79935000D01*
X190800000Y-79830000D02*
X190905000Y-79830000D01*
X190800000Y-86830000D02*
X190800000Y-86725000D01*
X190800000Y-86830000D02*
X190905000Y-86830000D01*
X197800000Y-79830000D02*
X197695000Y-79830000D01*
X197800000Y-79830000D02*
X197800000Y-79935000D01*
X197800000Y-86830000D02*
X197695000Y-86830000D01*
X197800000Y-86830000D02*
X197800000Y-86725000D01*
D12*
X200240000Y-86130000D02*
G75*
G02*
X200040000Y-86130000I-100000J0D01*
G01*
X200040000Y-86130000D02*
G75*
G02*
X200240000Y-86130000I100000J0D01*
G01*
%TD*%
M02*
