%TF.GenerationSoftware,KiCad,Pcbnew,9.0.1*%
%TF.CreationDate,2026-02-02T13:33:26+05:30*%
%TF.ProjectId,robotics_controller,726f626f-7469-4637-935f-636f6e74726f,rev?*%
%TF.SameCoordinates,Original*%
%TF.FileFunction,Paste,Top*%
%TF.FilePolarity,Positive*%
%FSLAX46Y46*%
G04 Gerber Fmt 4.6, Leading zero omitted, Abs format (unit mm)*
G04 Created by KiCad (PCBNEW 9.0.1) date 2026-02-02 13:33:26*
%MOMM*%
%LPD*%
G01*
G04 APERTURE LIST*
G04 Aperture macros list*
%AMRoundRect*
0 Rectangle with rounded corners*
0 $1 Rounding radius*
0 $2 $3 $4 $5 $6 $7 $8 $9 X,Y pos of 4 corners*
0 Add a 4 corners polygon primitive as box body*
4,1,4,$2,$3,$4,$5,$6,$7,$8,$9,$2,$3,0*
0 Add four circle primitives for the rounded corners*
1,1,$1+$1,$2,$3*
1,1,$1+$1,$4,$5*
1,1,$1+$1,$6,$7*
1,1,$1+$1,$8,$9*
0 Add four rect primitives between the rounded corners*
20,1,$1+$1,$2,$3,$4,$5,0*
20,1,$1+$1,$4,$5,$6,$7,0*
20,1,$1+$1,$6,$7,$8,$9,0*
20,1,$1+$1,$8,$9,$2,$3,0*%
G04 Aperture macros list end*
%ADD10RoundRect,0.069750X0.395250X-0.585250X0.395250X0.585250X-0.395250X0.585250X-0.395250X-0.585250X0*%
%ADD11RoundRect,0.098250X1.521750X-0.556750X1.521750X0.556750X-1.521750X0.556750X-1.521750X-0.556750X0*%
%ADD12RoundRect,0.079500X-0.079500X-0.100500X0.079500X-0.100500X0.079500X0.100500X-0.079500X0.100500X0*%
%ADD13R,2.200000X1.600000*%
%ADD14RoundRect,0.067500X-0.067500X-0.067500X0.067500X-0.067500X0.067500X0.067500X-0.067500X0.067500X0*%
%ADD15RoundRect,0.135000X-0.135000X-0.185000X0.135000X-0.185000X0.135000X0.185000X-0.135000X0.185000X0*%
%ADD16RoundRect,0.160000X0.222500X0.160000X-0.222500X0.160000X-0.222500X-0.160000X0.222500X-0.160000X0*%
%ADD17RoundRect,0.250000X-1.050000X-0.550000X1.050000X-0.550000X1.050000X0.550000X-1.050000X0.550000X0*%
%ADD18RoundRect,0.075000X-0.910000X-0.225000X0.910000X-0.225000X0.910000X0.225000X-0.910000X0.225000X0*%
%ADD19RoundRect,0.077500X-0.577500X-0.232500X0.577500X-0.232500X0.577500X0.232500X-0.577500X0.232500X0*%
%ADD20R,5.600000X2.100000*%
%ADD21RoundRect,0.135000X0.135000X0.185000X-0.135000X0.185000X-0.135000X-0.185000X0.135000X-0.185000X0*%
%ADD22RoundRect,0.160000X-0.222500X-0.160000X0.222500X-0.160000X0.222500X0.160000X-0.222500X0.160000X0*%
%ADD23RoundRect,0.068750X0.666250X0.206250X-0.666250X0.206250X-0.666250X-0.206250X0.666250X-0.206250X0*%
%ADD24RoundRect,0.068750X0.206250X0.666250X-0.206250X0.666250X-0.206250X-0.666250X0.206250X-0.666250X0*%
G04 APERTURE END LIST*
D10*
%TO.C,U1*%
X198210000Y-57845000D03*
X200500000Y-57845000D03*
X202790000Y-57845000D03*
D11*
X200500000Y-51155000D03*
%TD*%
D12*
%TO.C,C20*%
X155155000Y-102000000D03*
X155845000Y-102000000D03*
%TD*%
D13*
%TO.C,C26*%
X161500000Y-87850000D03*
X164500000Y-87850000D03*
%TD*%
%TO.C,C24*%
X161500000Y-78150000D03*
X164500000Y-78150000D03*
%TD*%
D14*
%TO.C,C8*%
X141175000Y-87500000D03*
X141725000Y-87500000D03*
%TD*%
%TO.C,C16*%
X143950000Y-64000000D03*
X144500000Y-64000000D03*
%TD*%
%TO.C,C15*%
X143700000Y-62000000D03*
X144250000Y-62000000D03*
%TD*%
%TO.C,C17*%
X143950000Y-66000000D03*
X144500000Y-66000000D03*
%TD*%
D15*
%TO.C,R4*%
X209000000Y-88010000D03*
X210020000Y-88010000D03*
%TD*%
D12*
%TO.C,C12*%
X191310000Y-71250000D03*
X192000000Y-71250000D03*
%TD*%
D16*
%TO.C,D11*%
X150572500Y-50500000D03*
X149427500Y-50500000D03*
%TD*%
D12*
%TO.C,C13*%
X191310000Y-73000000D03*
X192000000Y-73000000D03*
%TD*%
D14*
%TO.C,C9*%
X145450000Y-85500000D03*
X146000000Y-85500000D03*
%TD*%
%TO.C,C10*%
X180975000Y-91000000D03*
X181525000Y-91000000D03*
%TD*%
%TO.C,C4*%
X170975000Y-65000000D03*
X171525000Y-65000000D03*
%TD*%
D13*
%TO.C,C3*%
X168600000Y-59500000D03*
X171600000Y-59500000D03*
%TD*%
D15*
%TO.C,R5*%
X209000000Y-90000000D03*
X210020000Y-90000000D03*
%TD*%
D13*
%TO.C,C6*%
X204500000Y-65000000D03*
X207500000Y-65000000D03*
%TD*%
%TO.C,C25*%
X161500000Y-83000000D03*
X164500000Y-83000000D03*
%TD*%
D14*
%TO.C,C7*%
X205475000Y-68500000D03*
X206025000Y-68500000D03*
%TD*%
D13*
%TO.C,C23*%
X222500000Y-45000000D03*
X219500000Y-45000000D03*
%TD*%
D17*
%TO.C,C1*%
X168000000Y-45500000D03*
X171600000Y-45500000D03*
%TD*%
D14*
%TO.C,C14*%
X141175000Y-89500000D03*
X141725000Y-89500000D03*
%TD*%
D18*
%TO.C,U5*%
X174500000Y-78880000D03*
X174500000Y-80150000D03*
X174500000Y-81420000D03*
X174500000Y-82690000D03*
X174500000Y-83960000D03*
X174500000Y-85230000D03*
X174500000Y-86500000D03*
X174500000Y-87770000D03*
X179450000Y-87770000D03*
X179450000Y-86500000D03*
X179450000Y-85230000D03*
X179450000Y-83960000D03*
X179450000Y-82690000D03*
X179450000Y-81420000D03*
X179450000Y-80150000D03*
X179450000Y-78880000D03*
%TD*%
D19*
%TO.C,U6*%
X165250000Y-94555000D03*
X165250000Y-95825000D03*
X165250000Y-97095000D03*
X165250000Y-98365000D03*
X165250000Y-99635000D03*
X165250000Y-100905000D03*
X165250000Y-102175000D03*
X165250000Y-103445000D03*
X170750000Y-103445000D03*
X170750000Y-102175000D03*
X170750000Y-100905000D03*
X170750000Y-99635000D03*
X170750000Y-98365000D03*
X170750000Y-97095000D03*
X170750000Y-95825000D03*
X170750000Y-94555000D03*
%TD*%
D14*
%TO.C,C11*%
X140950000Y-85500000D03*
X141500000Y-85500000D03*
%TD*%
D20*
%TO.C,Y2*%
X157500000Y-97500000D03*
X148000000Y-97500000D03*
%TD*%
D21*
%TO.C,R1*%
X146000000Y-89000000D03*
X144980000Y-89000000D03*
%TD*%
D13*
%TO.C,C22*%
X226000000Y-45000000D03*
X229000000Y-45000000D03*
%TD*%
D15*
%TO.C,R7*%
X209000000Y-93980000D03*
X210020000Y-93980000D03*
%TD*%
D14*
%TO.C,C21*%
X161475000Y-102000000D03*
X162025000Y-102000000D03*
%TD*%
D22*
%TO.C,D10*%
X233510000Y-48000000D03*
X234655000Y-48000000D03*
%TD*%
D15*
%TO.C,R8*%
X233490000Y-45000000D03*
X234510000Y-45000000D03*
%TD*%
D13*
%TO.C,C2*%
X168600000Y-53000000D03*
X171600000Y-53000000D03*
%TD*%
D15*
%TO.C,R2*%
X149480000Y-54000000D03*
X150500000Y-54000000D03*
%TD*%
D12*
%TO.C,C19*%
X158835000Y-102000000D03*
X159525000Y-102000000D03*
%TD*%
D13*
%TO.C,C5*%
X200000000Y-65000000D03*
X197000000Y-65000000D03*
%TD*%
D15*
%TO.C,R6*%
X209000000Y-91990000D03*
X210020000Y-91990000D03*
%TD*%
D23*
%TO.C,U2*%
X198470000Y-86130000D03*
X198470000Y-85330000D03*
X198470000Y-84530000D03*
X198470000Y-83730000D03*
X198470000Y-82930000D03*
X198470000Y-82130000D03*
X198470000Y-81330000D03*
X198470000Y-80530000D03*
D24*
X197100000Y-79160000D03*
X196300000Y-79160000D03*
X195500000Y-79160000D03*
X194700000Y-79160000D03*
X193900000Y-79160000D03*
X193100000Y-79160000D03*
X192300000Y-79160000D03*
X191500000Y-79160000D03*
D23*
X190130000Y-80530000D03*
X190130000Y-81330000D03*
X190130000Y-82130000D03*
X190130000Y-82930000D03*
X190130000Y-83730000D03*
X190130000Y-84530000D03*
X190130000Y-85330000D03*
X190130000Y-86130000D03*
D24*
X191500000Y-87500000D03*
X192300000Y-87500000D03*
X193100000Y-87500000D03*
X193900000Y-87500000D03*
X194700000Y-87500000D03*
X195500000Y-87500000D03*
X196300000Y-87500000D03*
X197100000Y-87500000D03*
%TD*%
M02*
