M48
; DRILL file {KiCad 9.0.1} date 2026-02-02T13:33:33+0530
; FORMAT={-:-/ absolute / metric / decimal}
; #@! TF.CreationDate,2026-02-02T13:33:33+05:30
; #@! TF.GenerationSoftware,Kicad,Pcbnew,9.0.1
; #@! TF.FileFunction,Plated,1,2,PTH
FMAT,2
METRIC
; #@! TA.AperFunction,Plated,PTH,ViaDrill
T1C0.100
; #@! TA.AperFunction,Plated,PTH,ComponentDrill
T2C0.500
; #@! TA.AperFunction,Plated,PTH,ComponentDrill
T3C0.657
; #@! TA.AperFunction,Plated,PTH,ComponentDrill
T4C0.700
; #@! TA.AperFunction,Plated,PTH,ComponentDrill
T5C1.000
; #@! TA.AperFunction,Plated,PTH,ComponentDrill
T6C1.016
; #@! TA.AperFunction,Plated,PTH,ComponentDrill
T7C1.060
; #@! TA.AperFunction,Plated,PTH,ComponentDrill
T8C1.080
; #@! TA.AperFunction,Plated,PTH,ComponentDrill
T9C1.100
; #@! TA.AperFunction,Plated,PTH,ComponentDrill
T10C1.240
; #@! TA.AperFunction,Plated,PTH,ComponentDrill
T11C1.500
%
G90
G05
T1
X134.5Y-52.0
X134.5Y-62.5
X134.5Y-68.5
X134.5Y-74.0
X134.982Y-57.482
X135.0Y-47.0
X135.5Y-76.5
X135.5Y-80.0
X136.5Y-80.0
X139.0Y-73.5
X139.0Y-78.0
X139.0Y-80.5
X140.0Y-82.5
X140.0Y-83.5
X140.5Y-86.5
X141.0Y-88.5
X141.5Y-83.5
X142.5Y-86.5
X143.0Y-63.5
X143.0Y-66.0
X143.0Y-81.0
X143.5Y-61.0
X144.0Y-60.0
X144.0Y-65.0
X144.0Y-76.5
X145.5Y-83.0
X145.5Y-83.5
X145.5Y-88.0
X146.0Y-59.5
X148.0Y-44.0
X148.5Y-56.5
X149.5Y-64.5
X151.5Y-71.0
X152.0Y-90.5
X153.9Y-89.25
X154.0Y-88.5
X154.414Y-72.586
X154.5Y-74.0
X155.0Y-54.0
X155.49Y-73.583
X155.5Y-74.0
X155.55Y-73.086
X156.0Y-93.5
X157.5Y-71.5
X158.0Y-73.0
X158.0Y-100.0
X158.0Y-102.0
X158.068Y-69.932
X160.0Y-59.5
X161.0Y-92.5
X161.0Y-102.0
X162.0Y-94.0
X162.0Y-95.5
X162.5Y-98.5
X163.5Y-94.0
X163.5Y-95.005
X164.0Y-62.5
X164.0Y-71.5
X164.5Y-72.0
X166.5Y-60.5
X166.5Y-61.5
X166.621Y-61.985
X167.0Y-72.0
X167.0Y-94.5
X167.0Y-96.5
X167.5Y-62.5
X168.0Y-68.5
X168.0Y-73.0
X169.898Y-67.102
X170.0Y-85.0
X170.5Y-72.0
X170.5Y-76.5
X170.5Y-93.5
X171.0Y-80.5
X171.5Y-55.5
X171.5Y-57.0
X171.5Y-86.5
X171.932Y-73.068
X172.0Y-90.0
X172.5Y-55.5
X172.5Y-57.0
X172.5Y-95.825
X173.0Y-76.5
X173.5Y-72.0
X174.0Y-56.0
X174.0Y-73.5
X174.0Y-92.5
X174.5Y-89.0
X175.0Y-57.5
X175.0Y-60.0
X175.5Y-62.0
X175.55Y-73.414
X176.5Y-71.0
X177.0Y-60.5
X177.5Y-66.0
X177.5Y-84.0
X177.5Y-86.0
X178.0Y-70.5
X178.0Y-76.5
X178.5Y-72.0
X178.5Y-72.5
X178.5Y-75.5
X178.5Y-76.5
X178.5Y-77.0
X178.97Y-71.0
X178.97Y-74.5
X178.97Y-75.0
X180.5Y-70.5
X180.5Y-72.0
X180.5Y-73.5
X180.5Y-89.5
X181.0Y-76.5
X181.5Y-76.0
X181.5Y-77.5
X181.5Y-84.5
X182.0Y-65.5
X182.0Y-84.0
X182.0Y-87.0
X182.0Y-90.0
X182.432Y-77.568
X182.5Y-78.43
X182.5Y-88.5
X182.5Y-90.5
X182.5Y-93.0
X183.0Y-87.5
X183.5Y-61.0
X183.5Y-78.43
X183.5Y-87.0
X183.95Y-86.586
X184.0Y-73.5
X184.0Y-92.0
X184.05Y-80.5
X184.5Y-68.0
X185.0Y-82.0
X186.0Y-78.5
X186.0Y-83.0
X186.0Y-86.0
X186.0Y-88.5
X186.5Y-71.0
X186.5Y-80.5
X186.5Y-82.5
X186.5Y-84.5
X186.5Y-87.0
X186.5Y-92.0
X187.0Y-78.5
X187.0Y-83.0
X187.0Y-84.5
X187.5Y-71.5
X187.5Y-78.0
X187.5Y-85.0
X187.95Y-82.48
X188.0Y-77.0
X188.0Y-84.18
X188.0Y-86.0
X188.5Y-76.5
X188.5Y-82.0
X189.068Y-78.432
X189.5Y-78.0
X189.5Y-79.0
X190.0Y-87.5
X191.0Y-76.599
X191.5Y-63.0
X191.5Y-90.0
X192.0Y-77.5
X192.0Y-89.5
X192.5Y-61.0
X192.5Y-73.55
X192.5Y-89.5
X192.5Y-91.5
X193.0Y-76.5
X193.0Y-77.5
X193.0Y-90.0
X193.5Y-61.0
X193.5Y-62.5
X194.0Y-73.0
X194.0Y-77.5
X194.0Y-84.5
X194.0Y-86.0
X194.0Y-90.0
X195.5Y-63.0
X195.5Y-89.0
X196.0Y-75.5
X196.0Y-77.0
X196.0Y-83.0
X196.432Y-74.568
X196.5Y-77.5
X196.5Y-89.5
X197.0Y-60.5
X197.256Y-82.58
X197.5Y-74.0
X197.5Y-77.0
X198.0Y-61.0
X198.0Y-75.5
X198.0Y-92.5
X198.068Y-77.068
X198.5Y-90.5
X199.0Y-74.5
X199.0Y-92.5
X199.5Y-60.5
X199.568Y-92.432
X200.0Y-75.5
X200.0Y-92.0
X200.5Y-63.0
X200.5Y-79.5
X200.5Y-83.0
X200.5Y-84.5
X200.5Y-91.5
X201.0Y-71.5
X202.0Y-84.5
X202.5Y-61.0
X202.5Y-71.0
X203.0Y-84.5
X203.5Y-61.5
X203.5Y-62.5
X204.432Y-87.932
X204.5Y-84.5
X207.5Y-87.5
X209.5Y-70.5
X210.5Y-56.0
X210.5Y-64.0
X210.5Y-65.5
X211.0Y-66.0
X211.0Y-70.0
X211.5Y-72.0
X212.0Y-76.5
X212.0Y-86.0
X212.5Y-66.5
X213.5Y-71.0
X215.0Y-69.5
X215.5Y-65.0
X215.5Y-72.0
X216.0Y-63.5
X216.0Y-77.5
X216.5Y-71.0
X217.0Y-59.0
X219.0Y-58.5
X219.5Y-65.5
X220.5Y-55.0
X221.0Y-68.5
X221.0Y-70.0
X222.0Y-56.0
X222.5Y-59.5
X223.0Y-65.5
X223.5Y-58.0
X223.5Y-68.0
X223.5Y-69.0
X223.5Y-69.5
X224.5Y-57.0
X224.5Y-64.0
X224.5Y-66.0
X225.0Y-60.0
X225.5Y-65.5
X225.568Y-63.432
X226.0Y-73.5
X226.5Y-47.5
X227.0Y-50.0
X227.0Y-61.0
X227.0Y-70.5
X227.5Y-71.5
X228.5Y-76.5
X229.5Y-71.5
X229.5Y-77.0
X230.0Y-65.5
X230.5Y-65.0
X230.5Y-69.0
X231.0Y-46.0
X231.0Y-65.5
X232.0Y-48.0
X232.0Y-69.0
X232.0Y-74.0
X232.0Y-79.5
X233.0Y-59.5
X233.0Y-79.5
X233.5Y-64.0
X234.0Y-58.5
X234.0Y-75.0
X234.0Y-77.5
X234.0Y-78.0
X234.068Y-81.068
X235.0Y-61.0
X235.5Y-73.0
T2
X133.5Y-40.5
X133.5Y-41.5
X133.5Y-42.5
X133.5Y-46.0
X133.5Y-47.0
X133.5Y-48.0
X133.5Y-51.5
X133.5Y-52.5
X133.5Y-53.5
X133.5Y-57.0
X133.5Y-58.0
X133.5Y-59.0
X133.5Y-62.5
X133.5Y-63.5
X133.5Y-64.5
X133.5Y-68.0
X133.5Y-69.0
X133.5Y-70.0
X133.5Y-73.5
X133.5Y-74.5
X133.5Y-75.5
X133.5Y-79.0
X133.5Y-80.0
X133.5Y-81.0
X153.5Y-65.0
X153.5Y-66.0
X153.5Y-67.0
X153.5Y-68.0
X153.5Y-69.0
X153.5Y-70.0
X228.0Y-53.5
X229.0Y-53.5
X235.5Y-58.5
X235.5Y-59.5
X235.5Y-63.5
X235.5Y-64.5
X235.5Y-65.5
X235.5Y-66.5
X235.5Y-70.0
X235.5Y-71.0
X235.5Y-74.5
X235.5Y-75.5
X235.5Y-79.0
X235.5Y-80.0
X235.5Y-81.0
X235.5Y-84.5
X235.5Y-87.55
T3
X143.0Y-45.12
X143.0Y-50.0
T4
X152.3Y-89.25
X153.1Y-90.25
X153.9Y-89.25
X154.7Y-90.25
X155.5Y-89.25
T5
X153.9Y-46.0
X161.5Y-46.0
X161.96Y-64.92
X161.96Y-67.46
X161.96Y-70.0
X164.5Y-64.92
X164.5Y-67.46
X164.5Y-70.0
T6
X185.22Y-98.103
X186.617Y-100.897
X188.014Y-98.103
X189.411Y-100.897
X190.808Y-98.103
X192.205Y-100.897
X193.602Y-98.103
X194.999Y-100.897
X196.396Y-98.103
T7
X177.303Y-56.5
X187.697Y-56.5
X214.803Y-75.5
X214.803Y-79.41
X214.803Y-83.32
X214.803Y-87.23
X214.803Y-91.14
X214.803Y-95.05
X214.803Y-98.96
X214.803Y-102.87
X225.197Y-75.5
X225.197Y-79.41
X225.197Y-83.32
X225.197Y-87.23
X225.197Y-91.14
X225.197Y-95.05
X225.197Y-98.96
X225.197Y-102.87
T8
X214.61Y-67.08
X215.88Y-62.0
X217.15Y-67.08
X218.42Y-62.0
X219.69Y-67.08
X220.96Y-62.0
X222.23Y-67.08
X223.5Y-62.0
X224.77Y-67.08
X226.04Y-62.0
X227.31Y-67.08
X228.58Y-62.0
X229.85Y-67.08
X231.12Y-62.0
X232.39Y-67.08
T9
X147.5Y-76.5
X147.5Y-81.0
X154.0Y-76.5
X154.0Y-81.0
T10
X179.42Y-63.5
X181.96Y-63.5
X184.5Y-63.5
X216.92Y-53.5
X219.46Y-53.5
X222.0Y-53.5
T11
X192.08Y-43.0
X213.92Y-43.0
T4
G00X151.4Y-88.0
M15
G01X152.6Y-88.0
M16
G05
G00X153.3Y-91.5
M15
G01X154.5Y-91.5
M16
G05
G00X155.6Y-88.0
M15
G01X157.0Y-88.0
M16
G05
T5
G00X179.7Y-38.95
M15
G01X182.3Y-38.95
M16
G05
G00X179.9Y-45.25
M15
G01X182.1Y-45.25
M16
G05
G00X185.8Y-40.75
M15
G01X185.8Y-42.95
M16
G05
M30
