%TF.GenerationSoftware,KiCad,Pcbnew,9.0.1*%
%TF.CreationDate,2026-02-02T13:33:26+05:30*%
%TF.ProjectId,robotics_controller,726f626f-7469-4637-935f-636f6e74726f,rev?*%
%TF.SameCoordinates,Original*%
%TF.FileFunction,Soldermask,Bot*%
%TF.FilePolarity,Negative*%
%FSLAX46Y46*%
G04 Gerber Fmt 4.6, Leading zero omitted, Abs format (unit mm)*
G04 Created by KiCad (PCBNEW 9.0.1) date 2026-02-02 13:33:26*
%MOMM*%
%LPD*%
G01*
G04 APERTURE LIST*
G04 Aperture macros list*
%AMRoundRect*
0 Rectangle with rounded corners*
0 $1 Rounding radius*
0 $2 $3 $4 $5 $6 $7 $8 $9 X,Y pos of 4 corners*
0 Add a 4 corners polygon primitive as box body*
4,1,4,$2,$3,$4,$5,$6,$7,$8,$9,$2,$3,0*
0 Add four circle primitives for the rounded corners*
1,1,$1+$1,$2,$3*
1,1,$1+$1,$4,$5*
1,1,$1+$1,$6,$7*
1,1,$1+$1,$8,$9*
0 Add four rect primitives between the rounded corners*
20,1,$1+$1,$2,$3,$4,$5,0*
20,1,$1+$1,$4,$5,$6,$7,0*
20,1,$1+$1,$6,$7,$8,$9,0*
20,1,$1+$1,$8,$9,$2,$3,0*%
G04 Aperture macros list end*
%ADD10RoundRect,0.102000X0.930000X0.930000X-0.930000X0.930000X-0.930000X-0.930000X0.930000X-0.930000X0*%
%ADD11C,2.064000*%
%ADD12R,0.850000X0.850000*%
%ADD13C,0.850000*%
%ADD14RoundRect,0.102000X-0.795000X-0.795000X0.795000X-0.795000X0.795000X0.795000X-0.795000X0.795000X0*%
%ADD15C,1.794000*%
%ADD16RoundRect,0.102000X-0.889000X-0.889000X0.889000X-0.889000X0.889000X0.889000X-0.889000X0.889000X0*%
%ADD17C,1.982000*%
%ADD18C,4.114800*%
%ADD19C,1.778800*%
%ADD20O,4.604000X2.404000*%
%ADD21O,4.204000X2.204000*%
%ADD22O,2.204000X4.204000*%
%ADD23RoundRect,0.102000X0.810000X-0.810000X0.810000X0.810000X-0.810000X0.810000X-0.810000X-0.810000X0*%
%ADD24C,1.824000*%
%ADD25C,1.204000*%
%ADD26O,2.620000X1.412000*%
%ADD27O,2.504000X1.354000*%
%ADD28R,2.000000X2.000000*%
%ADD29C,2.000000*%
%ADD30C,1.211000*%
%ADD31C,2.454000*%
%ADD32RoundRect,0.102000X-0.930000X-0.930000X0.930000X-0.930000X0.930000X0.930000X-0.930000X0.930000X0*%
G04 APERTURE END LIST*
D10*
%TO.C,Q1*%
X184500000Y-63500000D03*
D11*
X181960000Y-63500000D03*
X179420000Y-63500000D03*
%TD*%
D12*
%TO.C,J15*%
X235500000Y-58500000D03*
D13*
X235500000Y-59500000D03*
%TD*%
D14*
%TO.C,D2*%
X214803000Y-75500000D03*
D15*
X225197000Y-75500000D03*
%TD*%
D12*
%TO.C,J12*%
X133500000Y-73500000D03*
D13*
X133500000Y-74500000D03*
X133500000Y-75500000D03*
%TD*%
D14*
%TO.C,D7*%
X214803000Y-95050000D03*
D15*
X225197000Y-95050000D03*
%TD*%
D14*
%TO.C,D3*%
X214803000Y-79410000D03*
D15*
X225197000Y-79410000D03*
%TD*%
D12*
%TO.C,J17*%
X235500000Y-74500000D03*
D13*
X235500000Y-75500000D03*
%TD*%
D12*
%TO.C,J11*%
X133500000Y-68000000D03*
D13*
X133500000Y-69000000D03*
X133500000Y-70000000D03*
%TD*%
D16*
%TO.C,X1*%
X161960000Y-64920000D03*
D17*
X164500000Y-64920000D03*
X161960000Y-67460000D03*
X164500000Y-67460000D03*
X161960000Y-70000000D03*
X164500000Y-70000000D03*
%TD*%
D14*
%TO.C,D9*%
X214803000Y-102870000D03*
D15*
X225197000Y-102870000D03*
%TD*%
D14*
%TO.C,D5*%
X214803000Y-87230000D03*
D15*
X225197000Y-87230000D03*
%TD*%
D18*
%TO.C,CON1*%
X178616000Y-99500000D03*
X203000000Y-99500000D03*
D19*
X196396000Y-98103000D03*
X193602000Y-98103000D03*
X190808000Y-98103000D03*
X188014000Y-98103000D03*
X185220000Y-98103000D03*
X194999000Y-100897000D03*
X192205000Y-100897000D03*
X189411000Y-100897000D03*
X186617000Y-100897000D03*
%TD*%
D20*
%TO.C,J1*%
X181000000Y-38950000D03*
D21*
X181000000Y-45250000D03*
D22*
X185800000Y-41850000D03*
%TD*%
D12*
%TO.C,J13*%
X133500000Y-79000000D03*
D13*
X133500000Y-80000000D03*
X133500000Y-81000000D03*
%TD*%
D12*
%TO.C,J16*%
X235500000Y-70000000D03*
D13*
X235500000Y-71000000D03*
%TD*%
D23*
%TO.C,U3*%
X214610000Y-67080000D03*
D24*
X215880000Y-62000000D03*
X217150000Y-67080000D03*
X218420000Y-62000000D03*
X219690000Y-67080000D03*
X220960000Y-62000000D03*
X222230000Y-67080000D03*
X223500000Y-62000000D03*
X224770000Y-67080000D03*
X226040000Y-62000000D03*
X227310000Y-67080000D03*
X228580000Y-62000000D03*
X229850000Y-67080000D03*
X231120000Y-62000000D03*
X232390000Y-67080000D03*
%TD*%
D25*
%TO.C,J6*%
X152300000Y-89250000D03*
X153100000Y-90250000D03*
X153900000Y-89250000D03*
X154700000Y-90250000D03*
X155500000Y-89250000D03*
D26*
X152000000Y-88000000D03*
D27*
X156300000Y-88000000D03*
D26*
X153900000Y-91500000D03*
%TD*%
D28*
%TO.C,BZ1*%
X153900000Y-46000000D03*
D29*
X161500000Y-46000000D03*
%TD*%
D14*
%TO.C,D4*%
X214803000Y-83320000D03*
D15*
X225197000Y-83320000D03*
%TD*%
D30*
%TO.C,Y1*%
X143000000Y-50000000D03*
X143000000Y-45120000D03*
%TD*%
D14*
%TO.C,D8*%
X214803000Y-98960000D03*
D15*
X225197000Y-98960000D03*
%TD*%
D12*
%TO.C,J20*%
X235500000Y-84500000D03*
%TD*%
%TO.C,J9*%
X235500000Y-63500000D03*
D13*
X235500000Y-64500000D03*
X235500000Y-65500000D03*
X235500000Y-66500000D03*
%TD*%
D12*
%TO.C,J21*%
X235500000Y-87550000D03*
%TD*%
%TO.C,J8*%
X133500000Y-62500000D03*
D13*
X133500000Y-63500000D03*
X133500000Y-64500000D03*
%TD*%
D14*
%TO.C,D6*%
X214803000Y-91140000D03*
D15*
X225197000Y-91140000D03*
%TD*%
D12*
%TO.C,J10*%
X153500000Y-65000000D03*
D13*
X153500000Y-66000000D03*
X153500000Y-67000000D03*
X153500000Y-68000000D03*
X153500000Y-69000000D03*
X153500000Y-70000000D03*
%TD*%
D31*
%TO.C,F1*%
X192080000Y-43000000D03*
X213920000Y-43000000D03*
%TD*%
D32*
%TO.C,U4*%
X216920000Y-53500000D03*
D11*
X219460000Y-53500000D03*
X222000000Y-53500000D03*
%TD*%
D12*
%TO.C,J2*%
X133500000Y-40500000D03*
D13*
X133500000Y-41500000D03*
X133500000Y-42500000D03*
%TD*%
D12*
%TO.C,J5*%
X133500000Y-57000000D03*
D13*
X133500000Y-58000000D03*
X133500000Y-59000000D03*
%TD*%
D29*
%TO.C,SW1*%
X147500000Y-76500000D03*
X154000000Y-76500000D03*
X147500000Y-81000000D03*
X154000000Y-81000000D03*
%TD*%
D12*
%TO.C,J19*%
X235500000Y-79000000D03*
D13*
X235500000Y-80000000D03*
X235500000Y-81000000D03*
%TD*%
D12*
%TO.C,J18*%
X228000000Y-53500000D03*
D13*
X229000000Y-53500000D03*
%TD*%
D12*
%TO.C,J4*%
X133500000Y-51500000D03*
D13*
X133500000Y-52500000D03*
X133500000Y-53500000D03*
%TD*%
D12*
%TO.C,J3*%
X133500000Y-46000000D03*
D13*
X133500000Y-47000000D03*
X133500000Y-48000000D03*
%TD*%
D14*
%TO.C,D1*%
X177303000Y-56500000D03*
D15*
X187697000Y-56500000D03*
%TD*%
M02*
